<?xml version="1.0"?>
<svg width="1024" height="768" xmlns="http://www.w3.org/2000/svg">
 <!-- Created with Method Draw - http://github.com/duopixel/Method-Draw/ -->
 <defs>
  <linearGradient y2="0" x2="1" y1="0" x1="0" spreadMethod="pad" id="svg_1">
   <stop offset="0" stop-color="#f06cd7"/>
   <stop offset="1" stop-opacity="0.996094" stop-color="#28d4b3"/>
  </linearGradient>
 </defs>
 <g>
  <title>Layer 1</title>
  <path d="m175.5,209.5c-1,0 -2.097885,0.824432 -4,2c-4.25325,2.628662 -10,7 -13,9c-3,2 -4.707108,3.707108 -4,3c0.707108,-0.707108 2.938126,-1.078583 8,-5c3.952652,-3.062119 9.525726,-6.850647 9,-6c-2.351135,3.80423 -16.613831,11.296997 -19,14c-1.479843,1.676331 -3,4 -2,3c2,-2 6.463562,-6.725067 13,-11c7.485504,-4.89563 9.971481,-5.055099 8,-4c-7.108292,3.804245 -12.212845,8.098022 -23,15c-1.883514,1.205139 -2.486618,-0.698975 11,-11c12.814255,-9.787476 22.539764,-14.468735 30,-16c0.979584,-0.201065 -3.085541,1.834686 -9,5c-7.108292,3.804245 -15.372009,8.385101 -19,11c-5.736343,4.134521 -9,8 -12,11c-3,3 -2,1 -3,1c-1,0 -0.770248,1.026749 -1,2c-0.513748,2.176254 -1.633453,8.022476 -2,11c-1.007553,8.184433 -2.345184,14.176971 -4,19c-1.45137,4.230072 -2.907074,5.234131 -3,3c-0.223801,-5.380524 6.986923,-13.757111 8,-20c0.160187,-0.987091 -0.44841,-0.194351 -2,4c-1.430496,3.867004 -1.519623,13.074829 -3,21c-1.51416,8.106018 -2.320358,10.974182 -2,9c1.013077,-6.242889 3.549149,-16.04483 7,-15c0.957092,0.289795 -0.913239,3.033081 -4,11c-1.945541,5.021454 -4.486252,10.823761 -5,13c-0.459503,1.946503 0,3 1,4c1,1 1,2 3,5c4,6 6,12 7,16c1,4 1,5 1,4c0,-1 -0.664993,-3.219391 -6,-11c-2.827545,-4.123718 -3.881668,-4.471863 -3,-4c3.178925,1.701294 5.497406,7.671356 8,12c3.811829,6.59317 4.968552,11.412079 7,15c0.696777,1.230652 0.545654,0.368744 -1,-2c-10.554108,-16.174377 -8,-23 -9,-23c-1,0 2.691406,7.140472 6,14c6.414429,13.298676 12.455612,24.845551 17,39c2.225449,6.93161 4.221481,12.180634 5,11c2.964478,-4.495758 4,-16 4,-20c0,-1 0,0 0,1c0,1 0,4 0,5c0,3 0.707108,4.292908 0,5c-0.707108,0.707092 -2.486252,1.823761 -3,4c-0.229752,0.973236 -1,1 -1,2c0,1 0,2 1,2c1,0 1.026749,-1.229767 2,-1c2.176254,0.513733 5.022064,0.837036 13,2c6.01915,0.877411 16,3 16,1c0,-1 -3.914246,-0.490814 -14,-2c-9.939224,-1.487244 -19.851593,-3.995117 -30,-5c-0.995132,-0.098541 -1.264908,-0.632446 0,0c6.324554,3.162292 15.93364,2.366455 26,4c15.916306,2.582855 28,6 28,3c0,-1 -2.987732,-0.075043 -15,-2c-12.987244,-2.081207 -25.969055,-4.161499 -36,-6c-5.983093,-1.096619 -7,-1 -5,-1c5,0 25.97197,4.11969 30,5c15.903458,3.475647 25.096603,5.533752 31,7c3.069031,0.762268 4,2 3,2c-1,0 -3,-1 -5,-1c-1,0 -0.306564,-0.458801 1,-1c0.923874,-0.38269 5,0 11,-2c12,-4 20.932983,-7.233185 31,-10c7.951355,-2.185364 9.973236,-2.229767 9,-2c-6.528748,1.541229 -13.35144,4.21405 -23,9c-5.223633,2.591064 -8.770248,3.026764 -9,4c-0.513748,2.176239 7.025238,0.082886 17,-3c22.057343,-6.8172 40.96637,-11.122711 59,-16c18.965515,-5.129303 23.679626,-7.974182 24,-6c0.506531,3.121429 -13.049805,3.823029 -24,7c-13.062805,3.789886 -21.462585,2.750153 -24,6c-0.615417,0.788208 3.224487,1.268707 18,-2c16.36734,-3.62085 32.051636,-9.800507 44,-13c7.032349,-1.883118 4.867004,-2.430481 1,-1c-8.388702,3.10318 -12.824432,4.0979 -14,6c-0.525726,0.850647 0.769348,0.696777 2,0c7.175842,-4.062897 17.931549,-7.181702 31,-12c16.914703,-6.236389 30.502441,-4.925781 30,-10c-0.098541,-0.995148 -4.261017,1.457916 -13,6c-5.173859,2.689117 -14,6 -14,7c0,1 1.076111,-0.61731 2,-1c2.613129,-1.082397 8.080505,-6.904938 14,-12c9.126465,-7.855408 12.773743,-14.835205 18,-17c0.923889,-0.38269 -0.581451,1.351227 -4,5c-6.303497,6.727997 -10.726501,11.29361 -15,15c-3.777283,3.276001 -4.447205,3.89444 -4,3c2.236053,-4.472137 8.082458,-10.001404 20,-20c9.351318,-7.845581 18.256592,-16.418854 23,-18c0.948669,-0.316223 -4.445465,2.447968 -12,9c-7.478607,6.486176 -14.821075,17.701294 -18,16c-0.881683,-0.471863 1.625824,-3.31015 5,-7c9.078979,-9.928345 15,-14 26,-25c8,-8 11.386871,-12.917603 14,-14c0.923889,-0.38269 -3.232727,2.733246 -9,8c-4.177155,3.814636 -6.346191,6.705475 -8,9c-1.307465,1.813995 -1,1 -1,0c0,-1 4,-7 7,-12c3,-5 5.610931,-10.037476 5,-15c-0.503784,-4.092224 -2.38269,-4.923889 -2,-4c0.541199,1.306549 1.234619,3.152252 2,5c0.541199,1.306549 0.923889,2.38269 0,2c-1.306549,-0.541199 -5.40979,-2.355743 -12,-7c-7.536194,-5.310898 -22.298706,-16.821075 -24,-20c-0.471863,-0.881668 1.047333,0.937881 5,4c5.061859,3.921417 13,11 18,16c6,6 8,11 9,10c1,-1 -4.168518,-2.835449 -11,-10c-10.25885,-10.758987 -18.155334,-19.873886 -23,-26c-3.101471,-3.921844 -3.289795,-4.957092 -3,-4c1.04483,3.450851 5.735779,8.235413 12,15c5.76532,6.225845 10.863251,11.14682 13,13c3.777283,3.276001 5.316223,3.948669 5,3c-1.581146,-4.743408 -8.406189,-11.783035 -12,-19c-3.394775,-6.817291 -3,-13 -3,-15c0,-1 0.046692,-0.034607 3,4c5.081055,6.941406 8.925781,13.042938 13,20c2.946655,5.031616 6.458801,9.693451 7,11c0.38269,0.923889 -1.728241,0.799835 -4,-2c-3.393066,-4.181763 -5.680603,-9.654266 -10,-19c-3.584534,-7.755722 -6.497559,-16.925797 -7,-22c-0.197083,-1.990265 -0.38269,-0.923874 0,0c1.082397,2.613129 6,8 10,14c2,3 3.674988,9.62001 7,15c1.487,2.406006 1.434387,1.437744 0,-1c-3.691956,-6.274521 -4.761414,-14.14183 -9,-21c-3.791107,-6.134125 -5.486267,-9.823746 -6,-12c-0.229767,-0.973251 -0.533875,0.072571 0,2c1.556488,5.61937 3.871826,7.089539 6,10c3.779449,5.168716 5.692535,8.186005 7,10c0.826904,1.147263 0.093933,-1.038605 -2,-6c-3.829559,-9.073837 -9.251312,-20.371552 -14,-29c-1.738434,-3.158768 -4.824432,-5.097885 -6,-7c-0.525726,-0.850647 -0.292908,-0.707108 -1,0c-0.707092,0.707108 -0.384583,0.788208 -1,0c-2.537415,-3.249847 -10.027802,-2.881958 -23,-6c-12.026764,-2.890793 -14.992493,-4.122177 -14,-4c4.092224,0.503769 9.921783,3.492386 21,5c10.944489,1.48941 14.995148,1.098541 14,1c-5.074219,-0.502441 -16.879028,-4.56572 -39,-9c-22.889893,-4.588409 -33.176239,-4.513748 -31,-4c5.839508,1.378525 20.061646,1.556839 36,4c11.05127,1.694031 20,6 20,3c0,-3 -13.972778,-2.13768 -44,-8c-20.981445,-4.096283 -20.693451,-3.458801 -22,-4c-2.771637,-1.148056 -15.033997,-0.302048 -43,3c-31.041367,3.665161 -52.998062,6.062134 -52,6c16.093353,-1.001938 82,-17.071075 82,-10c0,7.071075 -30.090851,3.205902 -51,6c-29.168594,3.897812 -36.992508,6.122177 -36,6c4.092209,-0.503769 8.870895,-2.695572 34,-7c20.908691,-3.581497 38.029785,-3.837387 33,-3c-14.927277,2.485199 -42.005325,6.977463 -59,11c-21.006607,4.972137 -19.969559,5.193832 -13,4c5.025818,-0.860886 14.086121,-3.720047 21,-6c8.114197,-2.675781 14,-5 12,-4c-6,3 -20.651245,9.795212 -45,20c-20.725555,8.686279 -34.07103,23.991516 -40,15c-0.778519,-1.180649 12.778061,-5.496704 28,-12c17.760239,-7.587738 39.466125,-16.927429 40,-15c1.556473,5.61937 -20.206726,11.573074 -35,19c-26.390472,13.249268 -32.175568,16.097885 -31,18c0.525726,0.850647 4.388199,-1.222534 25,-12c7.144531,-3.735718 28.123886,-13.858414 27,-13c-6.407135,4.893738 -17.732758,8.765137 -42,24c-10.338135,6.490234 -20.296997,16.613831 -23,19c-1.676331,1.479843 -1.522675,-0.477325 4,-6c5.522675,-5.522675 11.001465,-17.776367 28,-18c2.23587,-0.029419 -8.321915,6.561264 -18,14c-19.694214,15.137299 -27.527863,17.055725 -32,26c-0.44722,0.89444 0.692551,-0.186005 2,-2c3.307617,-4.589081 7,-8 11,-12c4,-4 6.61731,-6.923874 7,-6c0.541199,1.306564 -3.194092,3.88855 -6,9c-2.152039,3.920303 -3.76268,9.050415 -6,19c-1.809113,8.045319 -4.496231,18.907776 -5,23c-0.610916,4.962524 -1,8 0,8c1,0 -0.55481,-3.038666 0,-7c1.009766,-7.209747 1.693436,-12.541199 3,-12c0.923874,0.38269 -0.993988,3.83551 -2,13c-0.763824,6.958191 -0.732101,14.043518 -2,21c-1.653137,9.070129 -6,16 -3,16c1,0 -0.591232,-2.029205 0,-8c0.502441,-5.074219 1.693436,-9.541199 3,-9c0.923874,0.38269 0.39415,2.01947 0,6c-0.502441,5.074219 -1.674988,10.620026 -5,16c-1.487,2.406006 -1.923874,2.61731 -1,3c1.306564,0.541199 3.926163,2.170441 13,6c9.922791,4.187866 25.703644,11.781036 38,16c10.784607,3.700287 20.692551,8.813995 22,7c0.826904,-1.147278 -2.869827,-1.373138 -11,-4c-10.849503,-3.505463 -23.757111,-6.986908 -30,-8c-1.974182,-0.320374 -3.974182,-0.320374 -2,0c3.121445,0.506531 7.850998,3.318604 14,6c7.831757,3.415192 12,5 14,5c0,0 -4.041321,-0.847229 -8,-2c-6.072327,-1.76828 -12.014984,-2.755646 -14,-3c-4.092209,-0.503784 -8,-5 -8,-3c0,2 3.042908,-0.710205 4,-1c3.450851,-1.04483 7.967865,-6.043091 16,-12c14.940643,-11.080475 27.215103,-20.643616 39,-28c9.17572,-5.727661 11.433182,-7.901306 11,-7c-2.773758,5.771149 -11.7491,10.324127 -22,18c-9.770859,7.316437 -21.058594,14.918945 -28,20c-4.034607,2.953308 -1.353989,-1.441254 16,-15c26.477386,-20.68689 53.375061,-40.158173 73,-50c6.807678,-3.414032 4.765991,-2.50705 0,0c-3.190979,1.678558 -4,3 -5,3c-1,0 -1.292908,0.292908 -2,1c-0.707092,0.707092 -1.61731,-0.076111 -2,-1c-0.541199,-1.306549 -1.946228,-1.056824 -3,-2c-4.771149,-4.270386 -18.591888,-13.751892 -31,-20c-13.604141,-6.850357 -20.540497,-10.946503 -21,-9c-0.513748,2.176254 5.891708,3.195755 13,7c7.885941,4.220428 17.108231,9.817688 29,17c8.075378,4.877319 14.692535,10.813995 16,9c0.826904,-1.147278 -2.945496,-1.111572 -9,-4c-21.811142,-10.405487 -41.890732,-18.271484 -59,-25c-7.951233,-3.126953 -12.412079,-3.968552 -16,-6c-1.230652,-0.696777 0,0 1,0c1,0 2.025208,0.881332 7,2c8.045319,1.809113 23.909378,5.381775 40,9c9.949585,2.237335 10.014008,1.954193 -3,-2c-9.98938,-3.035187 -16.337112,-2.641144 -31,-7c-5.161911,-1.534485 -7.076126,-1.61731 -8,-2c-1.306564,-0.541199 -3.878555,-2.493454 -7,-3c-0.987091,-0.160187 -0.525726,-0.149353 0,-1c2.351135,-3.80423 25.157547,-18.338425 69,-45c29.461853,-17.916428 32.113007,-17.837891 25,-13c-16.742844,11.387589 -27.025299,17.956055 -34,22c-17.062546,9.892883 -20.194489,11.743973 -15,8c16.426407,-11.839478 35.842743,-25.22847 59,-41c5.960114,-4.059204 6,-3 5,-3c-1,0 -1.823761,-0.486252 -4,-1c-1.946503,-0.459503 -3.203003,0.2565 -2,1c2.690002,1.662506 11.901428,6.167435 22,12c53.492706,30.895462 70.294983,38.945023 79,41c0.973236,0.229752 -0.008881,0.026276 -3,-1c-17.051971,-5.850662 -31.861359,-11.408279 -49,-17c-29.776184,-9.71489 -37,-11 -39,-12c0,0 14.122406,5.683197 30,12c19.155243,7.620804 38.089233,16.836731 51,24c7.049866,3.911469 11.298706,4.821075 13,8c0.471863,0.881668 -0.752228,1.283157 -3,3c-19.221405,14.681213 -37.080475,22.900421 -47,31c-12.099396,9.879517 -19,16 -25,22c-2,2 -1.924988,3.108215 1,1c9.249573,-6.666718 17.840607,-15.22702 32,-25c8.9021,-6.144318 16.714111,-13.78833 19,-11c1.793182,2.187347 -8.217041,5.652252 -18,12c-10.239838,6.644226 -17.618011,11.642883 -24,15c-4.765991,2.50705 -6.292908,3.292908 -7,4c-0.707092,0.707092 -0.707092,0.292908 0,1c0.707092,0.707092 2.141846,0.761414 9,5c6.134125,3.791107 12.237366,8.73764 20,16c6.19635,5.796997 10.228851,8.729614 15,13c1.053772,0.943176 2.093658,1.896606 1,1c-2.78833,-2.285889 -10.180176,-8.408722 -30,-19c-8.686401,-4.641815 -7.317352,-1.567352 -2,2c8.549774,5.735962 15.902924,8.158783 24,13c6.919739,4.137299 17.027496,3.647491 16,8c-0.229767,0.973236 -1.693451,0.458801 -3,1c-1.847748,0.765381 -6.857391,1.467651 -16,4c-8.88501,2.460999 -22,6 -33,8c-11,2 -19.133759,0.851227 -24,2c-2.176239,0.513733 -3,1 -4,1c-1,0 -1,1 -3,1c-1,0 -1.234375,-0.810974 -2,-2c-4.62561,-7.183594 -7.894379,-19.056335 -17,-36c-5.931427,-11.03714 -11.83522,-16.773743 -14,-22c-0.765366,-1.847748 -0.38269,-0.923889 0,0c1.623581,3.919678 5,7 8,13c5,10 10,17 14,22c4,5 4.923889,6.38269 4,6c-1.306549,-0.541199 -10.216644,-7.788452 -19,-17c-10.25885,-10.759003 -20.988358,-24.846924 -27,-31c-3.494186,-3.576385 -6.707108,-4.707092 -6,-4c0.707108,0.707092 3.156448,2.849426 7,7c6.264221,6.764587 11.578568,13.448486 19,20c8.547638,7.545715 12.386871,10.917603 15,12c0.923889,0.38269 -6.154266,-2.588531 -15,-11c-8.262527,-7.856903 -17.463409,-17.557129 -27,-28c-5.266754,-5.767273 -9,-11 -11,-13c-3,-3 -5.824432,-4.0979 -7,-6c-0.525726,-0.850647 -0.076126,-0.38269 -1,0c-6.532822,2.705994 -11.119202,9.849365 -20,17c-12.166763,9.796417 -19.228851,14.729614 -24,19c-3.161316,2.829498 -4.61731,4.923889 -5,4c-0.541199,-1.306549 2,-2 4,-4c4,-4 16.57814,-14.614807 28,-22c6.770294,-4.377563 12.513748,-4.823761 12,-7c-0.229752,-0.973236 -3.351242,0.581451 -7,4c-6.727997,6.303497 -13.8591,14.185028 -23,21c-6.896561,5.141724 -11.292892,8.292908 -12,9c-0.707108,0.707092 -0.693436,1.458801 -2,2c-0.923874,0.38269 -1,1 -2,2c-2,2 -6.372009,4.385101 -10,7c-1.147263,0.826904 -1,0 1,-2c6,-6 19.178772,-18.781525 29,-27c24.457062,-20.465881 43.827988,-37.197235 61,-52c18.814041,-16.218246 30.465454,-24.662689 39,-31c7.574188,-5.624207 9.38269,-5.923874 9,-5c-0.541199,1.306564 -1.881531,3.190277 -5,5c-3.867981,2.24469 -8.902924,6.158783 -17,11c-6.919739,4.137299 -12.594437,8.555206 -22,15c-4.810089,3.295929 -8,4 -8,4c1,-1 7.902756,-6.131897 16,-12c9.883957,-7.162933 26.091675,-16.864182 38,-25c10.078888,-6.885941 19.21167,-11.714127 22,-14c1.093658,-0.896591 1.61731,-1.076126 2,-2c0.541199,-1.306564 1.0979,-1.824432 3,-3c0.850647,-0.525726 0.850647,0.474274 0,1c-1.9021,1.175568 -6.262085,5.572769 -13,10c-8.357361,5.491302 -21,15 -30,22c-9,7 -20.175674,16.828094 -28,25c-11.258087,11.758209 -18,19 -24,26c-6,7 -8,11 -9,12c0,0 0.86911,-2.135315 5,-6c7.762619,-7.26236 12.386871,-11.917603 15,-13c0.923874,-0.38269 0.583572,2.275055 -2,7c-4.127029,7.547699 -9.033386,12.976257 -14,20c-7.047531,9.966553 -12.562866,16.630341 -17,24c-1.153381,1.915649 -2,3 -2,2c0,-1 -1.031448,-3.412079 1,-7c0.696777,-1.230652 0.877426,-2.019135 0,4c-1.162949,7.977936 -1.497101,17.015472 -1,25c0.500961,8.046692 2.098068,16.91803 2,23c-0.082214,5.098358 -1.824432,5.9021 -3,4c-2.628662,-4.253265 -4,-9 -4,-12c0,-3 1.310211,-2.281006 4,1c2.285873,2.78833 6.519287,7.558197 9,11c1.307449,1.813995 2,4 2,5c0,1 0.292892,2.292908 1,3c0.707108,0.707092 1.292892,0.292908 2,1c5.65686,5.65686 13.012329,-0.543762 25,0c11.034012,0.500519 16.051651,1.359283 20,2c3.121445,0.506531 4.707108,1.707092 4,1c-0.707108,-0.707092 -1,-1 0,-1c1,0 5.460876,-4.474213 23,-7c3.959167,-0.57016 5,0 6,0c1,0 -0.025818,-1.679626 -2,-2c-3.121429,-0.506531 -8.403595,-4.644592 -11,-8c-12.070129,-15.59848 -14,-29 -14,-35c0,-2 -0.229752,-3.973236 0,-3c0.513733,2.176239 2.486267,4.823761 3,7c0.919006,3.893005 0,6 -1,6c-1,0 -1.990234,-0.790253 -3,-8c-0.693512,-4.95166 0.095444,-10.977356 1,-15c2.237335,-9.949585 3.497559,-15.925781 4,-21c0.197083,-1.990265 0.430481,-0.867004 -1,3c-1.551605,4.194336 -2.693436,10.541199 -4,10c-0.923874,-0.38269 0.694458,-6.082642 3,-14c3.53653,-12.144653 10.157166,-20.876251 18,-31c3.062103,-3.952652 5.175568,-5.902115 4,-4c-2.628662,4.25325 -5.385101,10.372009 -8,14c-0.826904,1.147278 -0.884918,0.103149 0,-1c8.158478,-10.170502 15.67276,-23.338318 26,-33c7.762634,-7.262344 11.61731,-10.923874 12,-10c1.082397,2.613129 -5.589752,6.44043 -12,12c-3.777283,3.276016 -6.38269,5.923874 -6,5c1.082397,-2.613129 6.938538,-9.048157 14,-18c7.931335,-10.05455 13.813995,-16.692551 12,-18c-1.147278,-0.826904 -4.442963,4.638718 -6,7c-2.964478,4.495758 -2.292908,5.707108 -3,5c-0.707092,-0.707108 -2.34314,-4.876053 -4,-10c-1.268555,-3.923111 -2.705475,-8.346191 -5,-10c-1.813995,-1.307449 -2,-2 -2,-1c0,1 0.073395,1.931625 1,3c3.276001,3.777267 4.714111,6.21167 7,9c0.896606,1.093674 1.92807,1.046722 0,-2c-3.118103,-4.927216 -8,-10 -11,-13c-1,-1 -0.943726,-0.763351 0,1c3.402618,6.357849 12.577179,12.736572 16,21c3.630463,8.764694 7.095428,19.977341 8,24c1.118652,4.974792 0.503784,4.092209 0,0c-0.855286,-6.947556 0.693451,-12.458801 2,-13c0.923889,-0.38269 3.34314,2.876053 5,8c2.537109,7.846222 5.490295,15.744034 7,29c0.565796,4.967896 0.395966,10.226532 -1,10c-2.207184,-0.358185 -1.503784,-8.907791 -1,-13c0.244354,-1.985016 0,-1 0,2c0,8 0.24704,16.023163 -1,28c-0.83493,8.018921 -3.714111,15.21167 -6,18c-0.896606,1.093658 -2.160187,0.987091 -2,0c1.013092,-6.242889 5.486267,-10.823761 6,-13c0.229767,-0.973236 0.466248,1.096619 -1,7c-1.524536,6.138062 -3.171875,12.224945 -6,21c-2.336151,7.248596 -5.793945,15.087433 -8,20c-0.916016,2.039825 -1.122192,2.992493 -1,2c0.503784,-4.092224 2.161255,-8.796265 6,-12c1.716736,-1.43277 2.289795,0.042908 2,1c-1.04483,3.450836 -4.898529,8.078156 -8,12c-4.844666,6.126099 -8.371338,9.746735 -11,14c-1.175568,1.9021 -1,3 0,3c1,0 6.203033,-0.315369 14,-3c9.312317,-3.20636 23.757782,-10.626404 36,-15c9.831726,-3.512451 19.337494,-7.690002 21,-5c0.7435,1.203003 -2.06601,0.877655 -4,2c-3.118469,1.809723 -1.973236,2.229767 -1,2c2.176239,-0.513733 6.39624,-2.549652 11,-7c6.628723,-6.407806 9.929138,-13.061951 9,-20c-1.513397,-11.300873 -4,-16 -4,-18c0,-1 -0.031464,3.412079 2,7c2.090332,3.691956 3.693451,5.541199 5,5c0.923889,-0.38269 1,-4 1,-10c0,-8 -5.42337,-24.324799 -9,-30c-6.079102,-9.645966 -8.796997,-11.7435 -10,-11c-2.690002,1.662506 3.385101,8.372009 6,12c1.653809,2.294525 2.098541,1.995148 2,1c-0.502441,-5.074219 -7.371277,-15.592178 -14,-22c-9.207489,-8.900665 -15.186005,-11.692551 -17,-13c-1.147278,-0.826904 -1,0 2,2c3,2 8.309998,5.337494 11,7c1.203003,0.7435 1.223907,-0.128632 0,-2c-4.274933,-6.536438 -10.920288,-11.11351 -18,-16c-8.9021,-6.144318 -13.386871,-8.917603 -16,-10c-0.923889,-0.38269 0.072784,0.881897 5,4c3.046722,1.92807 5.147278,2.826904 4,2c-1.813995,-1.307449 -7.840668,-5.335922 -16,-9c-9.825134,-4.412125 -20.247772,-7.375122 -31,-12c-4.108215,-1.767075 -7.707092,-3.707108 -7,-3c0.707092,0.707108 1.292908,0.292892 2,1c0.707092,0.707108 2,0 1,-1c-1,-1 -1.375366,-1.940048 -7,-5c-2.777802,-1.5112 -9.372009,-3.385101 -13,-6c-1.147278,-0.826904 -1.957092,-1.28978 -1,-1c3.450836,1.04483 10.935303,4.233795 25,8c11.948364,3.199493 24.216736,5.314758 41,11c13.192047,4.468735 31.168243,10.584808 39,14c2.049652,0.893799 2.05658,0.852264 -3,-1c-8.90799,-3.263062 -12.61731,-5.923874 -13,-5c-0.541199,1.306564 6.047028,3.907272 14,8c17.103485,8.801758 31.457703,17.459244 41,26c4.215088,3.772675 6,9 7,8c1,-1 -4.90097,-7.900986 -10,-13c-2.5495,-2.549515 -3.38269,-2.923874 -3,-2c1.082397,2.613129 4.881897,6.072784 8,11c1.92807,3.046722 6.465515,9.838089 8,15c1.452942,4.887634 -1,10 1,10c1,0 -0.24292,-1.946991 -1,-6c-1.480377,-7.925186 -3,-14 -3,-17c0,-2 0.190277,-1.118484 2,2c1.122345,1.93399 2.714111,5.21167 5,8c0.896606,1.093674 0.194275,0.795776 -4,-3c-10.538025,-9.536774 -28.604858,-22.865768 -41,-28c-11.686249,-4.840607 -24.898102,-8.399017 -32,-10c-5.933868,-1.337677 -8.707092,-1.707108 -8,-1c0.707092,0.707108 2,1 5,2c3,1 4.38269,0.923874 4,0c-0.541199,-1.306564 -7,-5 -13,-9c-9,-6 -16.840668,-9.335922 -25,-13c-4.912567,-2.20607 -14.503784,-0.907791 -14,-5c0.244354,-1.985016 3.091156,0.795685 10,4c8.114044,3.76329 20.879181,11.193588 32,18c16.822388,10.29599 28.660645,17.384644 37,27c6.552032,7.554535 10.493469,15.878555 11,19c0.160187,0.987091 -0.186005,0.307449 -2,-1c-3.441803,-2.480713 -10,-9 -13,-12c-2,-2 -3.38269,-1.923874 -3,-1c1.082397,2.613129 5.194092,4.88855 8,10c4.304077,7.840607 6,15 8,22c2,7 1,11 2,11c1,0 0,-2 -1,-4c-1,-2 0,-5 -1,-5c-1,0 0.394165,2.01947 0,6c-0.502441,5.074219 -2.42215,10.190735 -4,14c-2.231415,5.387085 -5.714111,8.21167 -8,11c-0.896606,1.093658 -1.38269,1.923889 -1,1c0.541199,-1.306549 3.693451,-3.541199 5,-3c0.923889,0.38269 -0.210052,2.850769 -3,7c-3.253601,4.838806 -6.068054,9.919464 -12,15c-4.42865,3.79303 -9.693451,7.458801 -11,8c-0.923889,0.38269 -1.076111,0.61731 -2,1c-1.306549,0.541199 -1.647095,1.674103 -5,3c-5.656525,2.236877 -10.168793,2.17395 -17,4c-5.202515,1.390686 -16.064575,3.199097 -21,4c-3.121429,0.506531 -6.878571,1.493469 -10,2c-0.987091,0.160187 -2.707092,0.707092 -2,0c0.707092,-0.707092 2.065948,-1.951385 5,-6c7.162933,-9.883942 15.380554,-21.763031 19,-28c6.73407,-11.603973 9.499023,-19.953308 10,-28c0.124268,-1.996124 -0.710205,-2.957092 -1,-2c-1.04483,3.450836 -1.234619,5.152252 -2,7c-0.541199,1.306549 -0.693451,3.541199 -2,3c-0.923889,-0.38269 0.321442,-1.809021 2,-5c2.50705,-4.765991 6.502319,-14.793884 7,-24c0.4888,-9.042175 -2.147736,-18.943405 -4,-24c-1.087677,-2.96933 -2.38269,-3.923874 -2,-3c0.541199,1.306564 1.385101,4.372009 4,8c2.480713,3.441803 2.160187,1.987091 2,1c-1.013092,-6.242889 -5,-13 -9,-20c-4,-7 -9.517792,-15.427261 -14,-20c-5.467194,-5.577621 -10.15097,-6.434631 -12,-9c-0.584717,-0.811249 2.824432,0.097885 4,2c0.525726,0.850647 0.320374,-0.025818 0,-2c-0.506531,-3.121445 -3.75531,-6.132004 -6,-10c-1.809723,-3.118484 -6.723999,-8.222733 -10,-12c-0.926605,-1.068375 -1.707092,-1.707108 -1,-1c0.707092,0.707108 3.284149,2.731155 8,8c4.270386,4.771149 10.541382,13.88382 12,22c1.601746,8.912598 1,15 1,20c0,5 -1,7 -1,6c0,-1 1,-2 1,-4c0,-1 -0.852722,0.173096 -2,1c-5.441986,3.922363 -12.651062,9.432831 -20,15c-8.621979,6.53157 -18,14 -24,20c-2,2 -3.068375,1.926605 -2,1c3.777283,-3.276001 6.386871,-5.917603 9,-7c0.923889,-0.38269 1.68927,1.080261 1,4c-0.513733,2.176239 -3.641327,10.107178 -5,14c-3.981689,11.408173 -7.493454,19.878571 -8,23c-0.160187,0.987091 -0.164963,0.993195 0,-1c0.501709,-6.062042 1.292892,-9.707092 2,-9c0.707108,0.707092 0.860992,3.265991 -2,11c-1.55159,4.194336 -4.280991,14.063263 -3,27c0.502441,5.074219 0.386871,10.082397 3,9c0.923874,-0.38269 -0.689255,-4.080261 0,-7c0.513748,-2.176239 2,-2 2,-1c0,2 2,9 3,12c2,6 4.292908,10.292908 5,11c0.707092,0.707092 0.458801,1.693451 1,3c0.765381,1.847748 1.917603,3.386871 3,6c0.765381,1.847748 1.144287,3.934143 2,6c1.210144,2.92157 1,4 0,4c-1,0 -1.025818,0.679626 -3,1c-3.121429,0.506531 -10.052444,2.144714 -17,3c-8.184433,1.007538 -20.074814,3.519623 -28,5c-8.106003,1.51416 -12.038742,3.48056 -15,3c-3.121445,-0.506531 -5.076126,-0.61731 -6,-1c-1.306564,-0.541199 -2.118332,-1.528137 -3,-2c-3.178925,-1.701294 -8.096451,-10.334351 -12,-18c-4.304916,-8.453857 -4.27803,-18.072937 -1,-30c2.766815,-10.067017 7.926056,-20.043427 15,-32c2.969086,-5.018433 6,-9 5,-9c-1,0 0.229752,2.026764 0,3c-0.513748,2.176239 -3.726501,7.29361 -8,11c-3.777267,3.276001 -6,5 -6,4c0,-1 0.328278,-3.385864 4,-9c8.549866,-13.072876 30.061478,-30.931366 39,-39c12.083832,-10.907852 21.821838,-21.384766 31,-28c1.813995,-1.307449 -1.061493,0.931366 -10,9c-12.083832,10.907852 -16.080307,19.623596 -20,18c-0.923874,-0.38269 0.022324,-1.980927 6,-9c11.041351,-12.964905 33.283234,-29.587662 48,-40c8.163391,-5.775726 8.525726,-6.850647 8,-6c-2.351135,3.80423 -13.21167,8.714127 -16,11c-1.093658,0.896591 -1,0 1,-2c6,-6 13.185028,-11.8591 20,-21c5.141724,-6.896561 6.919006,-11.10701 6,-15c-0.513733,-2.176254 -1.693451,-5.458801 -3,-6c-0.923889,-0.38269 -1,-1 -2,-1c-1,0 -4.585785,-3.414215 -6,-2c-0.707092,0.707108 -0.144287,1.934143 -1,4c-2.420288,5.843124 -4.967865,12.74649 -11,20c-10.408752,12.516296 -21.808044,22.374771 -30,25c-0.952301,0.305176 0.138809,-0.811157 7,-6c5.107117,-3.862305 4.923889,-3.38269 4,-3c-6.532806,2.705978 -8.838242,8.185776 -18,16c-10.813599,9.223129 -23.660675,18.579605 -37,26c-1.954071,1.087006 -1.229385,-0.259354 1,-2c4.595993,-3.58844 10.38269,-6.923874 10,-6c-0.541199,1.306564 -4.698975,5.320343 -10,10c-8.547653,7.545715 -23.049149,16.944244 -31,24c-10.062683,8.92984 -16.434631,16.84903 -19,15c-0.811249,-0.584717 2.729614,-3.228851 7,-8c0.943176,-1.053772 2.229752,-1.973236 2,-1c-0.513748,2.176239 -4.702286,4.970612 -9,14c-1.771988,3.7229 -5.442017,7.190826 -8,19c-1.481903,6.841339 0.95517,9.549164 2,13c0.28978,0.957092 -0.149353,0.525726 -1,0c-1.902115,-1.175568 -5.383499,-4.374115 -8,-12c-2.294815,-6.688324 -3.506439,-14.242767 -1,-25c3.160675,-13.565033 18.797409,-30.208649 26,-37c8.761124,-8.26091 19.61731,-15.923874 20,-15c0.541199,1.306564 -2.723984,2.222733 -6,6c-0.92659,1.068375 -2.292892,2.707108 -3,2c-0.707108,-0.707108 0.878677,-4.365128 14,-14c17.696136,-12.99411 39.349976,-25.156723 60,-36c10.697876,-5.617432 10.808777,-5.291824 0,2c-7.131271,4.810913 -14.585785,12 -16,12c-1.414215,0 2.408203,-6.740524 11,-13c14.13858,-10.300522 28.945831,-18.14859 37,-21c2.980988,-1.055359 -10.644562,9.570831 -20,15c-3.867981,2.24469 -5.424164,2.905594 -5,2c3.312775,-7.072876 17.816406,-10.374405 25,-15c1.189026,-0.76564 1.292908,-1.292892 2,-2c0.707092,-0.707108 2.458801,-0.693436 3,-2c0.38269,-0.923874 -1,-1 -2,-1c-2,0 -10.165314,1.44899 -21,5c-13.235657,4.337921 -31.895462,14.197708 -45,21c-9.923126,5.150894 -19.855713,7.934143 -19,10c1.210144,2.92157 8,-4 18,-9c6,-3 16.592865,-9.106262 23,-14c1.123886,-0.858414 2,-1 -1,1c-6,4 -18.895462,12.197708 -32,19c-19.846237,10.301773 -33.330017,16.38829 -43,22c-6.236954,3.619446 -7.068375,4.92659 -6,4c3.777267,-3.276016 13.771729,-9.3853 22,-14c7.801147,-4.375153 16.418854,-10.581146 18,-9c1.581146,1.581146 -7.180389,5.722351 -15,11c-11.273956,7.60907 -19.273788,13.736526 -26,21c-6.264221,6.764587 -10.95517,12.549149 -12,16c-0.28978,0.957092 0,2 0,3c0,1 0,2 0,3c0,1 0.295609,3.014587 0,6c-0.502441,5.074219 -1.903397,9.016907 -3,15c-0.91925,5.015472 -1,10 -1,15c0,7 2,11 6,17c2,3 3.167969,4.920349 5,9c2.20607,4.912567 5.310211,6.718994 8,10c2.285873,2.78833 4.723984,6.222717 8,10c1.853195,2.136749 6.932938,6.104462 10,8c6.85817,4.238586 11,6 16,8c5,2 12.946716,4.498749 20,5c3.989944,0.283569 11.0121,0.081299 18,-1c6.011215,-0.930176 16.051819,-2.610748 25,-4c5.038666,-0.782288 8,0 8,-1c0,-1 -2.028198,0.893341 -6,2c-13.102371,3.650726 -20,7 -22,8c-2,1 -1.987091,0.160187 -1,0c3.121445,-0.506531 6.925797,-2.497559 12,-3c3.98053,-0.394165 7.61731,0.923889 8,0c0.541199,-1.306549 -19.938141,0.49527 -34,2c-13.955994,1.493408 -23,2 -24,2c-1,0 -2,0 -4,0c-2,0 -2.2565,-0.796997 -3,-2c-1.662506,-2.690002 -4,-6 -4,-5c0,1 1,-1 2,-1c1,0 4,-1 10,-1c8,0 13.244034,0.161316 18,2c5.43866,2.102631 11.683502,4.390808 12,12c0.131424,3.159546 -1.593994,9.504333 -4,14c-0.667313,1.246887 0,2 0,3c0,2 -1.642883,5.618011 -5,12c-2.50705,4.765991 -5.872559,9.539612 -14,26c-3.371735,6.828735 -4,11 -3,11c1,0 0.61731,-0.923889 1,0c0.541199,1.306549 2.493454,2.878571 3,6c0.800919,4.935425 -0.247437,8.010223 0,11c0.501709,6.062042 2.519455,13.038727 3,16c1.013077,6.242889 2.035522,10.504242 5,15c1.557022,2.361298 2.702667,3.541351 6,5c3.770645,1.66803 15.071793,3.691254 20,5c3.056335,0.811646 15.02475,4.939178 20,7c7.036072,2.914429 12.112152,6.918274 15,11c4.164948,5.886719 7.122162,15.489441 13,25c5.257324,8.506531 10.761414,14.141846 15,21c5.686646,9.201172 15.587372,23.489868 25,31c6.724243,5.365112 11.394379,7.278809 21,13c10.487274,6.246338 15.817993,10.226868 22,15c6.80896,5.257202 10.19577,6.648865 14,9c4.253265,2.628662 7.292908,4.707092 8,4c0.707092,-0.707092 0,-2 0,-3c0,-1 0,-2 0,-3c0,-3 0.147278,-5.173096 -1,-6c-1.813995,-1.307434 -3.823761,-2.486267 -6,-3c-1.946503,-0.459534 -5.128723,0.869324 -8,0c-3.450836,-1.044861 -7.197998,-2.632996 -13,-6c-3.118469,-1.809692 -6,-3 -9,-5c-3,-2 -6.812653,-4.206787 -9,-6c-2.78833,-2.285889 -4.714111,-5.21167 -7,-8c-1.793182,-2.187317 -3.906342,-4.103394 -5,-5c-2.78833,-2.285889 -5,-4 -6,-5c-3,-3 -5,-4 -7,-6c-2,-2 -3.190277,-3.881531 -5,-7c-1.122345,-1.934021 -3.610657,-8.159302 -5,-11c-1.584106,-3.238892 -3,-5 -5,-9c-1,-2 -3,-4 -4,-5c-1,-1 -2.41156,-5.403992 -6,-10c-0.870331,-1.114685 -1.714111,-3.21167 -4,-6c-1.793182,-2.187317 -3.824432,-5.0979 -5,-7c-1.051453,-1.701294 -0.723999,-4.222717 -4,-8c-1.85318,-2.136719 -3,-3 -4,-4c-2,-2 -5.742828,-6.344574 -11,-10c-4.787384,-3.328796 -6.881531,-4.190277 -10,-6c-3.867981,-2.24469 -6.041321,-2.847229 -10,-4c-6.072327,-1.76828 -9.934143,-4.144287 -12,-5c-2.92157,-1.210144 -11.881516,-6.190277 -15,-8c-1.93399,-1.122345 -4.867279,-2.109131 -9,-7c-6.645035,-7.864075 -7.11586,-13.963837 -8,-17c-1.152771,-3.958679 -0.316284,-14.092651 1,-18c2.43132,-7.217255 4.142365,-11.63504 11,-20c6.276169,-7.655701 8.871368,-10.099792 12,-14c5.768921,-7.19162 12.359055,-14.653107 13,-20c0.841614,-7.020813 -2.79393,-11.087433 -5,-16c-0.916016,-2.039825 -1.38269,-2.923889 -1,-2c0.541199,1.306549 2.070709,1.938049 2,10c-0.062027,7.070801 -3.297714,14.391541 -8,22c-2.628662,4.253265 -11.904922,15.080505 -17,21c-7.855423,9.126465 -9.946869,13.010925 -11,18c-1.90416,9.020752 -0.467102,18.219208 3,25c2.654556,5.19165 10.541153,14.822937 19,19c7.660858,3.78302 13.979233,5.095856 23,7c9.978149,2.106262 20.215393,3.07373 35,7c15.281708,4.058289 22.664459,9.458069 25,13c2.964478,4.495728 3.498291,8.937988 4,15c0.494873,5.979553 -0.466248,10.096619 1,16c0.762268,3.069031 1.624786,5.089905 3,10c3.156769,11.270996 8,22 12,30c2,4 4.191284,9.406067 6,12c3.662384,5.252319 11.06601,10.877686 13,12c6.236969,3.619446 11.950134,8.088562 19,12c12.910767,7.163269 20.03067,10.912292 23,12c5.05658,1.852295 12.927673,4.23175 19,6c3.958679,1.152771 6.907776,2.496216 11,3c1.985016,0.244385 3.707092,0.292908 3,1c-0.707092,0.707092 -2.014984,-0.755615 -4,-1c-4.092224,-0.503784 -11.071808,-3.691223 -16,-5c-6.112671,-1.623291 -11.301086,-2.316956 -21,-7c-7.260254,-3.505554 -14.891724,-10.19574 -22,-14c-1.971497,-1.055115 -5.273804,-3.736511 -12,-11c-6.264221,-6.764587 -8,-9 -10,-11c-1,-1 -4,-4 -7,-10c-2,-4 -4.144287,-6.934143 -5,-9c-1.210144,-2.92157 -1.847229,-4.041321 -3,-8c-0.884125,-3.036194 -2.692535,-9.186035 -4,-11c-0.826904,-1.147278 -3.144287,-4.934143 -4,-7c-1.210144,-2.92157 -2.692535,-7.186035 -4,-9c-1.653809,-2.294556 -4,-4 -7,-8c-3,-4 -4.161255,-6.796265 -8,-10c-1.716736,-1.432739 -5.746735,-3.371338 -10,-6c-5.706329,-3.526703 -7.805664,-4.448395 -12,-6c-3.867004,-1.430481 -13.708466,-4.672607 -20,-7c-3.867004,-1.430481 -13.088776,-3.827148 -21,-8c-9.106491,-4.803314 -17.375061,-9.556183 -21,-13c-5.662338,-5.379395 -10.458771,-11.471252 -12,-18c-2.06778,-8.759247 -0.118103,-14.072784 3,-19c5.784195,-9.140198 10.723984,-16.222717 14,-20c4.63298,-5.341858 16,-13 19,-15c3,-2 6.112137,-5.918304 9,-10c2.082474,-2.943359 3.159134,-5.171631 2,-9c-1.04483,-3.450836 -4,-6 -6,-9c-2,-3 -3.923874,-4.61731 -3,-5c1.306564,-0.541199 3.647095,-2.674103 7,-4c5.65654,-2.236877 11.950836,-2.180908 19,-4c25.836884,-6.66745 31.974182,-8.139099 37,-9c6.969574,-1.193848 11,-2 12,-2c1,0 5.937958,0.498291 12,1c3.986359,0.329926 13.054138,1.432678 16,2c5.287994,1.018372 7.565613,3.562256 9,6c3.691956,6.274506 2.913239,17.033081 6,25c1.945557,5.021454 3.560516,12.345734 13,21c2.657654,2.436584 8.006989,4.60788 19,5c14.026764,0.500305 32.374756,6.808044 35,15c4.882843,15.236725 -4.995117,32.851593 -6,43c-0.7883,7.96106 2.572754,17.262085 7,24c2.745667,4.17868 6.171417,9.365997 17,15c10.383362,5.402405 28.921783,10.492371 40,12c10.944489,1.48938 19.965973,1.499512 31,2c4.994873,0.226563 16.958496,-0.499207 26,-1c5.990845,-0.331787 8,1 8,0c0,-1 -1.805664,0.448425 -6,2c-3.867004,1.430481 -14.083923,1.781738 -27,0c-5.051208,-0.696777 -20.857391,-5.467651 -30,-8c-8.88501,-2.460999 -18.171814,-4.07135 -26,-6c-8.295929,-2.043915 -15.127045,-4.678619 -18,-6c-5.297485,-2.436493 -12.718689,-5.961395 -16,-9c-4.27829,-3.961853 -7.640717,-14.051636 -7,-18c1.013092,-6.242889 6.579712,-19.15686 9,-25c1.711426,-4.131714 3.51944,-8.038727 4,-11c0.506531,-3.121429 1,-5 1,-8c0,-4 0.38269,-8.076111 0,-9c-1.082397,-2.613129 -3.087433,-2.793945 -8,-5c-6.119507,-2.748047 -11,-5 -20,-7c-9,-2 -17.024323,-3.507324 -22,-4c-5.074219,-0.502441 -9.017212,-1.933502 -13,-3c-7.032349,-1.883118 -10.212616,-2.671204 -15,-6c-5.257172,-3.655426 -8.569519,-8.132996 -10,-12c-0.775787,-2.097168 -0.513733,-5.823761 0,-8c1.148773,-4.866241 1.530731,-9.304474 0,-13c-1.082397,-2.613129 -4.21167,-3.714111 -7,-6c-2.187347,-1.793182 -5.485321,-3.851135 -10,-6c-3.7229,-1.772003 -5.852722,-1.173096 -7,-2c-1.813995,-1.307465 -2.823761,-1.486267 -5,-2c-0.973236,-0.229767 0,0 1,0c4,0 14.191101,0.279083 23,3c10.290588,3.178619 17.413605,5.625305 21,10c2.285889,2.78833 4.610931,9.037476 4,14c-0.503784,4.092224 -2.51297,8.036804 2,13c6.346741,6.979889 21.050415,9.762665 31,12c12.067963,2.713684 25.311798,4.915344 34,8c8.428802,2.992554 11.082733,4.405334 14,11c1.66803,3.77063 -2.41156,14.404022 -6,19c-4.351624,5.573456 -9.158142,9.262054 -12,15c-3.659851,7.389557 -3,11 -3,13c0,5 1.337494,10.309998 3,13c5.204468,8.421021 11.932678,11.162201 19,14c7.928711,3.183685 20.865906,8.389984 32,12c6.925201,2.245361 13.870026,4.47345 24,7c9.894897,2.467896 17.973267,3.499695 32,4c4.996826,0.178223 11,-1 18,-1c1,0 0.230652,0.303223 -1,1c-3.587952,2.031433 -8.004639,1.049561 -19,0c-10.004395,-0.954956 -26.855347,-5.46344 -39,-9c-7.917358,-2.305542 -13.89151,-4.347595 -23,-7c-7.917358,-2.305542 -11.092712,-1.76355 -19,-5c-9.114899,-3.730743 -13.333832,-4.600098 -17,-8c-7.794373,-7.228271 -10.493469,-11.878571 -11,-15c-0.640717,-3.948364 -0.639221,-11.215118 2,-18c1.621246,-4.167908 2.549011,-7.606415 6,-13c2.410278,-3.767029 2.288574,-5.868286 4,-10c3.630463,-8.764679 5,-14 5,-21c0,-2 -0.934143,-2.144287 -3,-3c-5.84314,-2.420288 -16.015472,-3.502899 -24,-4c-8.046692,-0.500977 -16.337097,-0.641144 -31,-5c-5.161926,-1.534485 -10.132996,-2.569519 -14,-4c-8.388702,-3.10318 -12.21167,-5.714111 -15,-8c-3.281006,-2.689789 -7.206818,-5.812653 -9,-8c-2.285889,-2.78833 -3,-7 -3,-11c0,-4 0.459503,-7.053497 0,-9c-0.513733,-2.176239 -1.292908,-2.292908 -2,-3c-2.121307,-2.121307 -5.946991,-2.24292 -10,-3c-7.925171,-1.480377 -13.118103,-0.375397 -20,-2c-3.077698,-0.726532 -7,-1 -8,-1c-1,0 -0.987091,-0.839813 0,-1c3.121429,-0.506531 6,-2 10,-2c2,0 16.393341,1.412811 22,9c9.226074,12.485168 -2.35202,23.661255 -11,33c-6.264221,6.764587 -9.499023,10.953308 -10,19c-0.186401,2.994202 2.784241,7.654572 11,10c9.806274,2.7995 21.398102,-2.207825 36,7c7.276428,4.58844 0.488525,13.516083 -8,23c-8.540771,9.542297 -13.031464,19.412079 -11,23c2.78714,4.922607 7.480164,9.092773 15,12c8.599274,3.324524 35.46521,2.679047 51,7c9.488647,2.639252 11.15506,12.109802 13,23c0.68869,4.065186 3.726501,10.29364 8,14c7.554535,6.552002 15.156647,9.759705 26,17c10.15155,6.77832 12,10 13,10c1,0 0.147278,-2.173096 -1,-3c-1.813995,-1.307434 -3.655914,-4.389038 -7,-7c-4.595978,-3.58844 -9.091156,-4.795654 -16,-8c-2.028503,-0.940796 -3.796997,-1.256531 -5,-2c-2.690002,-1.662537 -5.21167,-1.714111 -8,-4c-2.187347,-1.793213 -4,-4 -5,-6c-1,-2 -2.986908,-4.757141 -4,-11c-0.320374,-1.974182 0.031464,-5.412079 -2,-9c-1.393555,-2.461304 -2.746735,-3.371338 -7,-6c-1.9021,-1.175568 -3.852722,-2.173096 -5,-3c-5.441986,-3.922363 -10.051636,-3.359283 -14,-4c-3.121429,-0.506531 -8.030426,-1.806152 -15,-3c-5.025818,-0.860901 -7.934143,-1.144287 -10,-2c-5.84314,-2.420288 -11.025208,-2.881348 -16,-4c-4.022644,-0.904572 -4.693451,-1.458801 -6,-2c-0.923889,-0.38269 -2.852722,-1.173096 -4,-2c-1.813995,-1.307465 -4.337494,-4.309998 -6,-7c-0.7435,-1.203003 -2.893738,-5.592865 2,-12c3.433685,-4.495544 9,-10 11,-12c2,-2 4.413605,-3.625305 8,-8c2.285889,-2.78833 4,-4 5,-5c2,-2 4.692535,-4.186005 6,-6c0.826904,-1.147278 -0.103394,-2.906342 -1,-4c-2.285889,-2.78833 -3.693451,-4.458801 -5,-5c-1.847748,-0.765381 -6.963287,-1.1604 -11,-2c-5.955322,-1.238617 -7.878571,-1.493469 -11,-2c-1.974182,-0.320374 -6.878571,-1.493469 -10,-2c-1.974182,-0.320374 -3.906342,-1.103394 -5,-2c-2.78833,-2.285889 -5.824432,-2.0979 -7,-4c-0.525726,-0.850647 -0.098541,-2.004852 0,-3c0.502441,-5.074219 2.714111,-8.21167 5,-11c2.689789,-3.281006 5,-5 7,-7c2,-2 5.288574,-5.868286 7,-10c1.210144,-2.92157 3.679626,-8.025818 4,-10c0.506531,-3.121429 -5.963928,-9.085571 -13,-12c-4.97525,-2.060822 -13.044678,-3.761383 -19,-5c-8.073425,-1.679169 -10.925781,-2.497559 -16,-3c-0.995148,-0.098541 -2,0 -1,0c1,0 4.0979,0.824432 6,2c8.5065,5.257324 13.497559,11.925781 14,17c0.295624,2.985413 -3.238861,6.739075 -12,15c-3.086823,2.910583 -4.054626,7.481873 3,7c7.263184,-0.496124 12.690094,2.747589 3,11c-16.904175,14.396149 -26.82193,18.43042 -26,19c7.022522,4.866608 19.001282,-7.647217 22,-5c6.044098,5.335632 -5.148773,19.133759 -4,24c0.513733,2.176239 4.821655,-0.633667 15,0c3.156158,0.196503 4.802307,6.895477 -2,20c-4.120697,7.938507 -2.238159,8.508392 12,7c3.977753,-0.421417 1.511322,4.723358 0,17c-0.488739,3.970032 2,4 4,5c4,2 8.459778,5.842346 11,14c2.451691,7.873322 2.418854,9.581146 4,8c1.581146,-1.581146 1.974182,-2.320374 0,-2c-6.242889,1.013092 -13.917603,2.613129 -15,0c-1.530731,-3.695526 6.953705,-16.302643 4,-19c-8.156158,-7.448303 -26.119781,7.4776 -31,6c-1.353546,-0.409821 10.552551,-10.114777 11,-24c0.072021,-2.234894 -9.09021,-0.303192 -23,4c-9.063049,2.803772 -13.902618,1.421753 -10,-8c5.519135,-13.324371 7.830536,-15.77475 -3,-13c-18.380035,4.708893 -31.614899,10.627991 -29,7c8.269058,-11.472687 29.222717,-23.723999 33,-27c1.068359,-0.926605 -10.865906,1.389984 -22,5c-6.925201,2.245361 -9.266937,1.963715 -9,1c1.556473,-5.619385 5.205643,-10.771729 13,-18c7.332306,-6.799774 9.878571,-8.280212 5,-6c-13.3759,6.251801 -24.595673,23.075653 -33,14c-2.148605,-2.320221 4.333282,-6.750427 11,-16c4.2164,-5.849945 13.847748,-13.234619 12,-14c-1.306549,-0.541199 -5.038681,1.861603 -16,5c-10.037018,2.873749 -11.923874,3.38269 -11,3c11.759064,-4.870758 19.319107,-18.555695 32,-28c5.135376,-3.824646 6.974182,-5.320374 5,-5c-6.242889,1.013092 -12.980927,1.54071 -16,6c-0.560623,0.828064 1.826965,-0.366638 10,-4c22.568542,-10.03299 28.258209,-8.684937 21,-3c-13.544586,10.608673 -28.932007,23.635101 -26,23c23.618347,-5.115967 32.564331,-13.397827 23,-5c-12.324615,10.821442 -25.796982,22.579437 -23,23c19.021545,2.860229 27.491455,-12.579071 24,-9c-16.903778,17.328064 -32.802292,26.403076 -32,27c8.37619,6.232147 22.352051,-12.462769 37,-15c1.970642,-0.341339 -12.668182,11.171967 -24,21c-4.273499,3.70639 0.262299,3.618195 15,-3c4.079651,-1.832031 3.730652,4.703644 -4,12c-8.291809,7.825989 -10.92157,10.210144 -8,9c20.658569,-8.557068 32.699249,-14.231964 33,-10c1.063324,14.96225 -17.581146,18.418854 -16,20c3.162292,3.162292 15.952637,-11.826141 23,-10c2.738007,0.709473 -16.547211,16.369232 -11,24c2.424408,3.335022 12.832642,-10.028839 34,-11c4.118774,-0.188965 2.09552,3.984863 3,10c0.664978,4.422424 5.614838,10 11,10c5.385162,0 9.299164,-1.285614 10,5c1.113647,9.987976 -1.306549,15.458801 0,16c0.923889,0.38269 5,-1 7,-1c1,0 1.418854,0.418854 3,2c1.581146,1.581116 6.21167,6.714111 9,9c1.093658,0.896606 -0.036285,0.266907 -1,0c-5.619385,-1.556458 -15.699127,-7.486633 -27,-9c-6.938049,-0.929138 -5.054962,-5.294983 -3,-14c0.459503,-1.946503 -9.971191,-1.500366 -23,-1c-3.99704,0.153503 -4.41214,-11.174866 0,-21c1.832031,-4.079651 -2.171814,-7.92865 -10,-6c-8.295929,2.043915 -17.627472,3.515076 -9,-7c11.221985,-13.677246 12.088898,-17.706116 -4,-13c-10.943207,3.200958 -17.234619,6.847748 -18,5c-1.082397,-2.613129 16.270599,-13.691315 30,-26c16.329956,-14.640106 9.825134,-14.41214 0,-10c-12.238983,5.496124 -17.525726,7.850647 -17,7c1.175568,-1.9021 5.683533,-5.364563 16,-14c8.743073,-7.31839 15.82193,-13.43042 15,-14c-7.022522,-4.866608 -24.757111,11.986908 -31,13c-0.987091,0.160187 2.094696,-2.875763 10,-9c10.123749,-7.842834 24.539032,-17.781982 29,-25c1.662506,-2.690002 -6.264008,-2.48938 -14,2c-9.355438,5.429169 -12.38269,7.923889 -12,7c1.082397,-2.613129 6.795441,-7.236237 16,-15c9.789063,-8.256775 14.89444,-11.552795 14,-12c-4.472137,-2.236053 -15,10 -25,15c-4,2 20.857391,0.990356 15,-15c-1.375824,-3.755951 -18.663116,8.663818 -30,14c-9.744812,4.586792 -12.707092,4.707092 -12,4c0.707092,-0.707092 2.938141,-2.078583 8,-6c3.952667,-3.062103 -3,-4 -21,-1c-6,1 -5.384552,-0.705292 7,-7c15.568665,-7.913086 21.957092,-9.710205 21,-10c-6.901703,-2.089661 -13.261108,10.049103 -17,20c-2.110352,5.616608 5.111298,9.64505 12,12c10.191284,3.483978 21.038574,8.116394 26,15c1.307465,1.813995 -10.019257,3.733795 -24,3c-19.078705,-1.001373 -32.294006,-5.467194 -35,-12c-0.38269,-0.923889 -0.082397,-2.613129 1,0c2.296112,5.543274 -7.70282,21.724884 -2,30c2.53772,3.682373 17.225311,-10.328613 32,-3c6.822571,3.384155 -1.852325,23.153412 0,31c0.8284,3.509094 12.464478,-1.121307 16,1c7.071075,4.242645 0.439667,21.436249 6,28c6.398773,7.553497 12.89151,10.347595 22,13c7.917358,2.305542 13.115875,5.963837 14,9c1.152771,3.958679 2.61731,5.923889 3,5c0.541199,-1.306549 -9.641968,-2.800232 -31,-15c-17.582275,-10.04306 -25.865173,-28.621307 -29,-33c-5.366913,-7.496399 -22.256622,-3.031952 -31,-10c-5.955765,-4.74646 13.83493,-16.551331 21,-32c0.841492,-1.814362 -13.958466,-1.500763 -23,-1c-2.995407,0.165894 24.580963,-9.853973 26,-27c0.233276,-2.818787 -20.635681,4.480377 -30,6c-2.961258,0.48056 -2.713226,-6.305084 1,-14c2.534134,-5.251495 2.831757,-7.415192 -5,-4c-6.149002,2.681396 -9.292892,4.707092 -10,4c-0.707108,-0.707092 0.186005,-1.692535 2,-3c3.441803,-2.480713 7,-5 6,-6c-3,-3 -7.079514,8.937469 -22,12c-1.959152,0.40213 -2,1 -2,2c0,1 0.839813,2.012909 1,3c0.506546,3.121429 2.148056,6.228363 1,9c-2.16478,5.226257 -7.887634,8.254974 -19,13c-4.95256,2.114746 -8.07843,2.789856 -11,4c-2.065857,0.855713 -3.892456,1.113647 -6,3c-4.771149,4.270386 -10.404007,7.41156 -15,11c-2.229385,1.740662 -6.137039,7.933411 -9,14c-4.203354,8.90683 -4.499039,12.953308 -5,21c-0.310684,4.990326 0.825439,8.441467 13,13c5.922974,2.217743 12.17572,4.607025 17,7c5.223633,2.591064 9,4 15,8c3,2 6.541199,2.693451 6,4c-0.38269,0.923889 -1,1 -2,1c-1,0 -3,0 -5,0c-7,0 -17.045105,-1.848419 -24,-4c-6.042038,-1.869171 -16.945023,-8.294983 -19,-17c-1.838028,-7.78598 1.49295,-21.234009 4,-26c1.678558,-3.190979 14.310013,-13.337494 17,-15c7.218018,-4.460968 12.507996,-10.178864 21,-16c6.442032,-4.415924 12.199585,-9.742737 20,-16c7.191635,-5.768921 13.44841,-12.805664 15,-17c1.430496,-3.867004 0,-12 0,-11c0,1 -0.632965,3.197998 -4,9c-3.619446,6.236969 -10.277542,15.768829 -23,27c-8.547653,7.545715 -18.10675,9.818726 -25,14c-14.230072,8.631653 -19.210052,13.850769 -22,18c-3.253601,4.838806 -3,16 1,22c4,6 6.974457,7.231537 15,8c14.964844,1.432922 30,2 37,2c2,0 2,1 1,1c-1,0 -2.878555,1.493469 -6,2c-3.948349,0.640717 -14.997314,0.964478 -28,0c-13.997223,-1.038239 -24.277863,-4.041168 -27,-9c-4.436523,-8.081909 -1.57663,-13.324799 2,-19c6.079102,-9.645966 19.726501,-22.29361 24,-26c3.777267,-3.276001 13.873886,-7.41925 42,-24c6.212021,-3.662079 10.44841,-10.805664 12,-15c1.430496,-3.867004 1,-7 1,-8c0,-1 1,-1 2,-1c4,0 14.032562,-2.848328 33,-7c22.039246,-4.824066 39.806244,-5.94223 65,-17c13.519897,-5.934021 14.981964,-8.189117 14,-8c-5.287994,1.018372 -11.453064,3.208099 -11,6c0.358185,2.207184 7.132996,1.430481 11,0c2.097168,-0.775787 4.076111,-1.38269 5,-1c1.306549,0.541199 2.017212,0.933502 6,2c7.032349,1.883118 17.143585,3.382477 27,6c3.056335,0.811646 4.083771,0.628693 -4,-1c-12.89386,-2.597809 -22,-5 -22,-3c0,1 7.10614,1.402191 20,4c16.167542,3.257355 34.953308,6.499023 43,7c2.994202,0.186401 -5.958374,-1.999603 -42,-3c-4.998077,-0.138733 -3.929962,-0.552765 14,2c23.112152,3.290588 41.925781,8.497559 47,9c0.995148,0.098541 0.076111,-0.38269 1,0c1.306549,0.541199 4.992065,1.082672 15,2c11.991333,1.099121 24,0 41,0c7,0 17,-1 21,-1c2,0 3.930969,-0.237732 7,-1c5.903381,-1.466248 14.885071,-3.269257 24,-7c15.814575,-6.4729 19,-8 21,-10c2,-2 1.923889,-1.38269 1,-1c-1.30658,0.541199 -3.057007,2.889801 -7,5c-7.108276,3.80423 -16.72229,9.883423 -25,12c-6.850647,1.751709 -17.022034,2.837036 -25,4c-12.0383,1.754852 -23.982697,3.190979 -45,5c-12.990387,1.118134 -23.965973,0.500519 -35,0c-10.988708,-0.498444 -19.96405,-1.246796 -26,-2c-11.948914,-1.491058 -27.945892,-3.225403 -40,-6c-18.921692,-4.355347 -25.984528,-6.08075 -31,-7c-5.983093,-1.096619 -15.541199,-1.693451 -15,-3c0.38269,-0.923889 1.981628,0.204773 12,1c16.975983,1.347534 50.070526,0.564606 85,3c9.033447,0.629852 9.993866,1.221191 6,1c-9.041534,-0.500763 -29.061096,-0.841003 -59,-3c-18.063873,-1.302643 -29.45871,-1.663971 -37,-5c-3.297333,-1.458649 -1.995148,-1.098541 -1,-1c5.074219,0.502441 20.01474,2.25174 39,3c38.088654,1.50116 71.37616,4.977783 82,8c2.150726,0.611816 0.214508,0.345001 -5,-1c-7.806763,-2.013611 -30.986115,-3.499908 -58,-4c-18.996735,-0.351685 -34.946716,-0.498749 -42,-1c-0.997498,-0.070892 0.026764,-0.229767 1,0c2.176239,0.513733 5.965973,1.499481 17,2c12.986633,0.589081 41.982147,0.499847 63,1c12.996307,0.309265 23.953308,-0.499023 32,-1c9.980682,-0.621368 17.011597,0.372833 23,0c8.046692,-0.500977 19.017029,-0.587585 24,-1c6.062012,-0.501709 10.255615,0.091675 21,-3c5.175171,-1.489166 9.963257,-3.1604 14,-4c5.955322,-1.238617 10.29187,-1.898346 16,-4c5.471863,-2.014648 13.339172,-5.21698 21,-9c8.458862,-4.177063 11.513855,-5.521393 18,-13c3.276001,-3.777283 7,-10 5,-10c-1,0 -1.044617,4.950104 -10,13c-6.397583,5.750732 -15.669067,10.573364 -24,15c-8.697327,4.621307 -28.726929,9.741058 -36,12c-9.739136,3.024872 -17.182007,1.870819 -33,5c-11.184998,2.212677 -20.948364,4.278229 -31,6c-13.939117,2.387665 -28.975037,4.499725 -44,5c-11.993347,0.399323 -19.008667,-0.900879 -31,-2c-10.007935,-0.917328 -20.907776,-2.496216 -25,-3c-4.962524,-0.610931 -10.044861,-1.591095 -21,-3c-6.033081,-0.775879 -12.878571,-4.493469 -16,-5c-3.948364,-0.640717 -7.878571,-1.493469 -11,-2c-3.948364,-0.640717 -7,-1 -8,-1c-3,0 -6.042389,-0.580841 -10,0c-10.329651,1.516083 -30.118744,15.431274 -41,18c-0.973236,0.229767 7.398468,-4.464447 40,-17c17.709625,-6.809509 19.910065,-6.375214 15,-5c-11.270966,3.156769 -47.175751,42.650238 -56,23c-1.832031,-4.079651 29.527222,-13.788849 68,-23c20.790009,-4.977539 21.797058,-4.57196 7,1c-19.29303,7.264954 -47.761841,19.491608 -62,21c-5.966614,0.632111 -8,0 -9,0c-1,0 -1.925781,-0.497559 -7,-1c-2.985397,-0.295624 -5.126465,0.308502 -3,1c5.784607,1.881073 20.666077,2.740448 63,-9c23.465912,-6.507782 36.657349,-17.493713 48,-25c4.86261,-3.217957 5.203003,-3.7435 4,-3c-5.379974,3.325012 -14.077454,9.150665 -47,22c-18.561249,7.244263 -43.976593,11.499756 -60,12c-9.995132,0.312042 -14,-2 -14,0c0,2 4.001297,0.088135 7,0c17.022034,-0.500214 36.538239,-3.120117 64,-12c15.371857,-4.970551 51.913696,-19.156433 58,-32c0.428223,-0.903656 0,-2 -1,-2c-1,0 -1.06601,0.877655 -3,2c-3.118469,1.809723 -6.585785,2.585785 -8,4c-0.707092,0.707092 1.413605,-0.625305 5,-5c4.571747,-5.57666 9.771942,-13.119537 13,-19c2.805908,-5.11145 2.748047,-9.880493 0,-16c-2.206055,-4.912567 -4.222717,-7.723999 -8,-11c-5.341858,-4.632965 -15.347992,-12.343475 -29,-20c-8.228271,-4.614716 -20,-11 -26,-16c-6,-5 -10.161194,-7.746399 -15,-11c-4.149231,-2.789948 -9,-8 -10,-8c-1,0 0.796997,1.2565 2,2c2.690002,1.662506 8,3 13,4c10,2 15.925781,3.497559 21,4c5.970795,0.591232 11,2 11,1c0,-1 -1.071808,-0.691238 -6,-2c-6.112671,-1.623306 -21.851135,-11.485306 -24,-16c-1.772003,-3.7229 0.076111,-9.61731 1,-10c1.306549,-0.541199 1.502441,7.925797 1,13c-0.098541,0.995132 0.292908,1.292892 1,2c0.707092,0.707108 3,1.837723 3,5c0,6.324554 -5.707092,11.292892 -5,12c0.707092,0.707108 3.17923,-1.589905 15,-7c14.232666,-6.513947 35.701324,-27.204224 45,-16c1.42804,1.720673 -14.383301,6.231339 -29,14c-20.595551,10.946381 -28.541199,15.693436 -28,17c0.38269,0.923874 2,0 5,0c10,0 26.030823,-2.359436 56,-1c11.034027,0.500519 9.996582,0.917526 9,1c-6.062042,0.501709 -17.759125,5.111343 -43,10c-26.796722,5.190002 -28.180634,4.221497 -27,5c4.495758,2.964478 17.129272,5.543335 32,10c9.087494,2.72348 14,6 14,5c0,-1 -5.008209,-1.03656 -14,1c-13.012085,2.947144 -26.506531,2.878571 -26,6c0.160187,0.987091 13.031433,1.629059 27,3c16.047424,1.574951 25.878693,1.878693 28,4c0.707092,0.707092 -2.002625,0.973969 -12,2c-19.005157,1.9505 -36.143585,3.382477 -46,6c-3.056335,0.811646 -1.992462,1.787323 1,2c7.053284,0.501251 25.056244,0.294373 42,2c7.035522,0.708221 10,1 10,1c-8,0 -38.116333,0.275391 -59,4c-14.095398,2.513916 -17.006683,4.076416 -6,5c12.992737,1.09024 28.830994,4.565033 38,7c4.928192,1.308746 4.993835,1.728119 -1,2c-11.034027,0.500519 -29.958466,3.499237 -39,4c-6.989288,0.387115 1.03006,0.621307 16,2c17.045105,1.569824 23.973328,2.538849 20,3c-17.347809,2.013428 -42.301971,6.869263 -46,12c-0.584717,0.811249 1.292908,0.292908 2,1c0.707092,0.707092 -0.893494,1.196686 -10,6c-23.733643,12.518524 -41.962601,16.49939 -52,17c-6.991302,0.348694 -13,0 -16,0c-2,0 -12.086487,-0.298492 -23,-2c-9.109497,-1.420258 -17.243988,-3.113434 -26,-6c-9.353683,-3.083588 -16.592865,-8.106262 -23,-13c-2.247772,-1.716827 -2.661835,-4.503906 -1,-6c6.349884,-5.716553 28.947617,-10.1492 43,-15c5.978394,-2.063721 4.963913,-1.621796 3,-2c-5.287994,-1.018372 -27.500366,9.028809 -27,-4c0.038376,-0.999268 3.864838,-1.995941 15,-3c1.991913,-0.179596 -0.168243,-0.584808 -8,-4c-14.347656,-6.256561 -16.990341,-8.689301 -12,-9c16.093353,-1.001923 32.345581,-4.19278 32,-7c-0.712448,-5.787262 -21.175568,-11.0979 -20,-13c0.525726,-0.850647 13.893448,-0.997467 28,-2c5.984909,-0.425323 4.709045,-0.173553 -2,-3c-7.42984,-3.130096 -9,-7 -9,-6c0,17 33.914185,-1.765564 34,-4c0.22377,-5.82666 -12.257477,-6.647125 -11,-6c5.4086,2.783356 24.551651,4.308655 25,-2c0.317032,-4.460876 -20,-6 -20,-5c0,1 6.511688,-0.897034 29,-12c9.23175,-4.557922 1.127304,-6.222504 -14,1c-3.253723,1.553482 2.301758,0.614731 15,-6c24.641968,-12.836426 31.38269,-18.923874 31,-18c-1.082397,2.613129 -8.113281,7.835068 -14,12c-4.081696,2.887863 -5.244354,2.985016 -5,1c1.007538,-8.184433 8.40506,-16.295029 16,-19c5.730194,-2.040833 9.148041,0.228363 8,3c-0.541199,1.306564 -1.244354,1.985016 -1,0c0.503784,-4.092209 3.426544,-7.648376 9,-12c4.595978,-3.58844 7,-3 8,-2c1,1 0.707092,0.707108 0,0c-0.707092,-0.707108 -1.458801,-1.693436 -2,-3c-0.38269,-0.923874 1.707092,-1.292892 1,-2c-0.707092,-0.707108 -1.292908,-0.292892 -2,-1c-0.707092,-0.707108 0,-2 0,-3c0,-1 -2.104767,-4.395584 -6,-12c-3.287567,-6.418091 -7.896606,-9.093674 -7,-8c11.429382,13.94162 13.851624,23.129028 13,22c-6.199982,-8.219498 -18.829498,-17.838684 -16,-21c4.270386,-4.771149 5.539764,18.531265 13,17c0.979584,-0.201065 -4.417419,-3.033539 -7,-13c-0.250854,-0.968033 0.632965,1.198013 4,7c1.809723,3.118484 6.082397,4.386871 5,7c-0.765381,1.847763 -2.026764,0.770248 -3,1c-4.352509,1.027481 -9.868286,5.288589 -14,7c-2.92157,1.210144 4.911896,-3.216919 17,-8c7.944672,-3.143585 9.343811,-2.115128 -18,8c-11.863403,4.388565 -11.199677,1.587524 5,-6c15.81543,-7.407562 19.981964,-9.189102 19,-9c-10.575989,2.036743 -26.968536,13.587921 -29,10c-0.696777,-1.230652 13,-8 25,-14c4,-2 -8.661957,3.130066 -27,8c-4.928192,1.308762 1.054016,-0.840729 16,-6c14.052399,-4.8508 10.945831,-5.236435 -7,-1c-8.025604,1.894592 -7.11319,1.704544 3,-2c8.90799,-3.263062 10.028046,-3.88031 6,-3c-15.903442,3.475647 -32.769409,7.986664 -33,6c-2.013428,-17.347794 35.787323,-11.992447 36,-9c1.002533,14.106552 -40.757111,7.986923 -47,9c-0.987091,0.160187 -2,0 -1,0c1,0 1.797501,-0.609329 7,-2c6.831207,-1.82605 13.851959,0.771637 15,-2c0.541199,-1.306564 -3.024323,-1.492691 -8,-1c-10.148407,1.004898 -26.875931,4.996582 -39,6c-5.979553,0.494888 -4.98053,0.39415 -1,0c10.148407,-1.004898 20.900482,-4.997803 36,-6c8.980255,-0.596039 11.257477,0.352875 10,1c-5.4086,2.783356 -13.824142,0.937103 -21,5c-1.230652,0.696777 -0.032074,0.849792 9,-1c15.947815,-3.266144 29.962616,-5.499374 40,-6c1.997528,-0.099625 4,0 2,0c-1,0 -6.969055,1.161484 -17,3c-17.94928,3.289825 -30,3 -36,3c-7,0 -9.823746,-0.486252 -12,-1c-0.973251,-0.229752 -2.292892,-0.707108 -3,0c-0.707108,0.707108 -1.292892,0.292892 -2,1c-0.707108,0.707108 -0.474274,1.149353 -1,2c-3.526718,5.706345 -16.660522,10.617416 -29,17c-21.464691,11.10257 -29,12 -25,10c16,-8 48.842072,-28.733749 51,-22c9.281616,28.962936 -59.704147,26.794342 -57,31c6.776581,10.539352 39.284073,-34.384827 52,-26c0.834839,0.550491 -23.372818,12.323959 -51,28c-5.071426,2.877594 13.842133,-10.048203 42,-19c4.85936,-1.544861 -9.266342,5.481461 -33,18c-9.106491,4.803299 4.170746,-1.651688 33,-16c39.238083,-19.528778 46.257034,-22.595291 37,-17c-21.446625,12.963104 -37,19 -37,19c22,-9 72.476501,-54.074936 82,-32c3.193665,7.40274 -88.267273,9.659302 -76,37c5.321732,11.860825 50.582031,-49.998886 64,-31c1.631683,2.310333 -26.558197,16.778488 -49,29c-5.891251,3.208298 12,-6 38,-19c14,-7 2.433167,2.783035 -26,18c-13.800385,7.385742 -10.589249,4.891479 15,-8c19.586578,-9.867432 31.126923,-12.766022 11,-2c-24.846695,13.290665 -29.942551,17.130661 -23,14c38.330658,-17.284714 44.977295,-21.035233 31,-12c-20.032684,12.949585 -24.105515,15.83989 -9,6c10.924927,-7.116608 19.819305,-10.824478 19,-9c-4.932922,10.984818 -25.439667,32.563751 -31,26c-1.828232,-2.158142 8.895477,-7.197708 22,-14c13.892365,-7.211243 19.150574,-8.843552 15,-5c-6.764587,6.264221 -19.808044,17.374771 -28,20c-0.952301,0.305176 9.272369,-6.442017 22,-13c7.16684,-3.692749 8.508087,-3.590286 6,-1c-5.983887,6.180038 -13.974487,10.020508 -18,15c-1.405762,1.738907 0.416107,-0.637253 8,-7c9.351318,-7.845566 21.528137,-14.881668 22,-14c3.402618,6.357849 -10.468719,14.539764 -12,22c-0.40213,1.959152 -2.026672,-0.134003 -1,-4c2.069336,-7.792175 7.313965,-11.675308 9,-9c4.298584,6.820724 -2.159943,27.121353 1,27c8.240143,-0.316467 4.17334,-28.22377 10,-28c4.468842,0.171631 3.927124,14.687241 11,18c0.905579,0.424149 1.16806,-5.477829 -3,-14c-4.752319,-9.716766 -5.108124,-8.878403 5,0c6.92691,6.084213 8.152069,5.811661 2,1c-14.651917,-11.459564 -22.838501,-16.455093 -22,-17c8.258179,-5.366776 35.398254,18.912598 37,10c0.729309,-4.05809 -25.580505,-6.980484 -40,-9c-0.990326,-0.138702 15.013245,0.309219 33,1c13.028809,0.500366 10.960968,0.218246 -12,-4c-31.055573,-5.705338 -25.985443,-6.292068 -3,-5c29.023071,1.63147 37.190338,2.27092 27,0c-26.641174,-5.936996 -41,-7 -41,-6c0,5 42,21 42,0c0,-8 -50.191803,3.059982 -50,-5c0.310181,-13.034714 40.987061,-3.499924 70,-4c18.997192,-0.327438 23.159973,0.433472 17,-1c-21.625763,-5.032501 -26.985413,-4.295609 -24,-4c15.222626,1.507339 49.002533,-6.106552 48,8c-0.070892,0.997482 -16.11618,-0.726517 -34,-3c-5.058319,-0.643036 6.190216,1.531052 19,7c17.279388,7.377167 20.98053,10.39415 17,10c-15.222626,-1.507339 -43,-5 -58,-5c-6,0 -7,0 -6,0c3,0 13.10614,-0.402206 26,-3c4.041901,-0.814346 -3.220459,0.564514 -23,12c-4.328644,2.502594 11.121582,-3.695023 29,-11c7.049988,-2.880569 3.106506,1.196701 -6,6c-9.889008,5.216064 -13.92157,7.210144 -11,6c12.395142,-5.134232 32.476318,-19.605377 35,-13c1.286835,3.368103 -13.09317,7.796646 -22,12c-6.066589,2.862961 -3.034973,1.914001 19,-7c9.984314,-4.039032 12.149231,-3.789948 8,-1c-9.677612,6.507217 -20,11 -24,14c0,0 4.771606,-2.648453 21,-8c6.913879,-2.279953 9.495544,-2.43367 5,1c-12.81427,9.787476 -16.209045,8.643784 -13,7c7.604401,-3.895233 12.852722,-5.826904 14,-5c1.813995,1.307449 -5.222717,4.723984 -9,8c-2.136749,1.853195 8.612061,-20.249222 21,-5c2.819824,3.471115 -36.971741,13.393661 -32,23c6.402039,12.369888 28.878693,-14.121323 31,-12c1.414215,1.414215 -9.518433,22.723312 -16,12c-1.865082,-3.085678 17.808044,-11.492188 20,-8c4.15213,6.615128 -13.531281,10.621933 -12,13c4.62561,7.183578 22.162689,-14.23671 25,-10c2.006287,2.995804 -25.246338,7.512711 -19,18c2.288483,3.842239 17.900146,-7.491577 22,-4c4.43924,3.780609 6.074097,14.12709 1,17c-0.870209,0.492706 4.594238,-6.738907 6,-5c8.050995,9.958984 -27,18 -24,22c3,4 16.37265,-13.653992 18,-10c5.47345,12.289886 -21.921112,19.114075 -32,26c-5.954163,4.067902 -5.504395,3.11554 8,-4c8.713318,-4.591095 11.94165,-3.066132 4,4c-14.505798,12.906647 -25.826904,15.852722 -25,17c1.307465,1.813995 23.54184,-38.049774 36,-20c6.426666,9.311157 -20.240234,20.114044 -33,28c-1.9021,1.175568 -1.618774,-0.670837 7,-8c23.467865,-19.956451 28.05069,-18.932098 12,-7c-18.940521,14.080383 -23.256012,15.756073 -8,0c17.707458,-18.287872 25.844025,-29.187531 21,-25c-15.522308,13.418579 -34.594391,36.212128 -39,30c-9.417053,-13.278503 47.420135,-35.162842 37,-43c-18.118835,-13.627472 -24.918365,31.911102 -26,31c-15.914917,-13.405792 31.765991,-39.49295 27,-42c-3.190979,-1.678558 -8.871368,14.05246 -22,27c-5.560883,5.484192 -8.78595,0.64856 -4,-9c5.182129,-10.447266 11.752228,-21.716843 14,-20c6.407135,4.893738 -15.739075,21.238861 -24,30c-2.910583,3.086823 -3.191498,-0.112976 1,-7c10.527039,-17.296875 19.093781,-26.950287 18,-25c-4.614716,8.228271 -12.439667,19.436249 -18,26c-0.914124,1.079071 0.906799,-5.040314 7,-19c3.939911,-9.026459 8,-19 6,-19c-6,0 -1.845673,24.775818 -5,25c-2.230438,0.158508 -0.500519,-8.965988 0,-20c0.453156,-9.989731 -1.848877,-6.953415 -5,3c-2.863342,9.044403 -9.853394,14.980316 -11,7c-3.070068,-21.367615 7.215088,-26.28653 5,-19c-4.734772,15.575043 -4,21 -6,15c-3,-9 -8.558197,-25.480713 -12,-23c-5.441986,3.922363 10.91452,18.595444 10,19c-13.595245,6.014114 -23.264008,-17.510635 -31,-22c-3.118469,-1.809723 3.933167,0.305939 17,3c10.950043,2.257629 9.420135,1.155624 -2,-4c-21.335938,-9.632111 -10.151489,-10.307251 12,5c13.392334,9.254456 12.088776,14.340851 15,9c7.11496,-13.052856 18.603485,-8.677155 9,7c-9.631836,15.72348 -7.681732,2.557266 15,0c7.234283,-0.815628 0,18 -10,29c0,0 12.549652,-18.507248 28,-16c4.187866,0.679596 -37.907806,20.283234 -31,32c8.406769,14.259247 36.355286,-16.588013 36,-13c-1.532898,15.480652 -36.881897,35.927216 -40,31c-3.85614,-6.093445 27.687347,-23.833191 31,-18c14.657471,25.810059 -52.066101,30.444763 -72,34c-0.984467,0.175568 -2.003876,-0.124268 -4,0c-8.046692,0.500977 -29.435303,11.684601 -32,3c-0.633301,-2.144501 8.296021,-5.338867 34,-18c20.495758,-10.095703 19.805206,-8.315094 -3,6c-17.149719,10.765076 -17.636383,9.128357 4,-6c24.325195,-17.008392 28.198822,-15.735535 3,3c-10.9151,8.115448 1.372467,-2.922546 26,-19c4.882599,-3.1875 0.938385,3.944305 -9,15c-8.05014,8.95517 -9.389343,9.840729 -8,7c4.752319,-9.716766 31.456421,-30.40213 27,-35c-3.479889,-3.590332 -15.566345,13.639191 -33,25c-9.770416,6.367004 -13.391205,6.698547 -11,4c12.22879,-13.800598 48.206177,-20.065247 44,-33c-0.309235,-0.950989 -28.108215,17.817688 -40,25c-8.075378,4.877319 -9.10202,3.130035 -1,-6c16.92218,-19.069336 40.921417,-26.938141 37,-32c-3.062103,-3.952652 -18.863525,16.161072 -33,28c-10.89624,9.125336 -12.408569,9.658081 -9,6c13.531647,-14.522217 45.168213,-27.522156 42,-34c-1.389343,-2.840729 -19.934998,17.285187 -39,32c-2.854279,2.203003 10.677673,-17.329407 26,-32c11.758209,-11.258087 1.316772,-0.652222 -25,23c-7.906219,7.105743 -2.794922,-5.703857 15,-25c14.381104,-15.594345 8.557037,-9.501144 -13,10c-19.409119,17.558075 -12.254547,6.754578 8,-14c16.791473,-17.206009 12.098572,-12.87886 -10,5c-9.955902,8.05481 -9.643921,7.304718 4,-9c12.327728,-14.731842 8.997925,-16.064438 -7,0c-7.501038,7.532227 -2.418243,-4.274948 13,-20c6.454681,-6.583099 -6.483734,11.388794 -18,21c-1.716736,1.432755 3.23468,-11.212036 14,-25c0.870331,-1.114685 -13.118774,26.474594 -22,24c-5.859558,-1.63266 -2.287476,-21.127426 4,-31c0.759674,-1.192841 -1.738525,5.096161 -7,19c-1.905945,5.036606 -5.474884,2.970596 -4,-17c0.375549,-5.085175 2.795685,-1.908859 6,5c0.940826,2.028503 -0.690369,-5.353943 -4,-15c-0.725677,-2.115036 5,3 16,10c0,0 -12.712677,-8.737106 -35,-17c-2.965057,-1.099274 8.894043,4.110764 22,3c3.15097,-0.267059 -6.97168,-7.091507 -23,-12c-9.982697,-3.057098 17.663696,9.716324 20,2c0.64798,-2.140121 -15.875916,-4.996582 -28,-6c-0.996582,-0.082474 5.037048,-0.551208 24,1c18.050476,1.476563 30.793243,0.938828 30,4c-4.083405,15.758362 -32,-6 -42,-6c-2,0 -0.008484,0.117142 13,1c16.990295,1.153091 35.070953,3.642929 46,6c4.030426,0.869247 -0.166077,0.82103 -12,-2c-16.306152,-3.887131 -16.976654,-5.210907 -7,-4c21.058655,2.555969 41.319336,11.900238 49,17c1.862823,1.236877 -0.168243,1.415192 -8,-2c-14.347656,-6.256577 -19.550507,-12.576004 -10,-9c15.100677,5.654144 29.872894,15.925903 27,21c-0.492706,0.870193 -6.337494,-4.899933 -21,-15c-4.801941,-3.307755 0.949799,-3.73259 13,4c7.759369,4.979172 11,10 12,11l-1,0l-7,0" id="svg_3" fill-opacity="null" stroke-width="2px" stroke="url(#svg_1)" fill="none"/>
  <path d="m33.5,595.5c1,0 0.84235,-1.459778 9,-4c15.746647,-4.903381 40.011269,-7.932983 64,-12c29.013855,-4.919006 52.767319,-12.671448 75,-20c26.744736,-8.815857 45.206833,-14.426025 57,-19c9.182404,-3.561401 16.926163,-7.17041 26,-11c9.922791,-4.187866 17.882294,-8.205811 30,-15c12.878632,-7.220825 20.262085,-10.572754 27,-15c4.17868,-2.745667 10,-9 17,-14c7,-5 20.020142,-12.9534 27,-16c18.052917,-7.879822 41.83432,-15.621246 67,-22c21.869446,-5.543274 50.969818,-11.117462 78,-18c7.991211,-2.03476 12.433167,-2.965881 23,-8c10.528198,-5.015686 16.677368,-14.493652 44,-32c51.409912,-32.939697 110.835815,-65.03479 198,-88c44.197327,-11.644684 99.013123,-13.918854 124,-18c18.009644,-2.941528 39,-6 64,-12l9,-2l11,-2l2,-1" id="svg_5" fill-opacity="null" stroke-width="3px" stroke="url(#svg_1)" fill="none"/>
  <path d="m188.5,735.5c0,-1 1.029221,-0.718567 12,-2c7.023315,-0.820374 15.117462,-1.114868 41,-5c27.154846,-4.076111 55.387268,-8.601379 83,-17c25.420807,-7.731934 36.913147,-13.268555 52,-18c16.908051,-5.302612 27.178009,-8.628479 40,-15c15.223969,-7.565125 26.110992,-14.783936 36,-20c9.106506,-4.803284 19.198853,-11.624817 27,-16c8.228271,-4.614685 19.55954,-13.537903 28,-20c8.588562,-6.5755 16.235413,-11.735779 23,-18c4.150574,-3.843567 7.950745,-7.08374 13,-10c8.915466,-5.149231 18.262329,-8.381775 33,-15c8.159302,-3.664063 22.965759,-9.104858 32,-12c12.952637,-4.150879 23.938965,-9.079224 33,-16c7.947083,-6.069946 11.430176,-13.665161 23,-23c17.086548,-13.785828 53.96521,-28.08609 91,-43c14.986023,-6.034882 72.381714,-26.685669 102,-36c22.331177,-7.022675 55.832397,-19.650513 109,-33c20.937134,-5.256958 39,-11 38,-11l-1,0" id="svg_7" fill-opacity="null" stroke-opacity="null" stroke-width="3px" stroke="url(#svg_1)" fill="none"/>
  <path d="m125.5,665.5c1,0 2.292892,-0.707092 3,0c0.707108,0.707092 11.044617,-0.831482 34,-7c47.09407,-12.654968 78,-25 109,-38l16,-6l-1,0l-1,0" id="svg_8" fill-opacity="null" stroke-opacity="null" stroke-width="3px" stroke="url(#svg_1)" fill="none"/>
  <path d="m373.5,574.5c-1,1 -2,1 -2,2c0,2 18.595856,-0.07666 50,-8c34.959961,-8.820496 61.066833,-19.826721 82,-28c20.06543,-7.834473 24,-9 23,-9l-3,-1" id="svg_9" fill-opacity="null" stroke-opacity="null" stroke-width="3px" stroke="url(#svg_1)" fill="none"/>
  <path d="m548.5,495.5c1,0 4.788818,1.667511 7,2c6.015137,0.90448 13,-2 19,-3c6,-1 17.281067,-2.122467 31,-7c14.351501,-5.102417 28,-13 40,-19l4,-2l5,-3" id="svg_10" fill-opacity="null" stroke-opacity="null" stroke-width="3px" stroke="url(#svg_1)" fill="none"/>
  <path d="m728.5,421.5c0,1 -1,1 -1,2c0,1 2.096863,-0.60025 7,-2c8.215759,-2.345428 14.034424,-4.867004 22,-7c7.032349,-1.883118 15,-5 23,-8c8,-3 14.132996,-4.569519 18,-6c4.194336,-1.551605 9.087463,-3.793945 14,-6c4.079651,-1.832031 8.94342,-4.147736 14,-6c2.96936,-1.087677 4.292908,-1.292908 5,-2c0.707092,-0.707092 1.292908,-0.292908 2,-1c0.707092,-0.707092 1.873535,-1.308502 4,-2c5.784607,-1.881073 16.132263,-3.324646 28,-6c7.101868,-1.600983 11.541199,-2.693451 11,-4c-0.38269,-0.923889 -2,0 -3,0l-4,1" id="svg_11" fill-opacity="null" stroke-opacity="null" stroke-width="3px" stroke="url(#svg_1)" fill="none"/>
  <path d="m919.5,357.5c1,0 2,0 3,0c2,0 5.977356,-2.095428 10,-3c4.974792,-1.118652 12.927673,-3.23172 19,-5c7.917358,-2.305542 12.924866,-4.284729 20,-6c4.955444,-1.201385 11.071777,-3.691254 16,-5c6.112671,-1.623322 10,-4 14,-6c2,-1 4.152222,-1.234619 6,-2c1.30658,-0.541199 2.292908,-0.292908 3,-1c0.707092,-0.707092 1,-1 0,-1l-1,0l-2,1" id="svg_12" fill-opacity="null" stroke-opacity="null" stroke-width="3px" stroke="url(#svg_1)" fill="none"/>
 </g>
</svg>