<?xml version="1.0"?>
<svg width="1024" height="768" xmlns="http://www.w3.org/2000/svg">
 <!-- Created with Method Draw - http://github.com/duopixel/Method-Draw/ -->
 <defs>
  <linearGradient y2="0" x2="1" y1="0" x1="0" spreadMethod="pad" id="svg_1">
   <stop offset="0" stop-color="#f06cd7"/>
   <stop offset="1" stop-opacity="0.996094" stop-color="#28d4b3"/>
  </linearGradient>
 </defs>
 <g>
  <title>Layer 1</title>
  <path d="m387.5,247.5c0,1 0,0 1,-1c1,-1 2.032623,-1.951889 5,-4c7.079712,-4.88649 17.179077,-13.743622 23,-18c10.337433,-7.558929 18.831268,-14.220535 24,-18c2.910461,-2.128189 1.923889,-1.38269 1,-1c-2.613129,1.082397 -5.658142,5.36702 -11,10c-3.777283,3.276016 -6.692535,6.186005 -8,8c-0.826904,1.147263 -1.38269,-0.076126 -1,-1c0.541199,-1.306564 4,-4 10,-10c5,-5 10.741821,-9.327179 17,-14c2.889038,-2.157181 3.292908,-2.707108 4,-2c0.707092,0.707108 2,0 3,0c4,0 15.971191,-0.499634 29,-1c14.988953,-0.575653 30.958496,-0.500763 40,0c3.993896,0.221207 5,0 4,0c-3,0 -12.009949,0.401001 -30,1c-15.024963,0.500275 -30,0 -35,0c-2,0 -0.995026,-0.199249 3,0c10.037384,0.500626 24.041168,1.574768 42,0c25.08313,-2.199478 43,-4 60,-4c5,0 7,0 6,0c-1,0 -2,0 -5,0c-3,0 -8,0 -9,0c-1,0 0.018066,0.810898 1,1c5.288025,1.018372 14.926147,5.170425 24,9c9.922791,4.187866 21.235291,9.369553 30,13c8.263428,3.422821 12,7 12,6c0,-1 -6.830994,-2.565033 -16,-5c-9.856384,-2.617508 -21.087463,-3.79393 -26,-6c-2.039856,-0.916016 -0.987061,-0.160187 0,0c3.12146,0.506546 8.881348,3.293503 16,6c8.867554,3.371429 21.169617,6.532394 30,10c11.246948,4.416565 17.619995,6.674988 23,10c2.406006,1.487 3,2 2,2c-1,0 -1.61731,1.076126 -2,2c-0.541199,1.306564 -2.789856,3.07843 -4,6c-0.855713,2.065857 -2,4 -2,6c0,1 1,0 2,-1c1,-1 5,-3 5,-2c0,1 -3.035522,5.504242 -6,10c-3.892578,5.903229 -10.733276,14.232727 -16,20c-4.768311,5.221436 -7,8 -6,8c1,0 0.726501,-2.29361 5,-6c3.777283,-3.276001 5.69342,-6.541199 7,-6c0.923889,0.38269 -0.303223,1.769348 -1,3c-2.031433,3.587921 -2.048706,9.289124 -4,14c-1.379761,3.331085 -2.458801,4.693451 -3,6c-0.38269,0.923889 -1.707092,1.707092 -1,1c0.707092,-0.707092 1,-2 3,-5c2,-3 4.288574,-6.868286 6,-11c2.420288,-5.84314 4.981628,-10.712006 6,-16c0.378235,-1.963898 1,-3 1,-4c0,-2 0,-6 0,-9c0,-2 -0.160156,-3.012909 0,-4c0.506531,-3.121445 1.31073,-5.080246 2,-8c0.513733,-2.176254 1,-3 1,-2c0,1 0.292908,1.292892 1,2c1.414185,1.414215 0,5 0,9c0,5 -0.806152,14.030426 -2,21c-1.721802,10.051636 -2,16 -2,21c0,4 1,6 1,8c0,1 0,2 0,3c0,1 -0.234619,2.152252 -1,4c-0.541199,1.306549 -0.292908,2.292908 -1,3c-0.707092,0.707092 -1.474243,0.149353 -2,1c-1.175598,1.9021 -2.881531,1.190277 -6,3c-3.867981,2.24469 -12.232727,7.733246 -18,13c-6.265747,5.721954 -9,9 -8,9c1,0 1.186035,-0.692535 3,-2c3.441833,-2.480713 7.21167,-5.714111 10,-8c1.093689,-0.896606 1,0 0,1c-3,3 -6.683716,7.343536 -11,11c-6.563721,5.560333 -10.917603,7.386871 -12,10c-0.38269,0.923889 0.128601,0.223907 2,-1c6.536438,-4.274933 10.93811,-10.078583 16,-14c3.952637,-3.062103 3.068359,-1.926605 2,-1c-3.777283,3.276001 -12.275757,9.634888 -19,15c-9.412659,7.510132 -14,12 -16,14c-1,1 -2.38269,0.923889 -2,0c0.541199,-1.306549 3,-2 2,-2c-1,0 -0.38269,2.076111 0,3c0.541199,1.306549 1.934143,1.144287 4,2c5.84314,2.420288 11.907776,4.496216 16,5c1.984985,0.244354 0.30658,-0.458801 -1,-1c-0.923889,-0.38269 -2.887329,-0.376678 -9,-2c-4.928223,-1.308746 -9.541199,-0.693451 -9,-2c0.38269,-0.923889 1.053528,0.540497 3,1c2.17627,0.513733 5.038757,2.51944 8,3c3.12146,0.506531 4,2 3,2c-1,0 -2.038757,-0.48056 -5,0c-3.12146,0.506531 -8.641174,3.550385 -13,6c-4.69458,2.638336 -7.923889,3.61731 -7,4c1.30658,0.541199 2.012939,-0.839813 3,-1c3.12146,-0.506531 7.918274,-4.112152 12,-7c2.943359,-2.082458 4,-3 3,-2c-3,3 -6.746765,6.371338 -11,9c-5.70636,3.526703 -7.707092,3.707092 -7,3c0.707092,-0.707092 2.170471,-1.838684 5,-5c4.270386,-4.771149 9,-11 12,-14c2,-2 2.923889,-2.38269 2,-2c-2.613098,1.082397 -4.93811,4.078583 -10,8c-3.952637,3.062103 -9.21167,6.714111 -12,9c-1.093689,0.896606 -0.923889,0.38269 0,0c5.226257,-2.164795 10.584717,-10.545349 17,-15c6.622314,-4.598389 8.973267,-4.229767 8,-4c-2.17627,0.513733 -7.138794,4.811157 -14,10c-5.107117,3.862305 -9.881531,9.190277 -13,11c-1.934021,1.122345 -3,1 -4,1c-1,0 -5.958496,-1.499237 -15,-2c-6.989319,-0.387115 -14,0 -19,0c-2,0 -2,-1 0,-1c4,0 13,0 22,0c12,0 18,0 21,0c1,0 -0.009155,-0.331787 -6,0c-9.041504,0.500763 -20.081848,1.015137 -38,3c-12.091553,1.339417 -23.304504,1.469269 -27,3c-1.306549,0.541199 -0.176239,0.513733 2,0c2.919739,-0.68927 9.069031,-0.414642 20,-2c10.092468,-1.463715 18,-4 26,-4c3,0 4.020996,0.065399 1,1c-6.954895,2.151581 -15.952576,3.425049 -32,5c-13.968567,1.370941 -27.975037,2.499725 -43,3c-7.995575,0.266235 -15,-1 -15,0c0,1 2,0 4,0c6,0 18.990845,-1.106476 30,-2c13.989685,-1.135406 21.380615,-2.913422 26,-1c1.30658,0.541199 0,1 -4,1c-8,0 -25.068878,0.571594 -44,-2c-18.082214,-2.456268 -37.04184,-5.708557 -45,-7c-5.033173,-0.816772 -6,-1 -5,-1c2,0 3.010071,0.716431 7,1c7.053284,0.501251 18.017395,2.440765 27,3c8.046692,0.500977 13,2 15,2c1,0 -0.002502,0.070892 -1,0c-7.053284,-0.501251 -17.18161,-1.155762 -33,-5c-10.14502,-2.465485 -16.925781,-4.497559 -22,-5c-0.995148,-0.098541 -2,0 -1,0c1,0 4.03067,0.912323 7,2c5.05658,1.852264 13,4 19,5c6,1 10,4 11,3c1,-1 -4.919312,-2.22467 -13,-5c-15.854065,-5.445068 -28.18924,-8.376831 -39,-12c-5.106049,-1.711243 -8,-2 -7,-2c1,0 3.063324,0.77417 7,2c8.157654,2.540222 13.876038,5.34314 19,7c3.923096,1.268555 7,1 6,1c-2,0 -3.809021,-1.492065 -11,-4c-10.765778,-3.7547 -17.132996,-3.569519 -21,-5c-2.097168,-0.775787 -3,-1 -2,-1c1,0 2.868286,1.288574 7,3c2.92157,1.210144 7.080261,2.31073 10,3c2.176239,0.513733 0.948669,0.316223 0,0c-4.743408,-1.581146 -14.271027,-8.540588 -23,-14c-10.349121,-6.472687 -13.705475,-10.346191 -16,-12c-1.813995,-1.307465 -1.068359,-0.926605 0,0c3.777283,3.276001 7.902924,6.158783 16,11c6.919739,4.137299 13,8 19,11c2,1 3,2 2,1c-1,-1 -2.104462,-2.932922 -4,-6c-4.238586,-6.858154 -8.567566,-15.303802 -15,-24c-8.451965,-11.426453 -11.718994,-16.310211 -15,-19c-2.78833,-2.285889 -3.541199,-3.306549 -3,-2c0.38269,0.923889 0.714111,2.21167 3,5c4.482971,5.468353 10.221924,9.685638 16,14c6.258179,4.672821 12.29361,10.726501 16,15c3.276001,3.777283 5.693451,7.541199 7,7c0.923889,-0.38269 -0.958466,-1.034851 -6,-7c-5.951233,-7.041504 -13.584137,-14.466797 -27,-26c-9.71109,-8.348328 -17.630341,-14.562866 -25,-19c-1.915649,-1.153381 -3,-2 -2,-1c1,1 3.518707,3.541229 7,8c3.58844,4.595978 6,9 12,15c5,5 9.91626,10.096863 18,17c5.939331,5.071899 8.692535,9.813995 10,8c0.826904,-1.147278 -1.655914,-1.389038 -5,-4c-4.595978,-3.58844 -11.452362,-8.454285 -20,-16c-5.301025,-4.679657 -9.558197,-9.519287 -13,-12c-1.813995,-1.307465 -3.306549,-0.458801 -2,-1c0.923889,-0.38269 -0.087677,-2.03067 1,-5c1.852264,-5.05658 6.946869,-11.5802 11,-22c2.639221,-6.784882 1.270386,-13.228851 -3,-18c-0.943176,-1.053772 -1,-2 -1,0c0,3 -0.889801,9.057037 -3,13c-3.80423,7.108276 -10.431274,14.118744 -13,25c-1.37851,5.839508 0.693451,10.458801 2,11c0.923889,0.38269 2,-2 4,-8c2,-6 5.812073,-13.825714 8,-26c1.601746,-8.912598 2,-17 2,-25c0,-3 -0.224213,-4.097168 -1,-2c-1.430481,3.867004 -2.376678,6.887329 -4,13c-1.308746,4.928192 -3.995117,10.851593 -5,21c-0.689758,6.965942 0.496216,11.907776 1,16c0.122192,0.992493 -0.160187,-0.012909 0,-1c0.506531,-3.121429 3.196228,-7.936951 6,-17c2.151581,-6.954895 4.49939,-13.962616 5,-24c0.249054,-4.993805 -1.486267,-8.823761 -2,-11c-0.229767,-0.973267 0.796997,-1.2565 2,-2c2.690002,-1.662506 9.133026,-4.793213 17,-10c10.179016,-6.737015 22.592865,-15.106262 29,-20c3.371643,-2.575256 4.923889,-4.38269 4,-4c-2.613129,1.082397 -6.222717,4.723984 -10,8c-5.341858,4.63298 -12.457703,10.459244 -22,19c-6.322632,5.659012 -10.693451,11.541199 -12,11c-0.923889,-0.38269 4.131744,-6.871078 10,-13c11.258087,-11.758209 21.095825,-20.876663 34,-31c5.037872,-3.952209 10.068359,-7.92659 9,-7c-3.777283,3.276016 -7.589752,7.44043 -14,13c-7.554535,6.552017 -14.801117,13.234039 -23,20c-8.794006,7.25708 -17,14 -19,16c-1,1 1.8703,-1.133148 7,-6c9.759949,-9.259781 20.074738,-16.909409 31,-26c13.090454,-10.892197 20.642639,-17.508698 29,-23c6.737915,-4.427231 9,-5 8,-4c-1,1 -2.186005,1.692551 -4,3c-2.294525,1.653809 -3,2 -4,2l0,1l-3,1l-1,1" id="svg_16" fill-opacity="null" stroke-opacity="null" stroke-width="2px" stroke="url(#svg_1)" fill="none"/>
  <path d="m444.5,365.5c1,1 2.292908,1.707092 3,1c0.707092,-0.707092 -1.079712,-0.847961 -5,-3c-15.334351,-8.417725 -26.436249,-16.439667 -33,-22c-1.079071,-0.914124 3.385864,1.328278 9,5c6.536438,4.274933 17,13 22,18c2,2 2,4 3,4c1,0 -0.300018,-1.547394 -2,-3c-6.539917,-5.588318 -16.235413,-17.735779 -23,-24c-2.075287,-1.921783 -2.541199,-3.306549 -2,-2c0.38269,0.923889 7.454285,9.452362 15,18c4.679657,5.301025 11.571106,12.679474 16,15c2.801086,1.467621 3.693451,3.541199 5,3c0.923889,-0.38269 -1.822845,-2.185364 -6,-6c-5.767273,-5.266754 -17.121613,-13.891876 -26,-24c-6.084229,-6.92691 -12.228851,-12.729614 -17,-17c-6.322632,-5.659027 -14.082397,-10.386871 -13,-13c0.38269,-0.923889 1.173096,-0.852722 2,-2c1.307465,-1.813995 4.73764,-7.237366 12,-15c6.763184,-7.229065 14,-17 16,-21c2,-4 0.943176,-5.053772 0,-4c-4.270386,4.771149 -7,9 -11,15c-4,6 -9.380554,11.763031 -13,18c-1.122345,1.93399 -2,3 -2,3c2,-4 5.128082,-8.915588 13,-21c7.116608,-10.924927 19.642578,-25.467499 27,-35c4.405975,-5.708527 6.316223,-9.948685 6,-9c-1.581146,4.743423 -6.562866,9.630341 -11,17c-3.460144,5.746948 -6.428253,11.42334 -11,17c-1.793182,2.187347 -2.244354,2.985016 -2,1c0.503784,-4.092224 4,-9 8,-17c3,-6 5.917603,-11.386871 7,-14c0.38269,-0.923874 0.292908,0.707108 1,0c0.707092,-0.707108 1,-1 7,-7c4,-4 14.912781,-13.132965 24,-19c7.925629,-5.117065 13.404022,-7.41156 18,-11c1.114685,-0.870331 1.112183,0.155716 -3,3c-10.723267,7.416992 -21.452362,13.454285 -30,21c-6.361237,5.615585 -7.896606,8.093674 -7,7c2.285889,-2.78833 7.375122,-9.747009 18,-18c8.542358,-6.635361 18.054962,-11.909348 28,-18c8.045105,-4.927078 10.693451,-7.458801 12,-8c0.923889,-0.38269 1.61731,-0.076126 2,-1c0.541199,-1.306564 2.934143,-2.144287 5,-3c2.92157,-1.210144 7.513733,-1.823746 7,-4c-0.229736,-0.973251 -1.458801,0.693436 -2,2c-0.38269,0.923874 -2.078583,2.938126 -6,8c-3.062103,3.952652 -6.112152,8.918304 -9,13c-2.082458,2.943359 -3,5 -2,5c1,0 1.112152,-4.918304 4,-9c2.082458,-2.943359 4.424164,-5.905594 4,-5c-3.312775,7.072876 -12.380951,10.675308 -20,20c-6.327271,7.743744 -11.793945,17.087433 -14,22c-1.832031,4.079666 -3.38269,6.923874 -3,6c0.541199,-1.306564 2.723999,-4.222733 6,-8c2.779785,-3.205124 5.693451,-7.541199 7,-7c0.923889,0.38269 -3.539856,5.253052 -7,11c-4.437134,7.369659 -9.565308,12.659424 -13,19c-3.627441,6.696411 -4.496216,10.907776 -5,15c-0.244354,1.985016 0,1 0,0c0,-1 0,0 0,1c0,3 -1.499481,6.965973 -2,18c-0.271881,5.993835 -0.244812,20.030579 1,29c0.836182,6.025024 3.585785,10.414215 5,9c0.707092,-0.707092 -0.75531,-4.132019 -3,-8c-1.809723,-3.118469 -1,-5 -2,-5c-1,0 -0.210144,3.07843 1,6c2.567108,6.197571 5.41156,10.404022 9,15c4.351624,5.573456 6.434631,8.15097 9,10c0.811249,0.584717 0.703003,-0.613831 -2,-3c-1.676331,-1.479828 -2.38269,-1.923889 -2,-1c0.541199,1.306549 3.21167,3.714111 6,6c5.468353,4.482971 9.517029,8.531647 14,14c2.285889,2.78833 3,5 4,5c1,0 -1.917603,-1.386871 -3,-4c-0.38269,-0.923889 -0.38269,-1.923889 0,-1c0.541199,1.306549 2.793945,4.087433 5,9c0.916016,2.039825 2,4 2,3c0,-1 0,-2 1,-6c1,-4 3.288574,-8.868286 5,-13c1.210144,-2.92157 2.973236,-5.770233 2,-6c-2.176239,-0.513733 -1.048676,5.289124 -3,10c-1.379791,3.331085 -3,7 -2,7c1,0 0.23172,-2.927673 2,-9c2.305542,-7.917358 7.753387,-21.774628 11,-34c1.308777,-4.928192 2.189087,-6.981964 2,-6c-1.018372,5.287994 -4.190887,11.954681 -6,20c-1.118652,4.974792 -1,9 -1,7c0,-2 1.196228,-6.936951 4,-16c4.303162,-13.90979 7.992432,-22.815582 9,-31c0.366577,-2.977509 0,-4 0,-3c0,1 -1.497559,4.925781 -2,10c-0.394165,3.98053 0,6 0,5c0,-2 0.376709,-6.887329 2,-13c2.617493,-9.856415 -0.092224,-19.503784 4,-19c0.992493,0.122192 0,2 0,5c0,4 -1.486267,8.823761 -2,11c-0.229736,0.973236 -2,0 -2,-3c0,-3 0,-8 0,-11c0,-1 0,0 0,1c0,1 0,3 0,4c0,1 0,2 0,1c0,-1 0,-3 0,-6c0,-3 0.320374,-5.025818 0,-7c-0.506531,-3.121429 -0.69342,-5.541199 -2,-5c-0.923889,0.38269 0.496216,2.907776 1,7c0.733093,5.955048 -1,9 0,9c1,0 0,-4 0,-8c0,-11 -1.918823,-22.012756 -4,-35c-0.962463,-6.006134 -0.769348,-11.696777 -2,-11c-3.587921,2.031448 0.840881,11.171631 2,15c1.044861,3.450836 2,4 2,3c0,-3 0,-9 0,-20c0,-9 1.530762,-15.304489 0,-19c-0.541199,-1.306564 -0.38269,0.076126 0,1c0.541199,1.306564 2,3 2,2c0,-1 -0.465515,-2.838089 -2,-8c-1.452942,-4.887634 -4,-11 -6,-14c-2,-3 -2.458801,-3.693436 -3,-5c-0.38269,-0.923874 0.026764,-0.229752 1,0c2.176239,0.513748 7.389954,3.566116 13,9c8.649414,8.377792 14.010071,17.539001 20,32c3.630432,8.764694 4.796997,19.7435 6,19c2.690002,-1.662506 -5.475525,-9.593094 -7,-18c-0.356873,-1.967911 0,2 4,12c4,10 6.903625,19.017975 9,30c0.956116,5.008575 0.61731,6.923889 1,6c0.541199,-1.306549 3,-3 2,-3c-1,0 0.783447,4.137482 -1,12c-2.098572,9.251801 -7.605225,19.182709 -11,26c-3.593811,7.21698 -4.943359,9.082458 -2,7c4.081726,-2.887848 7.386902,-9.082397 10,-8c0.923889,0.38269 -1,3 -5,9c-6,9 -12.572754,18.262085 -17,25c-2.745667,4.17868 -2.826904,5.147278 -2,4c1.307434,-1.813995 5.549133,-8.95517 9,-10c0.957092,-0.289795 0.096191,2.065277 -4,8c-4.886475,7.079712 -12.341003,13.677368 -18,20c-4.270386,4.771149 -5.693451,8.541199 -7,8c-0.923889,-0.38269 0.906342,-1.103394 2,-2c2.78833,-2.285889 8,-5 11,-7c3,-2 3.707092,-2.707092 3,-2c-0.707092,0.707092 -3.824402,2.0979 -5,4c-0.525757,0.850647 -0.316223,-0.051331 0,-1c1.581116,-4.743408 8.22937,-11.83136 17,-24c9.245056,-12.826874 14.443542,-19.380615 16,-25c0.266907,-0.963715 -2.549011,0.606415 -6,6c-3.615417,5.650543 -6.955139,11.549164 -8,15c-0.289795,0.957092 0,0 1,-3c2,-6 5.228394,-12.889038 10,-23c4.203369,-8.90683 6,-13 6,-15c0,-1 0,0 0,1c0,4 -2,7 -1,7c1,0 0.496216,-4.017609 0,-11c-0.501282,-7.053284 -2.1604,-13.963287 -3,-18c-1.238647,-5.955322 -2.793945,-12.087433 -5,-17c-1.832031,-4.079651 -2.789856,-7.07843 -4,-10c-1.711426,-4.131714 -4,-7 -6,-13c-2,-6 -4.190308,-10.881516 -6,-14c-1.122314,-1.93399 -3.190308,-3.881516 -5,-7c-1.122314,-1.93399 -3.103394,-4.906326 -4,-6c-2.285889,-2.78833 -1.569519,-5.132996 -3,-9c-1.551575,-4.194351 -4.692566,-9.186005 -6,-11c-1.653809,-2.29454 -3.186005,-2.692551 -5,-4c-1.147278,-0.826904 -4.186005,-1.692551 -6,-3c-1.147278,-0.826904 -1.973236,-1.229752 -1,-1c2.176239,0.513748 7.985229,1.109451 15,2c8.983276,1.140457 19.825012,5.553055 38,11c14.870728,4.456665 30.302673,8.378677 39,13c8.330933,4.426651 11.497559,8.925797 12,14c0.197083,1.990265 0.923889,3.61731 0,4c-1.30658,0.541199 -2.69342,-2.458801 -4,-3c-0.923889,-0.38269 -1,1 -1,2c0,2 0.183228,7.966827 1,13c1.291443,7.95816 1,13 1,19c0,4 0,3 0,2c0,-3 2,-8 0,-8c-1,0 0.122192,2.007507 0,3c-0.503784,4.092224 -1.61731,6.076111 -2,7c-0.541199,1.306549 -1.229736,-0.026764 -1,-1c0.513733,-2.176239 3.34314,-5.876038 5,-11c1.268555,-3.923111 2,-6 2,-5c0,2 -0.398987,5.898102 -2,13c-1.337646,5.933868 -2,14 -2,22c0,7 2,12 2,15c0,1 0,0 0,-5c0,-8 0.808228,-13.036377 0,-22c-1.004028,-11.135162 -3.664978,-18.219391 -9,-26c-2.827515,-4.123718 -5.513,-6.593994 -7,-9c-1.662537,-2.689987 -2,-4 -2,-6c0,-1 0,-2 0,-3c0,-1 -0.692566,-3.186005 -2,-5c-1.653809,-2.29454 -3.159302,-2.610641 -6,-4c-3.238892,-1.584106 -8.685669,-5.702728 -17,-9c-9.705017,-3.848785 -19.967651,-7.116898 -27,-9c-3.982788,-1.066498 -9.071777,-1.691238 -14,-3c-3.056335,-0.811661 -10.513733,-1.823746 -10,-4c0.229767,-0.973251 2.006805,-0.164963 4,0c6.062012,0.501709 17.134094,3.639343 31,9c12.125366,4.687759 28.412231,12.346176 43,22c11.342651,7.506271 18.563477,14.702499 21,20c1.32135,2.872971 3.493469,6.878555 4,10c0.160156,0.987091 -1.442993,3.638702 -3,6c-2.964478,4.495758 -5,9 -8,15c-1,2 -1.486267,2.823761 -2,5c-0.229736,0.973236 -0.458801,2.306549 -1,1c-0.38269,-0.923889 0.0979,-3.824432 2,-5c0.850647,-0.525726 1.800903,1.064575 1,6c-1.013062,6.242889 -5.347595,13.89151 -8,23c-2.305542,7.917358 -6.848999,12.434631 -5,15c0.584717,0.811249 1,-1 5,-5c4,-4 11.513733,-7.823761 11,-10c-0.229736,-0.973236 -3.237366,2.73764 -11,10c-11.359985,10.627838 -23,23 -34,34c-5,5 -8.973267,8.770233 -8,9c2.17627,0.513733 5.235413,-4.735779 12,-11c10.376404,-9.608856 18.028748,-19.249146 28,-26c3.703247,-2.507202 4,-3 1,0c-5,5 -17.065796,15.928101 -28,26c-15.091492,13.901337 -23,21 -27,25c-2,2 -1,1 2,-2c5,-5 12.304626,-13.810425 25,-24c9.519531,-7.640564 16.714111,-15.78833 19,-13c1.793213,2.187347 -10.452332,7.454285 -19,15c-9.54187,8.42337 -15,14 -19,18c-2,2 -2,3 1,0c6,-6 13.599731,-13.444855 28,-26c10.712708,-9.340088 20,-16 27,-23c3,-3 5.38269,-4.923889 5,-4c-0.541199,1.306549 -0.69342,2.458801 -2,3c-0.923889,0.38269 -1,-1 -1,-2c0,-1 -0.566833,-0.901306 -1,0c-2.773743,5.771149 -12.950745,11.060577 -24,20c-4.977966,4.027405 -5.973267,4.229767 -5,4c4.352478,-1.027496 15.918701,-9.179413 29,-15c13.916138,-6.192047 21.692566,-12.813995 23,-11c0.826904,1.147278 -6.733582,5.513 -16,10c-11.700439,5.665619 -22.506531,5.878571 -22,9c0.160156,0.987091 6.884766,-3.20517 21,-11c14.881653,-8.218048 27.945862,-15.14859 36,-18c2.980957,-1.055359 3,-2 2,-2c-3,0 -13.014893,-1.834991 -25,-3c-9.012878,-0.876099 -15.82373,-3.486267 -18,-4c-0.973267,-0.229767 -3.541199,0.306549 -3,-1c0.38269,-0.923889 1.017456,1.457489 7,1c13.114624,-1.00293 23.774658,-5.753387 36,-9c4.928223,-1.308746 6,-2 5,-2c-1,0 -5.976563,0.499756 -22,1c-14.992676,0.468079 -26,-2 -26,0c0,1 7.104858,0.55072 19,-2c19.210205,-4.119324 31,-6 31,-8c0,-2 -10.912109,2.998291 -28,4c-12.977722,0.760773 -18.61731,-0.076111 -19,-1c-0.541199,-1.306549 13.884827,-4.377594 33,-10c10.938416,-3.217346 14.985413,-4.295624 12,-4c-10.148438,1.004883 -25.962585,4.49939 -36,5c-5.992554,0.298889 -5.406006,-0.513 -3,-2c8.070007,-4.987518 20.807312,-7.575989 32,-11c3.942749,-1.206146 3.095093,-0.688232 -3,1c-8.88501,2.460999 -19.937988,4.498291 -26,5c-0.996582,0.082489 0.873901,-1.207642 9,-6c8.868286,-5.230072 25.119507,-7.957825 23,-14c-0.330994,-0.943634 -4.80835,2.345444 -10,5c-6.780823,3.467102 -14.925781,6.497559 -20,7c-0.995117,0.098541 -0.153381,-1.084351 1,-3c4.437134,-7.369659 12.872986,-13.452301 17,-21c2.583557,-4.724945 4.414185,-8.585785 3,-10c-0.707092,-0.707108 -1.474243,0.149353 -2,1c-1.175598,1.902115 -6.632446,3.477371 -13,8c-4.753845,3.376495 -8,6 -13,10c-5,4 -7,6 -7,5c0,-1 -0.394165,-2.01947 0,-6c0.502441,-5.074203 2.800903,-10.06456 2,-15c-1.013062,-6.242889 -3.723999,-9.222733 -7,-13c-0.926575,-1.068375 -1.38269,0.076126 -1,1c0.541199,1.306564 2,5 2,10c0,6 0,12 1,12c1,0 -2.28418,-2.731155 -7,-8c-4.270386,-4.771149 -12,-11 -16,-13c-2,-1 -0.896606,-0.093674 0,1c2.285889,2.78833 3.593994,7.504318 6,12c0.667297,1.246872 0.813965,2.307449 -1,1c-3.441833,-2.480713 -10.228882,-6.729614 -15,-11c-3.161316,-2.829514 -3,-6 -3,-8c0,-1 0.292908,-1.292892 1,-2c0.707092,-0.707108 0,-2 -1,-2c-1,0 -2.98877,1.069824 -9,2c-6.987915,1.081314 -14.907776,2.496231 -19,3c-1.984985,0.24437 -1.550476,-0.165161 -1,-1c4.192444,-6.357956 20,-7 32,-11c9,-3 12.230652,-3.696777 11,-3c-3.587952,2.031448 -10.898132,2.399017 -18,4c-11.867737,2.675339 -24.962585,3.499374 -35,4c-6.991333,0.348694 -8,0 -7,0c1,0 4.050903,-1.654099 12,-3c14.116882,-2.390198 28.04187,-4.708572 36,-6c5.033203,-0.816772 6,-1 5,-1c-5,0 -14.045105,0.848404 -21,3c-9.063049,2.803772 -12.541199,3.693436 -12,5c0.38269,0.923874 3,0 10,0c11,0 26,-1 36,-1c8,0 11.584717,0.188751 11,1c-1.848999,2.565369 -10,5 -16,9c-6,4 -9,6 -12,9c-1,1 -1.707092,1.707108 -1,1c0.707092,-0.707108 4.027466,-1.954681 9,-5c8.045105,-4.927078 15,-9 19,-11c2,-1 1.541199,-0.306564 1,1c-0.38269,0.923874 -2.367004,2.658127 -7,8c-3.276001,3.777267 -7,8 -6,9c1,1 2.128601,-0.776093 4,-2c6.536438,-4.274933 11.380615,-9.443527 17,-11c0.963745,-0.266937 2.093689,0.103409 1,1c-2.78833,2.285873 -6.29364,3.726501 -10,8c-3.276001,3.777267 -6.493469,6.878555 -7,10c-0.320374,1.974182 0,3 1,2c2,-2 5.507385,-4.708939 11,-8c6.532837,-3.914337 10.0979,-6.175568 12,-5c0.850647,0.525726 -1.056824,0.946228 -2,2c-4.270386,4.771149 -8.224304,8.836609 -14,17c-4.164917,5.886703 -5.707092,9.292892 -5,10c1.414185,1.414215 7.881348,-2.293503 15,-5c8.867554,-3.371429 15.790283,-5.990234 23,-7c2.971008,-0.416107 4.707092,0.292892 4,1c-0.707092,0.707108 -2.881531,3.190277 -6,5c-5.802002,3.367035 -11.041321,5.847229 -15,7c-3.036194,0.88414 -4,2 -3,2c1,0 2,0 4,0c10,0 17.01355,-0.434967 24,0c8.046692,0.500961 10.87854,2.493454 14,3c0.987061,0.160187 2,0 1,0c-1,0 -4.013794,-0.497696 -13,0c-9.041504,0.500763 -16.958496,1.499237 -26,2c-2.995422,0.165894 -5.707092,0.292892 -5,1c0.707092,0.707092 1.852722,0.173096 3,1c1.813965,1.307465 8.088318,2.75238 14,5c7.118652,2.706512 14.197998,5.632965 20,9c3.118469,1.809723 5.292908,3.292908 6,4c0.707092,0.707092 -2.013611,1.329926 -6,1c-12.124084,-1.003418 -23,-3 -33,-3c-7,0 -9.147278,0.173096 -8,1c1.813965,1.307465 6.213196,2.551147 15,7c7.192871,3.641846 14.303589,7.372559 21,11c3.170288,1.717346 4.458801,1.693451 5,3c0.38269,0.923889 -1,1 -2,1c-1,0 -7.976685,-0.179626 -15,-1c-10.970764,-1.281433 -19,-5 -19,-2c0,1 2,1 4,3c3,3 7,8 10,11c2,2 3,3 2,3c-1,0 -2.041321,0.152771 -6,-1c-6.072327,-1.76828 -10.94342,-5.147736 -16,-7c-2.96936,-1.087677 -5,-2 -4,-1c1,1 3.220215,2.794891 6,6c3.276001,3.777283 6,9 8,13c2,4 2,7 3,6c1,-1 -2.796997,-1.2565 -4,-2c-5.380005,-3.325012 -16.177002,-6.345184 -21,-8c-2.115051,-0.725677 -1.811218,-0.584717 -1,0c2.565369,1.84903 3.847961,6.079712 6,10c2.805908,5.11145 4.337463,9.309998 6,12c0.743469,1.203003 1.707092,3.707092 1,3c-0.707092,-0.707092 -1.746765,-2.371338 -6,-5c-3.804199,-2.351135 -4,-4 -5,-4c-1,0 0,2 0,3c0,4 1.493469,7.878571 2,11c0.320374,1.974182 0,3 -1,2c-1,-1 -3.228882,-1.729614 -8,-6c-3.161316,-2.829498 -4,-5 -5,-5c-1,0 0.569519,1.132996 2,5c1.551575,4.194336 2.968567,8.412079 5,12c0.696777,1.230652 0.707092,2.707092 0,2c-0.707092,-0.707092 -2,-2 -4,-4c-3,-3 -3.69342,-5.541199 -5,-5c-0.923889,0.38269 0.493469,1.878571 1,5c0.640747,3.948364 0.497559,7.925781 1,13c0.098511,0.995148 0.38269,1.923889 0,1c-0.541199,-1.306549 -1.589722,-3.232971 -4,-7c-3.450989,-5.393585 -7,-11 -8,-11c-1,0 -1.530762,4.304474 0,8c1.623596,3.919678 6.346191,7.705475 8,10c1.307434,1.813995 3.346191,3.705475 5,6c1.307434,1.813995 2,3 1,2c-1,-1 -2.389038,-1.655914 -5,-5c-3.58844,-4.595978 -9.972534,-9.647491 -11,-14c-0.459534,-1.946503 -0.292908,-2.292908 -1,-3c-0.707092,-0.707092 -2.149353,-1.474274 -3,-2c-1.9021,-1.175568 -2.69342,-3.458801 -4,-4c-0.923889,-0.38269 -2,-1 -4,-3c-3,-3 -4.458801,-3.693451 -5,-5c-0.38269,-0.923889 -1.707092,-2.292908 -1,-3c0.707092,-0.707092 3.186157,-0.437958 13,-4c14.317627,-5.196747 26.247742,-10.375122 37,-15c6.162354,-2.650604 9.612915,-5.768585 15,-8c3.809265,-1.57785 3.560608,-0.828064 3,0c-3.019104,4.45929 -14.882202,5.53418 -31,6c-15.027039,0.434296 -26,-3 -29,-3c-1,0 0.004883,0.098541 1,0c5.074219,-0.502441 17.20813,-3.303558 35,-9c11.147278,-3.569061 18.386902,-7.917603 21,-9c1.847778,-0.765381 3.707092,-0.292908 3,-1c-0.707092,-0.707092 -1.044678,0.761383 -7,2c-12.110168,2.518768 -25.027649,4.220215 -36,5c-7.053284,0.501251 -10,1 -11,1c-1,0 -0.560608,-0.171936 0,-1c6.038147,-8.918549 25.0755,-10.883667 39,-20c9.049683,-5.924805 15.506531,-7.878571 15,-11c-0.160156,-0.987091 -2.794983,1.371704 -8,4c-11.604431,5.859741 -29.915955,12.261627 -42,16c-6.954895,2.151581 -9.707092,2.707092 -9,2c0.707092,-0.707092 4.041138,-2.940826 17,-12c17.054504,-11.922363 24.386902,-21.082397 27,-20c0.923889,0.38269 -1,1 -7,4c-12,6 -26.471252,13.458771 -33,15c-0.973267,0.229767 -0.8703,-0.885315 0,-2c3.58844,-4.595978 12.274353,-12.070435 20,-24c3.646423,-5.630615 2.901306,-7.433182 2,-7c-5.771179,2.773758 -14.836609,13.224274 -23,19c-5.886719,4.164948 -9.707092,5.707092 -9,5c0.707092,-0.707092 4.347168,-5.833832 9,-16c5.410095,-11.820786 4.513733,-21.823746 4,-24c-0.229736,-0.973251 -0.190308,-0.118484 -2,3c-3.367004,5.801987 -10.224304,13.836609 -16,22c-2.082458,2.943359 -2,4 -2,3c0,-4 1.718933,-13.019897 1,-26c-0.500793,-9.041534 -0.292908,-12.292892 -1,-13c-0.707092,-0.707108 -0.387573,3.205246 -2,7c-3.689331,8.682678 -8.69342,13.541199 -10,13c-0.923889,-0.38269 0,-6 -1,-12c-1,-6 -1.923889,-8.61731 -1,-9c1.30658,-0.541199 1.418884,1.418854 3,3c1.581116,1.581146 5,3 8,3c8,0 20.975037,-1.499725 36,-2c5.996704,-0.199661 6.987061,-0.160187 6,0c-3.12146,0.506546 -10.09198,2.697372 -27,8c-12.069458,3.785187 -22.641846,4.792801 -23,7c-0.226501,1.39595 1.859863,1.35202 4,2c7.716309,2.336319 23,3 40,5c17,2 25.17157,0.17157 28,3c0.707092,0.707108 -0.967285,1.264297 -8,2c-14.951721,1.564117 -33.869995,3.47345 -44,6c-4.947449,1.233963 -6.30658,1.458801 -5,2c1.847778,0.765366 12.858459,2.540833 31,7c13.903992,3.417572 24.504272,4.035522 29,7c1.180664,0.778503 0,1 -1,1c-12,0 -27,-1 -36,-1c-6,0 -8.38269,0.076111 -8,1c0.541199,1.306549 4.03241,1.904449 13,5c14.052368,4.8508 21.318542,7.221283 27,10c3.238892,1.584106 1.991943,2.179596 0,2c-11.135193,-1.004059 -25.864807,-4.995941 -37,-6c-5.975769,-0.538818 -5.38269,0.076111 -5,1c1.623596,3.919678 8.742065,8.306213 17,15c7.768372,6.296997 12,10 14,12c1,1 0.126465,0.691498 -2,0c-11.569214,-3.762115 -26.283691,-2.663696 -34,-5c-2.140137,-0.64798 -3.068359,-0.926605 -2,0c3.777283,3.276001 8.920288,7.113495 16,12c5.934753,4.096222 10.917603,6.386871 12,9c0.38269,0.923889 -0.769348,0.696777 -2,0c-3.587952,-2.031464 -10.082642,-1.694458 -18,-4c-3.036194,-0.884125 -5.38269,-0.923889 -5,0c0.541199,1.306549 2,3 5,8c3,5 5.458801,7.693451 6,9c0.38269,0.923889 0,0 -2,-1c-4,-2 -11.07843,-5.789856 -14,-7c-2.065857,-0.855713 -1.826904,-0.147278 -1,1c1.307434,1.813995 3.190308,5.881531 5,9c2.24469,3.867981 3,7 4,7c1,0 -1.149353,-0.474274 -2,-1c-1.9021,-1.175568 -2.292908,-3.707092 -3,-3c-0.707092,0.707092 0,2 -1,3c-3,3 -4.337646,6.620605 -10,12c-3.624939,3.443817 -6,5 -8,7c-1,1 -0.923889,0.38269 0,0c1.30658,-0.541199 4.817993,-6.226868 11,-11c6.80896,-5.257172 12.61731,-8.923889 13,-8c0.541199,1.306549 -4.855286,4.149017 -10,9c-8.761108,8.260925 -14.517029,13.531647 -19,19c-2.285889,2.78833 -2.38269,3.923889 -2,3c0.541199,-1.306549 3.39624,-2.549652 8,-7c6.628723,-6.407806 13.974487,-11.020508 18,-16c1.405762,-1.738922 1.166748,-0.07901 -3,4c-5.761169,5.639923 -11.796265,7.161255 -15,11c-1.432739,1.716736 -2.292908,2.292908 -3,3c-0.707092,0.707092 0,0 1,-1c3,-3 7.161255,-8.796265 11,-12c1.716736,-1.43277 1.432739,-0.716736 0,1c-3.203735,3.838745 -10.822876,9.185364 -15,13c-5.767273,5.266754 -7.292908,6.292908 -8,7c-0.707092,0.707092 -2.07843,0.789856 -5,2c-2.065857,0.855713 -2.693451,1.458801 -4,2c-0.923889,0.38269 -2.159271,0.610657 -5,2c-3.238922,1.584106 -5.292908,3.707092 -6,3c-0.707092,-0.707092 -1.493469,-1.878571 -2,-5c-0.320374,-1.974182 -0.292908,-2.292908 -1,-3c-0.707092,-0.707092 -0.714111,-2.21167 -3,-5c-5.379578,-6.562012 -8,-9 -9,-9c-1,0 1.579712,4.15686 4,10c1.711426,4.131714 3,5 3,4c0,-1 0.496216,-4.907776 1,-9c0.244354,-1.985016 -0.122192,-0.992493 0,0c0.503784,4.092224 0.693451,7.541199 2,7c0.923889,-0.38269 -0.496216,-1.907776 -1,-6c-0.977478,-7.940063 0.493469,-13.878571 1,-17c0.160187,-0.987091 0,2 0,9c0,9 -1,15 0,15c1,0 0,-3 0,-9c0,-5 0.610931,-10.037476 0,-15c-0.503784,-4.092224 -1.679626,-8.025818 -2,-10c-0.506531,-3.121429 -1.493469,-5.878571 -2,-9c-0.48056,-2.961273 -1,-6 -1,-12c0,-5 -0.497559,-8.925781 -1,-14c-0.689758,-6.965942 -0.733093,-12.044952 0,-18c1.007538,-8.184418 4.241516,-13.949707 6,-23c1.160187,-5.9711 2.216553,-13.137482 4,-21c2.098572,-9.251816 4.939178,-16.02475 7,-21c2.914429,-7.036057 7.288574,-13.868286 9,-18c1.210144,-2.92157 2,-6 4,-10c1,-2 2,-5 1,-5c-1,0 -0.303223,1.769348 -1,3c-2.031433,3.587921 -2.048706,7.289124 -4,12c-2.759583,6.662186 -6.448395,9.805649 -8,14c-1.430481,3.867004 -2.789856,7.07843 -4,10c-0.855713,2.065857 -3.173096,3.852737 -4,5c-1.307465,1.813995 -2,3 -3,4c-1,1 -2.934143,3.144287 -5,4c-2.92157,1.210144 -7,3 -11,5c-6,3 -9.702667,5.541351 -13,7c-3.77063,1.66803 -7.222717,2.723999 -11,6c-2.136749,1.85318 -2.292908,2.292908 -3,3c-0.707092,0.707092 -0.923889,-0.61731 0,-1c1.306549,-0.541199 2.043518,0.732086 9,2c9.070129,1.653137 17,4 23,6c6,2 10.693451,3.458801 12,4c1.847748,0.765381 7.513733,-0.176239 7,2c-0.229767,0.973236 -2.076111,-0.38269 -3,0c-1.306549,0.541199 -2.076111,0.61731 -3,1c-1.306549,0.541199 -3.292908,0.292908 -4,1c-0.707092,0.707092 -1,1 -2,1c-1,0 -2.707092,0.292908 -2,1c0.707092,0.707092 1.885315,0.129669 3,1c4.595978,3.58844 9.222717,5.723999 13,9c3.205109,2.779785 4.881531,5.190277 8,7c1.934021,1.122345 2.292908,1.292908 3,2c0.707092,0.707092 0.292908,1.292908 1,2c0.707092,0.707092 1.292908,-0.292908 2,-1c0.707092,-0.707092 6.282349,-7.100739 15,-12c4.69458,-2.638336 9.21167,-4.714111 12,-7c2.187317,-1.793182 5,-4 7,-5c2,-1 4.21167,-1.714111 7,-4c1.093689,-0.896606 3,0 3,-1c0,-1 -2,0 -2,-1l-1,1l-7,3" id="svg_17" fill-opacity="null" stroke-opacity="null" stroke-width="2px" stroke="url(#svg_1)" fill="none"/>
  <path d="m390.5,331.5c-1,0 -4,-3 -3,-3c1,0 16.764709,3.781799 48,7c21.906738,2.25705 22.016296,0.500122 -1,0c-31.992462,-0.69516 -45,-1 -44,-1c2,0 22.927246,5.024628 58,7c36.954956,2.08139 67.501282,5.053284 67,-2c-0.141785,-1.994965 -20.383514,-4.625885 -23,3c-0.458954,1.337677 19.794556,-3.927826 72,-15c30.888245,-6.551056 26.909302,-8.372223 14,-1c-6.782227,3.873169 2.333923,5.06488 23,-2c5.095642,-1.741974 4.695679,1.227692 10,8c5.684937,7.258209 5.923889,7.61731 5,8c-1.30658,0.541199 -17.392273,-4.034973 -18,5c-0.276672,4.1138 15.094421,2.797272 26,8c2.018188,0.962799 -3.256226,-0.378967 -16,-6c-2.045898,-0.902405 -0.850586,-1.327118 6,2c11.270996,5.473999 13.923889,7.61731 13,8c-1.30658,0.541199 -15,7 -33,16c-2,1 0.04364,-0.926178 17,-11c5.013,-2.978241 -4.967529,1.493347 -15,9c-1.132324,0.84726 -2,1 -3,1c-10,0 -27,2 -44,2c-13,0 -22,1 -32,2c-10,1 -21.995605,3.045044 -32,4c-10.995392,1.04953 -24,2 -42,2c-7,0 -15.968811,-0.499573 -28,-1c-3.996552,-0.166229 -9.937958,-1.498291 -16,-2c-1.993195,-0.164948 -9,-1 -15,-1c-1,0 -2.707092,-0.292908 -2,-1c0.707092,-0.707092 4.171967,-6.668182 14,-18c1.85318,-2.136749 2.61731,-0.923889 3,0c2.164795,5.226257 10.541199,7.693451 10,9c-0.38269,0.923889 -14.729675,-3.991882 -37,-6c-4.979797,-0.449036 -2.971588,-0.176636 10,2c22.052368,3.700378 43.674988,16.379974 47,11c0.7435,-1.203003 -14.488068,-6.980621 -41,-10c-4.967896,-0.565796 -3.9729,-0.118225 5,2c16.051239,3.789185 39.013092,4.757111 38,11c-0.320374,1.974182 -8.163239,-0.272156 -32,-6c-11.086182,-2.66394 -12.026581,-2.916382 -9,-2c10.912537,3.304047 26.15686,5.579712 32,8c2.065857,0.855713 1.138031,0.534729 -15,-4c-23.816254,-6.692261 -31.824432,-7.0979 -33,-9c-0.525726,-0.850647 0,-2 3,-5c18,-18 25,-25 25,-25c-4,5 -19.426697,11.748627 -24,20c-0.969543,1.749298 -0.08374,-0.096863 8,-7c11.878662,-10.143829 16.05188,-13.946747 14,-12c-9.759949,9.259766 -28.625244,13.808044 -26,22c0.305176,0.952301 1.409668,-0.520111 5,-4c4.59787,-4.456421 12.549164,-12.95517 16,-14c0.957092,-0.289795 1.003418,-1.082489 2,-1c6.062042,0.501709 26.0242,2.837372 40,5c6.01123,0.930176 5.051178,0.696808 0,0c-25.832184,-3.563507 -43,-6 -43,-3c0,5 27.931976,2.998962 50,4c6.992798,0.3172 6.012238,0.825623 -7,0c-19.984802,-1.268036 -23.066345,-0.633545 -13,1c23.874451,3.874298 41.311798,4.915344 50,8c6.321594,2.244415 7,3 8,3c1,0 3.513824,0.521393 10,8c6.552032,7.554535 7.38269,9.923889 7,9c-2.705994,-6.532806 -9.823761,-13.513733 -12,-13c-0.973236,0.229767 0,2 0,5c0,2 0,1 -1,0c-3,-3 -9.922089,-7.242737 -16,-7c-4.119812,0.16452 -13.09317,5.796631 -22,10c-4.044373,1.90863 -3.38269,1.923889 -3,1c3.788361,-9.145935 17.877655,-18.93399 19,-17c1.809723,3.118469 -9.237366,7.73764 -17,15c-1.032715,0.966156 -0.526703,-0.60376 12,-11c11.542633,-9.579529 11.487244,-7.545959 4,0c-8.481354,8.547882 -12.289795,11.957092 -12,11c1.04483,-3.450836 9.442383,-14.675262 19,-22c1.774811,-1.360168 3.256287,-1.240814 7,3c7.545715,8.547638 14,17 16,19c1,1 2,2 2,1c0,-1 0.364777,-5.235382 -7,-12c-6.947906,-6.381714 -10,-7 -11,-7c-1,0 0.692535,1.186005 2,3c4.134521,5.736359 8.161255,8.796265 12,12c1.716736,1.43277 2.471863,1.881683 2,1c-1.701294,-3.178925 -9.471252,-7.458771 -16,-9c-0.973236,-0.229767 -0.093658,0.103394 1,1c5.57666,4.571747 11.746735,9.371338 16,12c3.80423,2.351135 5.076111,3.38269 6,3c1.306549,-0.541199 3.817993,-4.226868 10,-9c6.80896,-5.257172 12,-6 12,-7c0,-1 -2.726501,1.29361 -7,5c-3.777283,3.276001 -5.525726,4.850647 -5,4c1.175568,-1.9021 7.376404,-4.080322 9,-8c0.38269,-0.923889 -0.973267,-1.229767 0,-1c2.17627,0.513733 3,2 9,6c3,2 1.957092,1.289795 1,1c-6.901672,-2.089661 -16.723999,-16.777283 -20,-13c-0.926605,1.068359 6.411438,3.42453 15,10c8.44043,6.462097 14.8703,10.885315 14,12c-3.58844,4.595978 -21.362915,-8.173035 -27,-19c-0.461823,-0.886993 7,4 18,12l5,5l1,0l-6,-3" id="svg_19" fill-opacity="null" stroke-opacity="null" stroke-width="2px" stroke="url(#svg_1)" fill="none"/>
  <path d="m440.5,382.5c1,0 1.292908,-1.707092 2,-1c0.707092,0.707092 2.931305,3.559906 3,14c0.095795,14.559906 -12.378357,25.413605 -27,31c-21.301697,8.138641 -40.926025,9.900635 -72,12c-25.960052,1.753876 -72.558563,1.728394 -93,-31c-11.702377,-18.73645 18.970856,-45.210754 31,-61c6.555115,-8.604095 8.161316,-15.244019 10,-20c2.102631,-5.43866 4,-11 4,-14c0,-5 -2.346191,-7.705475 -4,-10c-1.307465,-1.813995 -2.823761,-4.486267 -5,-5c-0.973236,-0.229767 -1.937958,-1.498291 -8,-2c-0.996582,-0.082489 -2,0 -3,1c-1,1 -2.615417,1.211792 -2,2c2.537415,3.249847 9,4 11,5c2,1 3.68927,3.080261 3,6c-1.027496,4.352509 -4,7 -5,12c-1,5 -2.898529,10.078156 -6,14c-4.844666,6.126099 -10.268799,15.390076 -17,22c-4.1604,4.085449 -9.796265,7.161255 -13,11c-2.865509,3.433502 -4,9 -4,13c0,4 0,7 0,9c0,3 0.188339,4.943665 1,8c1.308762,4.928192 1.877655,7.06601 3,9c1.809723,3.118469 4.723984,6.222717 8,10c2.779785,3.205109 7,7 11,11c3,3 5.56134,4.897369 11,7c4.755981,1.838684 13.096619,3.533752 19,5c6.138062,1.524536 14.041321,3.847229 18,5c3.036163,0.884125 7.025208,0.881348 12,2c4.022644,0.904572 11,2 14,3c3,1 6.009186,0.668213 12,1c9.041534,0.500763 16.087006,2.248322 25,1c7.209747,-1.009766 16.967651,-4.116882 24,-6c7.965576,-2.132996 14.111298,-3.64505 21,-6c5.095642,-1.741974 13.246124,-5.623505 18,-9c6.367554,-4.522614 11.692383,-7.410919 15,-12c2.614899,-3.627991 3.96109,-8.077484 3,-14c-0.506531,-3.121429 -3,-8 -5,-11c-2,-3 -4.385101,-6.372009 -7,-10c-1.653809,-2.294525 -3,-4 -4,-7l-1,0l0,-1" id="svg_20" fill-opacity="null" stroke-opacity="null" stroke-width="2px" stroke="url(#svg_1)" fill="none"/>
  <path d="m542.5,378.5c1,-1 3,-2 3,-1c0,3 -0.160156,4.012909 0,5c1.519592,9.364319 5.982666,17.459381 10,25c4.044739,7.592102 8.906555,11.14386 15,15c4.927246,3.118103 12.904358,6.258026 18,8c6.888672,2.35495 17.066162,3.662323 23,5c7.101868,1.600983 14,2 24,2c8,0 12.98877,-1.069824 19,-2c13.97583,-2.162628 24,-3 32,-5c8,-2 13.30542,-3.361664 18,-6c4.358826,-2.449615 12.309998,-8.337494 15,-10c4.812012,-2.973999 8,-9 8,-12c0,-7 0.49707,-12.015472 0,-20c-0.500977,-8.046692 -3.378723,-17.832092 -5,-22c-2.639221,-6.784882 -4.981628,-12.712006 -6,-18c-1.512878,-7.855652 -1,-13 -2,-18c-1,-5 0.729614,-8.228851 5,-13c1.886353,-2.107544 5,-5 9,-7c2,-1 6.03064,-3.912323 9,-5c5.05658,-1.852264 12.779968,-3.976135 17,-8c5.218872,-4.976288 3.689758,-8.718994 1,-12c-2.285889,-2.78833 -3.186035,-4.692535 -5,-6c-1.147278,-0.826904 -2.042908,-1.289795 -3,-1c-3.450867,1.04483 -4.385071,6.372009 -7,10c-0.826904,1.147278 -3.085815,3.420441 -5,4c-3.450867,1.04483 -7.876038,3.34314 -13,5c-3.923096,1.268555 -9.372009,2.385101 -13,5c-2.294556,1.653809 -4,4 -5,7c-1,3 -1.337463,5.309998 -3,8c-1.487,2.406006 -3,7 -3,10c0,2 -0.496216,5.907776 -1,10c-0.366577,2.977509 -1.148071,6.228363 0,9c1.082397,2.613129 3.75531,5.132019 6,9c1.809692,3.118469 3.789856,8.07843 5,11c0.855713,2.065857 0.855713,5.934143 0,8c-1.210144,2.92157 -1,6 -1,8c0,3 -1,4 -1,6c0,3 0,6 0,9c0,1 -1.206787,4.812653 -3,7c-2.285889,2.78833 -5,6 -8,9c-1,1 -5.805664,5.448395 -10,7c-3.867004,1.430481 -15,6 -23,7c-8,1 -18.059937,2.022522 -26,3c-4.092224,0.503784 -9.974182,-0.139099 -15,-1c-6.969543,-1.193848 -13.041321,-1.847229 -17,-3c-9.108521,-2.652405 -12.957947,-4.130829 -19,-6c-6.954895,-2.151581 -11.254089,-3.357239 -17,-6c-5.297485,-2.436493 -9.519287,-6.558197 -12,-10c-2.614929,-3.627991 -1.881348,-8.025208 -3,-13c-0.904541,-4.022644 -1,-8 -1,-10c0,-2 0,-3 -1,-3l0,1" id="svg_21" fill-opacity="null" stroke-opacity="null" stroke-width="2px" stroke="url(#svg_1)" fill="none"/>
  <path d="m448.5,396.5c0,-1 1,-2 2,-2c1,0 3.932098,3.045837 8,9c6.885925,10.078888 10.610016,18.865906 7,30c-2.245361,6.925201 2.910645,10.741333 2,17c-1.757568,12.079346 -28.138031,31.541626 -24,36c7.514008,8.095642 12.377808,1.861389 10,14c-2.718597,13.878357 7.436035,10.979614 17,24c7.718658,10.508179 -10.601227,25.446472 -17,33c-11.120667,13.127502 -15.97818,24.664917 -20,38c-2.66214,8.826843 -3.924774,20.010925 -6,34c-1.930084,13.010559 -2,22 -2,21c0,-1 0.241516,-11.949707 2,-21c2.320374,-11.9422 3.320831,-18.926575 5,-27c1.238617,-5.955322 3.357239,-14.254089 6,-20c2.436493,-5.297485 8.539795,-13.422363 15,-20c8.437653,-8.591064 17.454132,-10.797119 29,-20c8.312592,-6.625732 10.375122,-11.6297 8,-15c-4.153931,-5.89447 -16.339417,-7.127747 -25,-11c-7.360077,-3.290771 -12.578461,-7.914185 -8,-14c8.544403,-11.357483 14.999023,-14.062378 13,-14c-16.023407,0.500244 -21.48938,-0.264038 -17,-8c3.619446,-6.236938 1.565369,-3.151001 -1,-5c-0.811249,-0.584717 10.668182,-8.171997 22,-18c5.341858,-4.632935 6.308746,-7.071808 5,-12c-1.623322,-6.112671 -8.785919,-12.402588 -10,-19c-1.818878,-9.883911 4,-17 4,-22c0,-6 -6.199249,-7.619904 -16,-13c-5.11145,-2.805908 -3.176239,-8.486267 -1,-9c2.919739,-0.68927 12.909821,6.375671 33,11c18.921692,4.355347 19.652588,16.502258 21,31c0.827698,8.905884 11.198364,10.291077 8,26c-3.59668,17.665344 -2.141602,17.329712 1,20c9.175049,7.798584 -10.483582,30.793762 -5,38c3.261047,4.285522 9.484619,14.06134 8,32c-1.505127,18.186096 -2,34 -2,48c0,15 0,28 0,35c0,8 0.986938,13.757141 2,20c0.320374,1.974182 1.617004,7.74707 3,12c3.762146,11.569214 2.519592,16.074829 4,24c1.51416,8.106018 2.648743,12.237488 11,20c2.640869,2.454712 10.076111,4.61731 11,5c1.30658,0.541199 -1.18158,0.117126 -5,-6c-7.356384,-11.784912 -8.067505,-19.193237 -11,-31c-1.524536,-6.138062 -6.378723,-14.832092 -8,-19c-2.639221,-6.784851 -2.886841,-13.043823 -2,-22c1.004883,-10.148438 2,-14 2,-23c0,-5 -1.496216,-11.017639 -1,-18c0.501282,-7.053284 3.414795,-14.907593 5,-23c1.359314,-6.939209 2.308777,-11.071777 1,-16c-0.811646,-3.056335 -3.498291,-5.937988 -4,-12c-0.329895,-3.986389 0,-10 0,-16c0,-3 -0.633423,-10.022461 -1,-13c-0.503784,-4.092224 -2.122192,-8.007507 -2,-9c0.503784,-4.092224 2,-9 2,-10c0,-3 1,-5 1,-8c0,-6 -0.115845,-7.963867 -1,-11c-1.152771,-3.958679 -1,-7 -1,-9c0,-2 -1,-2 -1,-3c0,-1 -1.269592,-2.693604 3,-9c0.792847,-1.171051 2.352478,5.027496 -2,4c-0.973267,-0.229767 -0.29303,-1.937958 -1,-6c-1.723267,-9.901031 0.987061,-16.839813 0,-17c-3.12146,-0.506531 -9.63501,-1.957489 -9,-9c0.85199,-9.448486 1.740112,-10.016968 2,-12c2.01709,-15.392578 4,-21 4,-22l-1,-1l0,-2" id="svg_22" fill-opacity="null" stroke-opacity="null" stroke-width="2px" stroke="url(#svg_1)" fill="none"/>
  <path d="m506.5,374.5c1,0 0.124268,0.003876 0,2c-0.500977,8.046692 -0.541748,19.328918 10,30c11.526489,11.667908 31.82251,19.085205 34,41c1.300476,13.088501 13.797729,12.196747 32,18c17.490173,5.576233 16.955261,29.40567 24,46c5.242737,12.349609 7.117554,34.068665 14,44c7.249756,10.461426 9.582214,23.050293 11,43c1.002502,14.106567 3.49939,21.962585 4,32c0.249084,4.993774 0,8 0,9c0,1 0.832092,2.378723 5,4c6.784851,2.639221 18.953308,5.499023 27,6c3.992249,0.248535 5,0 4,0c-1,0 -6.607788,4.094116 -22,-7c-8.112427,-5.847107 -9.499207,-16.958496 -10,-26c-0.055298,-0.998474 -0.79895,-2.020447 -1,-3c-1.53125,-7.460266 -3,-14 -3,-21c0,-10 -1,-18 -1,-28c0,-5 0.57959,-7.085815 0,-9c-1.044861,-3.450867 -3.195801,-3.648865 -7,-6c-4.253235,-2.628662 -7.283264,-6.567261 -9,-8c-3.838745,-3.203735 -4,-10 -4,-15c0,-4 -1.498291,-8.937988 -2,-15c-0.247437,-2.989777 -3,-8 -3,-13c0,-3 -0.054443,-7.09021 -1,-12c-1.018372,-5.287994 -3.540466,-10.053497 -4,-12c-0.513733,-2.176239 -1.540466,-5.053497 -2,-7c-0.513733,-2.176239 -3.127014,-3.678619 -6,-5c-5.297485,-2.436493 -9.769897,-5.548615 -14,-7c-4.822998,-1.654816 -11.87854,-3.493469 -15,-4c-4.935425,-0.800903 -8.132996,-0.569519 -12,-2c-2.097168,-0.775787 -3.496216,-2.907776 -4,-7c-0.488708,-3.970032 0.080994,-8.106995 1,-12c0.513733,-2.176239 2.210144,-6.07843 1,-9c-0.855713,-2.065857 -2.824402,-4.0979 -4,-6c-0.525757,-0.850647 -3.802429,-2.432892 -10,-5c-2.92157,-1.210144 -6.486938,-1.080505 -9,-3c-2.865356,-2.188538 -3.492676,-7.024323 -3,-12c0.502441,-5.074219 1.806152,-10.030426 3,-17c0.860901,-5.025818 1,-7 1,-8c0,-1 -0.923889,-1.38269 0,-1c1.30658,0.541199 6.840088,0.899597 15,8c9.083984,7.90448 9.964478,16.504242 7,21c-6.228088,9.44516 -19.080322,23.623596 -23,22c-0.923889,-0.38269 0.38269,0.076111 0,1c-1.082397,2.613129 -11.066528,8.904663 -24,18c-7.03656,4.948395 -8.068359,4.926605 -7,4c7.554535,-6.552032 15.846619,-12.915649 17,-11c4.437134,7.369659 -22.276672,13.518433 -33,20c-3.085693,1.865082 -2.957092,1.289795 -2,1c6.901703,-2.089661 7.952301,-5.305176 7,-5c-8.191956,2.625244 -14.869263,14.698029 -20,11c-0.811249,-0.584717 -0.122559,-2.150848 6,-7c14.023071,-11.106476 26.605103,-13.091217 39,-22c6.342041,-4.558319 4.948669,-5.316223 4,-5c-9.486847,3.162292 -30.133392,11.977478 -35,19c-0.56958,0.82193 4.473267,-0.134552 16,-7c20.974548,-12.492706 28.337463,-21.309998 30,-24c0.743469,-1.203003 1,-2 2,-3c1,-1 0.068359,-0.926605 -1,0c-3.777283,3.276001 -11.804749,8.375366 -25,15c-14.793274,7.42691 -24,9 -24,10c0,1 1.226288,-0.418518 7,-3c14.720154,-6.581543 26.263672,-18.865479 32,-23c1.813965,-1.307465 0.525757,-0.850647 0,0c-2.351135,3.80423 -14.495575,9.242828 -28,14c-7.77774,2.739838 -7.973236,1.229767 -7,1c4.352509,-1.027496 16.075073,-6.883392 27,-14c6.042236,-3.935944 7.923889,-7.61731 7,-8c-1.30658,-0.541199 -7.493408,6.20813 -23,12c-20.459747,7.641907 -24.987091,7.160187 -24,7c3.121429,-0.506531 13.833099,-2.108307 36,-13c10.466675,-5.142792 12.30658,-9.541199 11,-9c-0.923889,0.38269 -8.911102,4.293884 -25,9c-10.943207,3.200958 -12.306549,3.541199 -11,3c0.923889,-0.38269 6.212738,-1.460693 22,-8c11.163269,-4.623993 16.802917,-9.990265 17,-8c0.502441,5.074219 -18.861328,6.804413 -34,9c-10.931,1.585358 -15,1 -14,1c1,0 9.005676,-1.962402 29,-5c13.003723,-1.975555 16,-2 15,-2c-11,0 -28,1 -43,1c-3,0 -2,0 -1,0c7,0 27.803131,-3.494263 45,-5c3.984741,-0.348907 0.996948,-1.071289 -23,0c-21.002869,0.937622 -26,1 -25,1c2,0 15.00827,-0.469513 32,-1c16.023438,-0.500244 19,-1 16,-1c-18,0 -33,-3 -33,0c0,1 2,0 3,0c4,0 8,0 7,0c-4,0 -17.968811,-1.499573 -30,-2c-1.99826,-0.08313 4.018494,-0.815674 22,0c22.068024,1.001038 39.947998,4.246704 49,4c6.080505,-0.16571 8.960144,-2.083984 11,-3c4.912537,-2.206055 9,-2 9,-3c0,-1 -1.936951,0.196228 -11,3c-13.90979,4.303192 -26,4 -26,6c0,2 3.033691,0.184448 9,-1c13.086304,-2.5979 19,-4 19,-4c-5,1 -15.459473,5.143158 -21,11c-1.536682,1.62439 0.121399,2.280212 5,0c13.375916,-6.251801 24.083435,-13.908966 23,-13c-9.351318,7.845581 -19.298706,11.821075 -21,15c-0.471863,0.881683 2.176636,-1.796967 16,-14c11.144775,-9.838409 7.761169,-12.639923 2,-7c-4.166748,4.07901 -5.229736,8.973236 -5,8c1.027466,-4.352509 7.92157,-12.789856 5,-14c-4.131714,-1.711426 -8.499084,8.297119 -14,17c-4.596191,7.271515 -8.733276,14.232727 -14,20c-3.814636,4.177155 -6.292908,4.292908 -7,5c-0.707092,0.707092 -1.273804,0.736511 -8,8c-6.264221,6.764587 -6.707092,6.292908 -6,7c0.707092,0.707092 0.677368,1.340973 7,7c4.771118,4.270386 -9.210449,-17.634583 -16,-4c-3.593811,7.21698 30.142334,28.36496 37,20c0.896606,-1.093658 -13.442017,-5.503632 -27,-15c-1.158325,-0.81134 6.095947,2.798004 21,10c10.06665,4.864441 7.238098,2.658783 -17,-14c-11.88562,-8.168945 -2.562805,-5.030334 22,6c2.039856,0.916016 -23.054962,-2.294983 -21,-11c0.229767,-0.973236 18.607056,12.592285 21,7c3.93396,-9.193695 -14.764709,-12.630463 -6,-9c8.263428,3.422821 -2.600769,7.06839 0,-2c0.275696,-0.961243 10.498291,2.936066 11,1c2.582581,-9.966461 -8.30658,-4.541199 -7,-4c0.923889,0.38269 6.083923,0.218231 19,2c10.102356,1.393616 9.46106,-0.48114 -11,-3c-0.992493,-0.122192 16.897644,4.032379 42,6c26.935913,2.111359 40.998779,1.950195 40,2c-10.037415,0.50061 -44,3 -68,3c-6,0 -7.077698,0.273468 -4,1c20.645752,4.87381 38,7 38,7c-31,-4 -43.821594,-5.983948 -44,-5c-1.524475,8.406891 25.691467,6.873535 25,9c-3.762146,11.569214 -36.781738,-6.988068 -37,-5c-1.005981,9.16449 33.711243,2.893951 32,8c-3.623169,10.81076 -24.101074,-3.887451 -23,-3c12.958435,10.444061 23.08844,12.812408 19,11c-17.656128,-7.826996 -19.617432,-7.653595 -9,-1c14.578552,9.135925 16.213013,10.606598 -2,1c-13.844604,-7.30249 -15.035583,-6.959106 -7,0c6.969299,6.035645 4.084351,-0.761047 -8,-5c-0.943604,-0.330994 -1.253662,3.369415 -11,14c-4.327148,4.719727 -5.093811,2.950287 -4,1c4.614685,-8.228271 5,-8 -9,6c-7,7 -5.671997,6.432587 5,-2c7.233826,-5.715881 6.021729,-5.970337 -9,5c-10.984161,8.021729 -12.38269,8.923889 -12,8c0.541199,-1.306549 12.474762,-10.475311 28,-25c10.327271,-9.661682 10.463196,-9.508301 2,-2c-13.318573,11.815887 -31.035522,27.495758 -34,23c-0.778503,-1.180634 3.30127,-2.637329 13,-11c14.469055,-12.475861 17.923889,-17.38269 17,-17c-10.452515,4.329559 -33,17 -30,23c1,2 11.104584,-6.875366 29,-22c7.041504,-5.951233 5.102905,-4.859222 -14,9c-13.92572,10.10318 -17.017487,11.978027 -12,8c13.95163,-11.06131 30.740662,-20.77063 29,-23c-3.58844,-4.595978 -26.856476,36.15329 -36,25c-0.896606,-1.093658 11.273926,-8.663452 31,-25c7.100647,-5.880554 -3.284576,-2.702515 -21,12c-4.352997,3.612671 -4.905579,4.424164 -4,4c7.072876,-3.312775 32.658997,-18.677368 27,-25c-4.270386,-4.771149 -26.407623,19.951385 -42,29c-1.93399,1.122345 2.117828,-2.838379 20,-16c20.134277,-14.819244 21.765198,-17.395935 3,-6c-22.288666,13.535675 -28,18 -25,16c21,-14 38.202209,-24.774902 36,-23c-12.958466,10.444061 -34.175049,15.962891 -36,25c-0.442627,2.191833 8.397583,2.126099 17,10c10.033142,9.183441 11.826904,15.147278 11,14c-1.307465,-1.813995 -10.647461,-13.865509 -21,-17c-0.957092,-0.289795 9.222473,5.588257 28,16c12.149719,6.736786 13.973267,9.229767 13,9c-4.352478,-1.027496 -27,-9 -40,-13c0,0 12.80365,3.546021 30,14c11.622375,7.06546 13.05011,9.907196 2,4c-20.906677,-11.176361 -33,-16 -33,-15c0,1 8.895477,5.197693 22,12c9.923126,5.150879 11.965057,6.099274 9,5c-22.287323,-8.262909 -41.826904,-13.852722 -41,-15c1.307465,-1.813995 15.813934,7.425476 36,16c9.913086,4.210815 12.176697,4.784485 11,4c-15.297058,-10.198029 -33.51944,-15.961273 -34,-13c-1.519623,9.364319 28.373566,7.906433 43,19c6.760681,5.127686 3.737671,6.618225 -11,0c-6.119507,-2.748047 -7,-3 -4,-1c9,6 14.839844,9.987061 15,9c1.519592,-9.364319 -26.755646,-8.984985 -27,-7c-0.503784,4.092224 15.473297,3.29364 19,9c0.525757,0.850647 -4.897614,-1.349243 -18,-5c-3.971802,-1.106689 -4.707092,-1.707092 -4,-1c0.707092,0.707092 3.215118,0.360779 10,3c8.335846,3.242493 17.038574,10.116394 22,17c2.614929,3.627991 1.585815,7.585815 3,9c0.707092,0.707092 1.160156,-1.012939 1,-2c-0.506531,-3.12146 -2.188171,-11.406799 -6,-18c-5.005188,-8.657288 -6,-9 -6,-9c7,6 15.252319,13.891541 13,9c-9.9151,-21.533478 -14.891663,-27.139282 -11,-24c15.449402,12.462585 16.740906,13.416565 4,-2c-9.470337,-11.459167 -9.876282,-12.197144 -5,-9c7.19397,4.716675 6.767273,6.266754 1,1c-5.221436,-4.76828 -3.867981,-5.24469 0,-3c6.236938,3.619446 5.114685,3.870331 4,3c-9.191956,-7.17688 -22,-10 -22,-9c0,1 -1.585785,1.414215 -3,0c-0.707092,-0.707092 -0.763672,-2.989288 21,-19c2.904297,-2.136597 -7,9 -10,12l-1,0l-1,0l-5,0" id="svg_23" fill-opacity="null" stroke-opacity="null" stroke-width="2px" stroke="url(#svg_1)" fill="none"/>
  <path transform="rotate(-14 767.5573730468748,151.84661865234364) " id="svg_26" d="m767.557373,74.346626c-53.567871,0 -97,34.69619 -97,77.499992c0,14.621124 5.138916,28.286743 13.960327,39.956207l-13.960327,32.629089l38.897095,-10.633545c16.198242,9.715881 36.280273,15.548248 58.102905,15.548248c53.567871,0 97,-34.700928 97,-77.5s-43.432129,-77.499992 -97,-77.499992l0,0zm6.808472,121.320793l-13.640625,0l0,-13.939972l13.640625,0l0,13.939972zm0,-28.835449l0,4.616699l-13.640625,0l0,-5.681c0,-17.128143 18.282227,-19.843292 18.282227,-32.0047c0,-5.548553 -4.641602,-9.810486 -10.751465,-9.810486c-6.322998,0 -11.864502,4.962006 -11.864502,4.962006l-7.767578,-10.278778c0,0 7.64917,-8.509674 20.851685,-8.509674c12.539429,0 24.178955,8.268433 24.178955,22.203674c0.011841,19.512177 -19.288696,21.754303 -19.288696,34.502258l0,0z" fill-opacity="null" stroke-opacity="null" stroke-width="2px" stroke="url(#svg_1)" fill="none"/>
  <path stroke="url(#svg_1)" d="m391.059326,249.533829c-1.850677,-0.529022 -5.889709,-1.547089 -10.204865,-1.029709c-2.538818,0.304382 -8.139893,-0.542725 -5.95285,2.059418c9.590881,11.411133 25.789551,24.438324 30.614624,31.921143c1.170227,1.81485 -8.88797,-0.104462 -24.661774,-20.594269c-5.470367,-7.105881 -1.089355,-5.078613 17.858521,13.386292c7.04245,6.862915 -5.95285,-2.059448 -27.212982,-20.594299l3.401611,2.059418l3.401642,2.059448l0.850403,-1.029724" id="svg_27" fill-opacity="null" stroke-opacity="null" stroke-width="2px" fill="none"/>
  <path d="m407.5,280.5c1,0 2,0 1,0c-1,0 -2.07843,0.210144 -5,-1c-4.131714,-1.711426 -4.369659,-0.437134 3,4c1.915649,1.153381 0.995148,0.901459 0,1c-15.222626,1.507324 -31.37439,17.183594 -36,10c-0.765625,-1.189026 2.116608,-1.533447 23,-7c7.042816,-1.843567 -6.579681,4.484314 -29,7c-4.968811,0.557526 -4.099304,-0.468536 9,-3c31.799927,-6.145355 36.922424,-6.483093 23,-4c-28.190796,5.027863 -34.994019,6.890869 -34,7c9.16449,1.006012 41.009766,3.790253 40,11c-0.138702,0.990326 -13.548492,-11.74353 -21,-5c-0.741455,0.671021 6,3 14,7c2,1 1.961243,1.724304 1,2c-9.06839,2.600769 -10,6 -8,5c2,-1 -11.473297,13.706329 -15,8c-5.257324,-8.5065 13,-9 4,-3l-2,1l16,-7l-11,3" id="svg_28" fill-opacity="null" stroke-opacity="null" stroke-width="2px" stroke="url(#svg_1)" fill="none"/>
  <path d="m451.5,306.5c1,0 1.020203,-0.955811 12,-6c28.052063,-12.887299 31.606323,-13.971741 22,-9c-12.369873,6.402039 -20.807312,9.575989 -32,13c-3.942749,1.206146 -2.977325,1.2117 -2,1c11.809174,-2.557983 50.069336,-14.207825 48,-22c-0.256653,-0.966492 -2,0 -3,1l-1,0l-2,0" id="svg_29" fill-opacity="null" stroke-opacity="null" stroke-width="2px" stroke="url(#svg_1)" fill="none"/>
  <path d="m456.5,264.5c1,0 2.044922,-0.902344 13,-6c21.088135,-9.81279 30,-15 33,-16c3,-1 1.963715,-0.733063 1,-1c-5.619385,-1.556473 -13.693451,-12.541199 -15,-12c-0.923889,0.38269 12.955688,7.970917 11,11c-5.117065,7.925629 -22.615417,-14.788208 -22,-14c2.537415,3.249847 7.561432,-0.262924 29,-7c3.933472,-1.236084 -22.543335,22.870712 -27,8c-5.44696,-18.175003 34,-10 19,-6l0,1" id="svg_30" fill-opacity="null" stroke-opacity="null" stroke-width="2px" stroke="url(#svg_1)" fill="none"/>
  <path d="m447.5,307.5c-1,0 -3.7435,-0.796997 -3,-2c1.662506,-2.690002 21.344452,3.880188 49,13c8.114197,2.675781 6.979889,3.717163 5,4c-24.748749,3.535522 -32.790131,12.977722 -33,12c-4.602478,-21.443359 27.078064,-7.700775 -3,5c-2.913208,1.230133 15.805542,-7.837616 15,-9c-13.764893,-19.862732 -25.879547,10.200012 -10,13c35.357208,6.234436 6.969177,-29.847809 1,5c-3.443542,20.103271 34.186707,7.996124 2,10c-4.990326,0.310699 25,-5 3,0l-19,5l34,-10l-8,4" id="svg_31" fill-opacity="null" stroke-opacity="null" stroke-width="2px" stroke="url(#svg_1)" fill="none"/>
  <path d="m238.5,288.5c-1,-1 -9.718903,1.158264 -7,-4c12.310379,-23.35498 -8.653809,-1.705475 -7,-4c10.45961,-14.511932 21,11 17,9c-6,-3 -10.21167,-5.714111 -13,-8c-1.093674,-0.896606 0.018051,-1.189117 1,-1c5.287994,1.018372 8.372009,4.385101 12,7c3.441803,2.480713 5,4 6,4l1,-1l1,-1" id="svg_32" fill-opacity="null" stroke-opacity="null" stroke-width="2px" stroke="url(#svg_1)" fill="none"/>
  <path d="m283.5,278.5c-1,0 -1.806244,-0.099854 -6,-8c-8.607422,-16.214569 -19.508545,-2.230072 -1,1c2.786316,0.486267 -9.689789,-22.281006 -7,-19c9.143524,11.15329 3,4 -2,-6l2,3" id="svg_33" fill-opacity="null" stroke-opacity="null" stroke-width="2px" stroke="url(#svg_1)" fill="none"/>
  <path d="m321.5,284.5c0,-1 0.307465,-2.669678 10,-12c16.880463,-16.249634 -30.477264,-3.471375 -17,12c13.541138,15.544678 37,-29 7,-6l16,-15" id="svg_34" fill-opacity="null" stroke-opacity="null" stroke-width="2px" stroke="url(#svg_1)" fill="none"/>
  <path d="m713.5,273.5c0,-1 -0.42334,-1.428253 -6,-6c-5.468384,-4.482971 5.560486,11.028992 10,6c11.930786,-13.515015 -6,-10 2,-4l-4,-10l0,-1" id="svg_35" fill-opacity="null" stroke-opacity="null" stroke-width="2px" stroke="url(#svg_1)" fill="none"/>
  <path d="m768.5,258.5c-1,0 -3.84021,-0.39798 -4,-4c-0.555237,-12.517654 -7.51123,0.04982 -1,4c12.151367,7.371887 13,-17 8,-4l9,-12l5,-6" id="svg_36" fill-opacity="null" stroke-opacity="null" stroke-width="2px" stroke="url(#svg_1)" fill="none"/>
  <path d="m794.5,290.5c-1,1 -6.07843,3.789856 -9,5c-6.197571,2.567108 24.261902,-8.20993 22,-6c-29.186584,28.515686 14.033875,37.201172 7,1c-3.48053,-17.9133 -36,6 5,-3l-20,6" id="svg_37" fill-opacity="null" stroke-opacity="null" stroke-width="2px" stroke="url(#svg_1)" fill="none"/>
  <path d="m519.5,445.5c2,0 2.959229,-0.17514 13,9c15.69458,14.341553 11.716553,42.206879 22,56c6.815002,9.140869 1.994934,29.574463 1,58c-0.985046,28.143005 16.245178,50.03656 21,72c3.392029,15.668274 -7,39 -1,39c4,0 -3.40271,-23.713379 -6,-40c-2.210388,-13.860535 -6.095093,-22.919617 -12,-30c-8.897827,-10.669067 -18.664917,-26.454529 -23,-37c-8.81897,-21.452881 3.366333,-38.821655 4,-49c0.982483,-15.780823 5.312256,-21.136505 3,-26c-4.420715,-9.298248 -2.013977,-16.338226 -4,-22c-2.119507,-6.042175 -2.342529,-17.239563 -7,-29c-5.271912,-13.31192 -8.937988,-18.498291 -15,-19c-7.972748,-0.659851 -17.847534,13.071136 -16,30c2.746796,25.168549 -13.989929,42.539001 -8,57c6.050751,14.607788 18.012512,15.908569 12,37c-4.14859,14.552979 7.668182,21.380493 3,38c-6.678894,23.777954 -5.210266,29.956665 -5,41c0.362213,19.022827 3.062225,33.995667 4,48c1.071106,15.995422 3.364288,25.938293 3,33c-0.212402,4.117615 -0.773499,1.751038 -4,-11c-3.646759,-14.411865 -4.898041,-22.172424 -7,-32c-1.984222,-9.277039 -4.498291,-17.937988 -5,-24c-0.74231,-8.96936 -0.2117,-15.03894 -1,-23c-1.004883,-10.148438 -5.480377,-15.635681 -7,-25c-0.320374,-1.974182 5.800659,-6.014771 9,-14c2.629852,-6.563843 -5.308838,-11.385559 -6,-17c-0.712433,-5.787292 7.025513,-12.020508 3,-17c-2.811523,-3.477844 14.026733,-7.581604 15,-21c0.521667,-7.1922 -10.565796,-11.032104 -10,-16c1.509705,-13.255981 -19.483704,-14.862152 -24,-28c-5.252014,-15.277985 23.137848,-38.310699 20,-54c-2.5495,-12.747559 -6.069366,-24.156952 2,-34c2.285889,-2.78833 -0.292908,-5.707092 -1,-5c-2.82843,2.82843 -4.134644,11.023987 -3,17c1.087677,5.728607 -3.507568,10.288452 -23,17c-9.312317,3.20636 1.292999,3.59256 2,13c0.690948,9.193604 -15.247894,12.68631 -5,16c7.846222,2.537109 0.460968,7.781982 -4,15c-1.662506,2.690002 -0.61731,4.076111 -1,5c-0.541199,1.306549 -12.325439,5.632507 -13,12c-0.235565,2.223633 5.725708,3.724274 10,7c3.968597,3.041443 -0.410522,10.531494 -1,20c-0.633667,10.178345 10.993988,19.83551 12,29c1.200287,10.934326 1.995941,20.864807 3,32c0.808258,8.963623 -1.14801,17.980469 -2,25c-1.210907,9.976685 -3.683533,20.07666 -2,32c1.425781,10.0979 1.708557,18.04187 3,26c0.816772,5.033203 2,7 2,7c0,-4 -3.753387,-9.774658 -7,-22c-2.617523,-9.856384 -1.501709,-15.937988 -1,-22c0.412415,-4.982971 0.498291,-8.937988 1,-15c0.412415,-4.982971 -1,-10 -6,-15c-2,-2 0,-7 3,-13c1,-2 1,-9 -1,-14c-2,-5 -3.640717,-9.051636 -3,-13c1.013092,-6.242859 3.320374,-9.025818 3,-11c-0.506531,-3.12146 -6.432831,-8.651062 -12,-16c-4.35437,-5.747986 0.513824,-13.521393 7,-21c3.276001,-3.777283 -1.15686,-5.579712 -7,-8c-4.131714,-1.711426 3.469666,-8.575012 17,-24c5.672607,-6.466949 -2.298706,-6.821075 -4,-10c-2.359283,-4.408386 4.374756,-10.808044 7,-19c0.610352,-1.904602 -3.868286,-4.288574 -8,-6c-2.92157,-1.210144 -4,-3 -4,-6c0,-2 0.38269,-0.923889 0,0c-2.164795,5.226257 -5.395966,5.773468 -4,6c2.207184,0.358185 3.059723,-2.340424 4,-2c7.34375,2.658813 21.123108,16.876892 17,21c-8.246216,8.246216 -30.556488,-10.380615 -29,-16c0.266937,-0.963715 9.410034,3.274567 24,12c3.094391,1.850586 -6.154297,-0.186432 -18,-9c-4.538452,-3.37674 -3.78717,-0.901978 7,6c11.301117,7.230835 10.247772,2.677124 -4,-8c-6.883881,-5.158691 -6.417297,-4.162506 7,2c12.657196,5.813385 14,6 0,-1c-12,-6 -1.402374,4.893982 3,-11c1.887512,-6.814484 -18.227905,5.839691 -7,-13c4.85675,-8.149353 -7.514618,11.013031 3,-6c3.526703,-5.706329 7.714447,8.092194 3,-7c-0.298157,-0.954498 13.825684,1.92514 5,-4c-1.856506,-1.246368 5.309937,1.534912 -5,-5c-6.80957,-4.316223 10,1 -4,-3l-12,-4l0,-1" id="svg_39" fill-opacity="null" stroke-opacity="null" stroke-width="2px" stroke="url(#svg_1)" fill="none"/>
 </g>
</svg>