<?xml version="1.0"?>
<svg width="600" height="600" xmlns="http://www.w3.org/2000/svg">
 <!-- Created with Method Draw - http://github.com/duopixel/Method-Draw/ -->
 <g>
  <title>background</title>
  <rect fill="#fff" id="canvas_background" height="602" width="602" y="-1" x="-1"/>
  <g display="none" overflow="visible" y="0" x="0" height="100%" width="100%" id="canvasGrid">
   <rect fill="url(#gridpattern)" stroke-width="0" y="0" x="0" height="100%" width="100%"/>
  </g>
 </g>
 <g>
  <title>Layer 1</title>
  <path id="svg_7" fill-opacity="null" stroke-opacity="null" stroke-width="null" stroke="#28d4b3" fill="none"/>
  <path id="svg_13" fill-opacity="null" stroke-opacity="null" stroke-width="null" stroke="#28d4b3" fill="none"/>
  <polyline stroke-linecap="round" id="svg_38" points="102.5,302.5 " opacity="0.5" fill-opacity="null" stroke-opacity="null" stroke-width="null" stroke="#28d4b3" fill="none"/>
  <path stroke="#28d4b3" d="m146.132629,286.211334c0.934555,0 2.011383,0.820618 3.738205,0c1.221054,-0.580261 3.464493,-1.3862 2.803665,-2.144348c-0.660828,-0.758118 -1.86911,0 -2.803665,0c-0.934555,0 -1.869095,0 -2.80365,0c-1.86911,0 -3.738205,0 -6.54187,0c-3.738205,0 -6.377136,-0.521332 -8.410965,-1.072144c-3.638199,-0.985321 -5.648911,-0.856262 -10.28006,-2.144348c-6.612099,-1.83905 -11.238182,-3.089264 -15.887383,-4.288635c-3.759377,-0.969849 -5.998756,-1.521271 -7.47641,-3.216522c-1.477654,-1.695221 -1.149269,-4.317352 -0.934555,-5.360809c0.480118,-2.333282 2.803658,-3.216492 4.67276,-5.36084c0.934555,-1.072144 1.208275,-2.458313 1.869102,-3.216492c0.660828,-0.758118 1.581779,-1.271576 2.803658,-3.216492c0.772781,-1.230042 2.042931,-1.814697 3.738205,-3.216492c1.072182,-0.886566 1.208275,-1.3862 1.869102,-2.144318c0.660828,-0.758148 1.208275,-0.314026 1.869102,-1.072174c0.660835,-0.758148 0.660835,-0.314026 0,-1.072174c-0.660828,-0.758118 -0.648048,-1.564056 -1.869102,-2.144318c-0.863411,-0.410309 -2.666023,-1.257751 -3.738205,-2.144333c-3.390533,-2.803604 -6.41877,-3.525909 -10.280067,-5.360825c-2.730354,-1.29747 -5.545761,-2.299026 -7.47641,-3.216492c-2.730354,-1.29747 -4.886635,-2.92659 -9.34552,-7.505157c-3.939209,-4.044922 -5.674538,-7.455063 -7.47641,-10.721649c-2.914024,-5.282791 -4.826431,-8.51236 -4.67276,-17.154633c0.115936,-6.52037 1.846359,-12.885681 4.67276,-17.154648c9.271263,-14.00325 18.092903,-25.3125 25.232895,-33.237106c9.546272,-10.595322 19.941139,-19.964355 25.232887,-25.731949c3.387695,-3.692337 8.617065,-8.396423 12.14917,-13.938148c1.988907,-3.120506 5.565414,-5.949615 6.54187,-9.649483c0.270813,-1.026161 -0.337646,-3.691444 1.869095,-5.360825c4.201523,-3.178421 14.097183,-4.851852 20.560135,-6.432991c6.654037,-1.627884 14.163544,-2.205887 22.429245,-4.288658c2.886505,-0.727341 6.54187,-2.144333 11.214615,-2.144333c3.73822,0 13.065384,1.309196 22.429245,2.144333c16.797195,1.498085 26.128647,3.751755 34.578415,4.288658c4.665619,0.296455 12.14917,0 14.95282,0c5.6073,0 11.231079,-0.532036 17.7565,0c6.591644,0.53743 14.12326,1.658691 18.69101,3.216492c4.824097,1.645226 16.18869,8.033508 25.23291,15.010307c3.877655,2.991287 9.786926,8.011543 14.01828,12.865982c4.231354,4.854431 6.676697,9.578873 7.47641,11.793808c1.13092,3.132416 1.292175,5.442444 0.93454,6.432999c-1.011566,2.801697 -6.387695,7.626617 -10.28006,13.938141c-2.698853,4.376251 -5.136505,8.478455 -5.6073,12.865982c-0.456757,4.256531 -1.363342,7.176468 -1.86911,8.577316c-0.715302,1.98111 -0.719818,3.245178 -0.93457,4.288651c-0.480103,2.333313 -2.726654,4.703461 -3.73819,7.505157c-0.715302,1.98111 -1.578705,4.374695 -0.93457,7.505157c0.480133,2.333298 2.257782,4.032501 3.73822,7.505157c1.298401,3.045731 3.482635,5.277527 2.80365,8.577316c-0.30365,1.475723 -1.811279,3.300751 -6.54187,7.505157c-3.69397,3.283096 -7.548279,4.000717 -11.2146,5.360825c-4.788605,1.776413 -6.715698,1.814697 -8.41098,3.216492c-1.072174,0.886581 -1.807556,1.226868 -3.73819,2.144333c-2.730377,1.29747 -6.54187,3.216492 -8.41098,4.288651c-3.73819,2.144333 -5.881042,3.530533 -6.54187,4.288666c-0.660797,0.758133 0,2.144333 0.93457,2.144333c0.93454,0 3.73819,0 7.47641,0c4.67276,0 11.231079,-0.540146 17.75647,-1.072174c6.591675,-0.53743 18.613403,-4.287018 35.51297,-5.360825c10.264343,-0.652206 17.780609,0.728699 19.62558,1.072174c2.917145,0.543091 4.67276,1.072159 5.60733,2.144333c1.86908,2.144318 1.377777,3.376617 1.86908,4.288651c1.098633,2.039383 1.695282,1.814697 0,3.216492c-1.072174,0.886581 -6.451447,4.696533 -16.82193,7.505157c-4.637817,1.256042 -8.41095,2.144318 -11.2146,2.144318c-1.86911,0 -2.638947,0.521362 -4.67276,1.072174c-1.819122,0.492676 -2.874786,0.661865 -3.73822,1.072174c-2.442108,1.160492 -3.307098,3.866699 -5.6073,5.360809c-3.353088,2.17807 -5.329437,2.724762 -8.41098,4.288666c-3.523834,1.788422 -8.377167,4.412903 -11.2146,5.36084c-3.699585,1.235962 -5.573517,2.268555 -8.41098,3.216492c-3.699585,1.235962 -7.586792,2.546814 -14.01828,4.288666c-2.876251,0.778961 -10.193878,1.604187 -14.01825,2.144318c-2.782654,0.393005 -8.41098,2.144318 -13.08374,2.144318c-4.67276,0 -9.34552,0 -13.08371,0c-4.67276,0 -7.489166,-0.353729 -11.21463,0c-5.665283,0.537933 -9.36908,0.944946 -14.01828,2.144348c-3.759369,0.969849 -5.6073,2.144318 -8.410965,2.144318c-2.80365,0 -5.225449,-0.839874 -10.28006,2.144348c-1.175186,0.693817 -3.788208,1.651642 -5.607315,2.144318c-2.033813,0.550812 -4.67276,1.072174 -7.47641,1.072174c-3.738205,0 -6.541855,0 -10.280075,0c-1.869095,0 -4.672745,0 -9.345505,-1.072174c-4.67276,-1.072174 -7.524689,-1.457367 -11.21463,-2.144318c-2.917145,-0.543091 -6.377136,-1.593536 -8.410965,-2.144348c-1.819107,-0.492645 -3.738205,0 -5.6073,0c-1.86911,0 -5.607315,-1.072174 -6.54187,-1.072174c-1.869095,0 -2.80365,0 -4.67276,0c-0.93454,0 -1.869095,0 -2.80365,0c-0.934555,0 -1.208267,-0.314026 -1.86911,-1.072144c-0.660828,-0.758118 -1.005692,-0.661865 -1.869095,-1.072174c-1.221054,-0.580261 -2.260544,-1.52124 -3.738205,-3.216492c-1.477676,-1.695251 -4.535126,-2.329926 -5.607315,-3.216492c-1.695267,-1.401825 -3.738205,-2.144348 -4.67276,-3.216492c-1.86911,-2.144348 -1.86911,-4.288666 -1.86911,-6.432983c0,-3.216522 0.505127,-5.418182 0.93457,-7.505157c0.480103,-2.333313 1.045258,-3.420502 -1.86911,-5.36084c-1.807419,-1.203339 -2.517151,-2.63623 -3.738205,-3.216492c-0.863419,-0.410309 -1.205376,-1.118164 -0.934555,-2.144318c0.976448,-3.69989 15.913071,-6.055054 14.95282,-10.721664c-0.429413,-2.08696 -1.905304,-0.556931 -4.67276,-1.072159c-2.917145,-0.543106 -7.47641,-1.072159 -9.345505,-1.072159c-0.934555,0 -3.133118,-3.072311 6.541855,-6.432999c0.894455,-0.310684 1.481003,-1.274536 0.934555,-2.144333c-3.456009,-5.501007 -9.345512,-2.144318 -18.691032,-2.144318c-8.410965,0 -13.231598,-0.943436 -13.083725,-5.360825c0.113419,-3.387985 3.464485,-4.602692 2.803658,-5.360825c-1.321655,-1.516281 -2.572937,-0.356705 -3.738205,-1.072174c-4.201439,-2.579636 -9.34552,-2.144333 -14.952827,-5.360825c-3.738205,-2.144333 -5.565414,-2.733109 -6.541862,-6.432983c-0.541634,-2.052322 -0.137634,-4.474243 0.934555,-5.360825c6.781075,-5.607224 13.965385,-8.735718 18.691032,-10.721649c2.774986,-1.166183 5.664627,-1.956284 11.214615,-4.288666c9.451294,-3.971878 13.083725,-7.505157 14.952827,-9.649475c0.934555,-1.072174 2.649521,-3.337967 6.54187,-9.64949c2.698853,-4.376251 3.73819,-6.432983 3.73819,-8.577316c0,-2.144333 -0.363861,-3.387268 0.93457,-6.432983c1.480423,-3.472672 2.042923,-5.031189 3.73819,-6.432999c2.144363,-1.773148 6.060013,-1.87117 24.298355,-10.721649c3.849258,-1.86792 5.101532,-2.887802 5.6073,-4.288651c0.715286,-1.98111 -0.161758,-3.058594 -0.93454,-4.288666c-1.221878,-1.944901 -0.547455,-3.844551 -1.86911,-5.360825c-0.660828,-0.758133 -0.934555,-1.072166 -0.934555,-2.144333c0,-3.216492 1.377792,-14.098267 1.86911,-15.010307c1.098633,-2.039383 2.80365,-2.144325 4.67276,-2.144325c0.93454,0 2.851913,-0.385201 6.541855,-1.072166c2.91716,-0.543091 0.934555,-1.072166 0,-1.072166c-0.934555,0 -1.869095,0 -1.869095,1.072166c0,1.072166 2.047363,0.452621 5.6073,2.144325c5.034531,2.392441 6.086746,3.853355 7.47641,6.432991c1.553711,2.884117 -0.93454,4.947868 -0.93454,10.721649c0,5.773781 3.676651,7.659874 5.6073,8.577324c2.730362,1.29747 5.030411,2.225952 4.67276,3.216492c-0.505768,1.400848 -5.160736,5.180466 -11.214615,8.577316c-5.309601,2.979233 -14.159256,4.157257 -18.69104,10.721649c-2.594879,3.758759 -2.702438,5.570709 -9.345505,9.64949c-5.527374,3.393738 -10.065704,6.71106 -12.149185,8.577316c-4.295181,3.847397 -12.5448,11.180786 -17.756485,16.082474c-1.022095,0.961288 -5.019791,8.305786 -7.476402,12.865982c-2.197266,4.078751 -1.944786,5.475555 -2.803658,9.649475c-0.480118,2.333313 0.007004,4.157669 0.934555,4.288666c3.824387,0.540115 7.454697,2.306351 13.083725,3.216492c24.2202,3.916107 26.552551,3.18277 29.905655,5.360825c1.150101,0.747055 1.869095,1.072159 1.869095,2.144333c0,1.072159 -4.596405,7.625381 -8.410965,10.721649c-2.750717,2.232758 -3.068069,3.650681 -1.869095,4.288651c20.417831,10.864197 8.387268,5.348801 4.67276,15.010315c-1.192673,3.102112 2.513245,4.374695 1.869095,7.505157c-0.480118,2.333313 -1.01651,3.249359 0,6.432983c1.731033,5.421478 3.887054,7.087708 6.54187,8.577332c3.026932,1.698425 3.529205,3.654938 8.410965,6.432983c4.50853,2.565674 6.633331,4.100403 8.410965,5.360809c3.179901,2.2547 5.657303,0.579498 7.47641,1.072174c4.067642,1.101654 6.541855,3.216492 8.410965,4.288666c1.869095,1.072174 2.80365,1.072174 4.67276,1.072174c1.869095,0 4.55925,0.529053 7.47641,1.072144c2.767441,0.515259 3.738205,0 6.541855,0c0.934555,0 1.595383,0.758118 0.934555,0c-0.660828,-0.758118 -1.893234,0.343506 -3.738205,0c-2.917145,-0.543091 -8.22934,-2.625061 -12.14917,-4.288666c-3.613922,-1.533691 -8.546616,-2.071686 -12.14917,-3.216492c-5.251587,-1.668793 -10.078018,-4.739044 -13.083725,-7.505157c-1.630081,-1.500122 -2.977493,-3.958984 -4.67276,-5.360809c-2.144363,-1.773163 -3.264816,-3.086304 -3.738205,-6.432983c-0.299393,-2.116669 0.886444,-4.608917 1.869095,-6.432983c1.098633,-2.039398 2.355225,-2.491364 3.73822,-4.288666c2.229996,-2.898071 5.496567,-3.420502 8.410965,-5.360825c1.807404,-1.203339 4.821594,-1.726883 7.47641,-3.216507c3.026932,-1.698425 4.846588,-2.886856 6.541855,-4.288651c2.144363,-1.773163 4.67276,-4.288666 5.607315,-5.360825c1.869095,-2.144333 3.232422,-2.887817 3.738205,-4.288666c0.357651,-0.99054 0.164719,-2.665665 -1.86911,-3.216492c-1.819107,-0.492661 -3.773209,-0.41716 -8.410965,-1.072159c-3.824371,-0.540131 -8.3965,-1.158752 -13.08371,-2.144333c-5.591522,-1.175735 -7.549713,-1.919022 -10.280075,-3.216492c-1.930649,-0.917465 -3.912033,-0.742538 -5.607315,-2.144333c-2.144363,-1.773163 -2.298523,-3.273849 -1.869095,-5.360825c0.480118,-2.333313 1.645813,-4.734573 4.67276,-6.432999c2.6548,-1.489609 5.442581,-3.737823 7.47641,-4.288651c2.728653,-0.738998 1.869095,0 0,0c-0.934555,0 -3.822678,1.202194 -10.280075,0c-2.917145,-0.543106 -8.98201,-0.995041 -11.214615,-3.216492c-1.578674,-1.570801 0.720184,-5.638901 2.80365,-7.505157c4.295197,-3.847397 8.361404,-5.520554 18.69104,-9.64949c5.581543,-2.231033 12.919647,-3.321442 14.01828,-5.360825c0.491318,-0.912033 -0.873016,-1.226868 -2.803665,-2.144333c-2.730362,-1.29747 -5.6073,-2.144318 -7.47641,-2.144318c-0.934555,0 0.00235,-0.996155 0.934555,-1.072174c6.59166,-0.53743 16.872833,-2.866379 23.363785,-4.288651c23.600647,-5.171326 29.550537,-7.156693 34.578415,-10.721649c2.248535,-1.594315 4.011932,-3.530533 4.67276,-4.288666c0.660828,-0.758133 -0.660828,-2.458359 0,-3.216492c0.660828,-0.758133 0.934555,-1.072159 0.934555,-2.144333c0,-1.072159 -0.659286,-2.515503 -2.803665,-4.288651c-1.695267,-1.40181 -4.027924,-1.434021 -6.541855,-3.216507c-2.248535,-1.594299 -3.548492,-3.491501 -4.67276,-4.288651c-2.513931,-1.782486 -2.943237,-1.580673 -3.738205,-2.144333c-1.777634,-1.260406 -1.325989,-3.665573 -2.80365,-5.360825c-1.477676,-1.695236 -5.319992,-4.488083 -6.54187,-6.432983c-0.772781,-1.230072 -2.80365,-3.216499 -3.738205,-4.288666c-0.934555,-1.072166 -2.260544,-1.521255 -3.738205,-3.216492c-1.477661,-1.695244 -1.593842,-3.587669 -3.738205,-5.360825c-1.695282,-1.401802 -1.026031,-3.028259 -2.803665,-4.288666c-0.794968,-0.563667 -1.208267,-0.314026 -1.869095,-1.072159c-0.660828,-0.758141 0,-3.216499 -0.934555,-4.288666c-0.934555,-1.072159 -0.934555,-2.144325 -0.934555,-3.216492c0,-1.072166 0.273727,-1.386192 0.934555,-2.144333c0.660828,-0.758133 1.005692,-0.661865 1.86911,-1.072159c1.221054,-0.580261 1.869095,-1.072166 2.80365,-1.072166c0.934555,0 0.934555,1.072166 1.86911,1.072166c0.93454,0 1.731476,0.185585 2.80365,1.072159c1.695267,1.401802 3.809341,1.734032 4.67276,2.144333c1.221054,0.580254 1.582596,1.564072 2.80365,2.144333c0.863403,0.410294 2.638931,1.593513 4.67276,2.144325c0.909561,0.24633 2.977493,1.814697 4.67276,3.216499c1.072174,0.886574 4.562027,4.492668 7.47641,6.432983c3.614838,2.40667 5.80513,2.909988 8.410965,5.360825c1.022095,0.961304 3.766876,2.050308 6.54187,3.216499c4.725662,1.985939 7.294785,3.697258 11.214615,5.360817c3.613892,1.533737 6.504639,2.234375 8.41095,3.216507c4.591064,2.365265 7.547546,2.806183 8.41098,3.216492c1.221039,0.580246 1.581757,2.34375 2.80365,4.288651c0.772797,1.230057 1.149292,3.245178 0.93454,4.288666c-0.480103,2.333298 -3.958191,4.005371 -10.28006,10.721649c-1.939453,2.060455 -3.232422,5.032135 -3.73819,6.432983c-0.357666,0.990555 -2.083008,2.926605 -6.54187,7.505157c-0.984802,1.011246 -4.611206,3.371201 -6.54187,4.288666c-2.730347,1.29747 -6.623566,1.923386 -11.214615,4.288651c-1.906326,0.982117 -3.232422,1.815643 -3.738205,3.216492c-0.357651,0.990555 0.946609,0.900421 1.86911,1.072174c2.917145,0.543106 5.554413,1.23056 10.28006,3.216492c2.774994,1.166183 5.101532,1.815643 5.60733,3.216492c0.715271,1.98111 -2.80368,4.288666 -7.476425,7.505157c-4.67276,3.216492 -10.361786,6.212051 -14.952835,8.577316c-1.906326,0.982117 -2.80365,2.144333 -2.80365,3.216492c0,1.072174 0.934555,2.144333 1.869095,2.144333c0.934555,0 3.762344,0.728699 5.607315,1.072174c2.917145,0.543091 5.395599,1.719803 5.607315,3.216492c0.334732,2.366486 -2.878143,3.053482 -6.54187,5.360825c-4.776917,3.008392 -9.543335,6.12648 -12.14917,8.577316c-2.044189,1.922607 -3.464478,3.530518 -2.80365,4.288666c0.660828,0.758133 1.869095,0 2.80365,0c2.80365,0 5.607315,0 9.34552,0c1.869095,0 4.508041,1.593506 6.541855,2.144318c0.909561,0.246338 1.425873,1.2323 0.934555,2.144333c-1.098633,2.039383 -4.397491,2.515503 -6.541855,4.288666c-1.695282,1.401794 -5.607315,3.216492 -7.476425,4.288651c-1.869095,1.072174 -5.565414,2.733109 -6.541855,6.432999c-0.270813,1.026154 -0.357651,3.298096 0,4.288666c0.505783,1.400848 1.258087,1.828522 2.80365,4.288635c1.221878,1.944916 1.326004,4.737762 2.803665,6.433014c1.477661,1.695251 2.876953,1.919006 5.6073,3.216492c1.930649,0.91745 3.462952,2.515503 5.607315,4.288666c1.695267,1.401794 3.738205,2.144318 3.738205,4.288635c0,1.072174 0,3.216492 -0.934555,4.288666c-0.93454,1.072174 -1.511459,1.153778 -1.869095,2.144348c-0.505783,1.400818 -3.464493,1.3862 -2.803665,2.144318c0.660828,0.758118 1.86911,-1.072174 2.803665,-1.072174c1.869095,0 6.541855,-1.072144 10.28006,-2.144318c3.738205,-1.072174 7.695114,-2.672852 12.149185,-5.36084c2.982147,-1.799683 3.73819,-3.216492 3.73819,-5.360809c0,-2.144348 -0.025024,-2.970154 -0.93454,-3.216492c-2.033813,-0.550812 -4.67276,-1.072174 -8.41095,-2.144348c-3.73822,-1.072144 -7.013123,-1.110229 -11.214645,-4.288635c-2.206741,-1.669403 -3.738205,-5.36084 -3.738205,-7.505157c0,-1.072174 0.974655,-1.833649 1.86911,-2.144333c3.224991,-1.120239 6.688461,-3.838028 12.14917,-6.432999c3.861298,-1.834915 7.824066,-1.485062 11.21463,-4.288651c2.144348,-1.773163 2.06958,-3.918777 -2.80368,-5.360825c-7.295807,-2.158936 -10.208893,-0.661865 -9.34549,-1.072174c1.221039,-0.580246 2.873535,-0.809097 9.34549,-3.216492c10.405396,-3.870514 19.019501,-6.80983 26.16745,-15.010315c2.38266,-2.73349 2.442108,-5.272476 0,-6.432983c-7.770691,-3.692703 -14.01825,0 -20.56012,0c-1.86911,0 -3.73822,0 -3.73822,-1.072159c0,-1.072174 1.628784,-2.513779 6.54187,-6.432999c4.47406,-3.569 8.937988,-4.682938 12.14917,-8.577316c2.315613,-2.808273 3.485504,-4.534027 7.47641,-9.64949c1.762909,-2.259628 3.264832,-4.158447 3.73822,-7.505142c0.299408,-2.116653 2.045135,-7.444763 2.80365,-10.721649c1.223083,-5.283859 2.257965,-7.53624 1.86911,-10.721649c-0.943695,-7.730042 -2.675873,-11.951218 -4.67276,-13.938141c-3.53006,-3.512436 -7.538116,-5.22966 -9.34552,-6.432999c-2.914368,-1.940323 -4.67276,-3.216492 -8.41098,-5.360825c-3.73819,-2.144333 -8.41095,-4.288651 -10.28006,-5.360825c-1.86911,-1.072166 -4.562042,-2.348335 -7.47641,-4.288658c-1.807434,-1.203339 -8.226318,-4.752785 -14.01828,-7.50515c-2.730362,-1.297485 -5.632309,-1.898003 -6.541855,-2.144333c-2.033829,-0.550812 -3.573486,-2.66568 -5.607315,-3.216492c-1.819107,-0.492668 -2.517151,-1.564079 -3.738205,-2.144333c-0.863403,-0.410301 -0.934555,-1.072166 0,-1.072166c0.934555,0 1.878662,-0.265297 4.67276,0c5.665283,0.537918 8.402039,1.168701 16.821945,2.144333c10.270172,1.190025 18.721222,1.374039 26.167419,2.144325c10.406403,1.076523 17.839722,2.78466 27.10202,5.360825c6.612091,1.839066 13.332306,2.293373 20.56012,5.360825c5.879761,2.495346 12.348114,6.515991 14.95282,11.793823c1.898529,3.846832 1.077332,7.549454 0,11.793808c-0.826263,3.255264 -2.516296,7.704575 -3.73819,9.64949c-2.318359,3.69017 -5.954987,6.845871 -9.34552,9.649475c-3.216553,2.659729 -6.665253,5.09848 -10.28006,7.505157c-2.914368,1.940323 -5.793213,3.787277 -8.41098,5.360825c-4.139038,2.487991 -5.443237,3.321442 -6.54187,5.360825c-0.491302,0.912033 -0.660797,2.458359 0,3.216492c1.982483,2.274414 7.47644,2.144333 11.21463,4.288666c3.73822,2.144318 7.905182,3.959961 8.41098,5.360825c0.357635,0.99054 -0.173859,1.814682 -1.86911,3.216492c-2.144348,1.773148 -4.549683,3.525909 -8.41098,5.360825c-2.730347,1.29747 -6.377777,1.177109 -7.47641,3.216492c-0.491302,0.912033 0.012085,1.97258 0.93457,2.144333c2.917114,0.543091 5.643494,1.629105 8.41095,2.144333c2.917145,0.543091 5,1.337234 5.6073,4.288651c0.678986,3.299789 -2.780792,4.370712 -5.6073,5.360825c-16.697815,5.849274 -23.748901,7.471436 -27.10199,9.64949c-1.150116,0.747055 -1.292206,2.225952 -0.93457,3.216492c0.505798,1.400848 2.638977,1.593506 4.67276,2.144333c1.819122,0.492661 3.73822,0 6.54187,0c1.86911,0 3.078918,2.515503 0.93454,4.288651c-3.390533,2.803604 -10.043365,5.758972 -14.01825,8.577332c-1.777618,1.260391 -1.86911,3.216492 -1.86911,4.288651c0,1.072174 0.173828,1.814682 1.86911,3.216507c1.072174,0.886566 4.67276,1.072144 7.47641,1.072144c10.28006,0 15.002808,0.579498 16.82193,1.072174c2.033813,0.550812 3.232422,0.743469 3.73819,2.144318c0.357666,0.99057 0.543121,2.593414 -0.93454,4.288666c-1.477661,1.695251 -3.627502,2.348358 -6.54187,4.288666c-3.614807,2.406677 -6.113068,1.815674 -5.6073,3.216492c0.357635,0.99057 0.93454,1.072174 1.86911,1.072174c1.86908,0 4.686737,0.261993 6.54184,0c3.824402,-0.540131 8.482849,-2.928558 12.14917,-4.288666c4.788635,-1.776398 6.269409,-3.937653 12.14917,-6.432983c3.613922,-1.533722 6.31488,-4.274658 12.1492,-5.36084c2.767456,-0.515198 4.672729,-1.072144 5.6073,-1.072144c2.80365,0 4.744629,0.287933 8.41095,-1.072174c4.788605,-1.776413 6.520721,-3.318832 10.28009,-4.288666c4.6492,-1.199387 7.47641,-2.144318 10.28006,-2.144318c0.93454,0 1.86911,0 2.80365,0c0.93454,0 1.797974,0.410294 0.93454,0c-1.221008,-0.580261 -1.835297,-1.196396 -4.672729,-2.144333c-3.699615,-1.235962 -11.263672,-3.06134 -17.7565,-2.144333c-3.824402,0.540131 -7.499969,2.017105 -12.14917,3.216492c-3.759369,0.969833 -5.674408,1.813293 -10.28006,3.216492c-2.856323,0.870239 -5.60733,2.144333 -9.34552,2.144333c-2.80365,0 -5.338165,1.052475 -10.28006,2.144333c-1.835388,0.405518 -3.776825,0.163788 -7.47641,-1.072159c-2.837463,-0.947952 -3.73822,-2.144333 -4.67276,-3.216507l0,1.072174l-0.93457,0l0,2.144333" id="svg_51" fill-opacity="null" stroke-opacity="null" stroke-width="null" fill="none"/>
  <path d="m118.5,275.5c-1,0 0.458801,-0.306549 1,1c0.382683,0.923889 1.385094,2.372009 4,6c2.480713,3.441803 5.558197,7.519287 9,10c5.441971,3.922363 11.229355,3.33197 15,5c3.297333,1.458649 3.638321,5.305389 1,10c-7.348877,13.076477 -15.310898,19.826141 -18,25c-4.542076,8.738983 -5.771927,17.694275 -3,20c5.854965,4.87027 21.003098,2.727478 33,3c22.017029,0.500122 32.006393,6.462616 29,16c-3.669769,11.641846 -18.255966,29.770203 -11,35c17.209045,12.403564 38.962601,0.50061 49,0c4.99379,-0.249054 6.286987,5.103424 4,11c-3.561386,9.182404 -6.971451,20.111511 -5,33c2.017303,13.188263 7.399551,24.911163 19,33c11.744568,8.189331 22.040894,7.989777 34,7c6.062042,-0.501709 11.106995,-1.919006 15,-1c2.176239,0.513733 3.917542,3.056641 6,6c2.887848,4.081696 4.939178,9.02475 7,14c2.914429,7.036072 5.625305,13.413635 10,17c5.57666,4.571777 10,7 15,9c5,2 6.390991,4.769531 10,7c2.690002,1.662537 4.693451,3.458801 6,4c0.923889,0.38269 4,2 4,4l2,0l-2,0l-3,-3" id="svg_53" fill-opacity="null" stroke-opacity="null" stroke-width="null" stroke="#28d4b3" fill="none"/>
  <path d="m341.5,257.5c0,1 0.292908,0.707092 1,0c0.707092,-0.707092 0,0 0,1c0,1 0.716431,3.010071 1,7c0.501251,7.053284 1.487579,12.130432 3,17c2.258942,7.273041 7.917358,11.591553 13,12c26.931702,2.164246 32.493469,-0.121429 33,3c0.640717,3.948364 -3.31076,13.470245 -11,24c-4.605988,6.307526 -11.887421,15.473297 -10,19c3.402618,6.357849 18.012085,5.581818 32,5c12.031189,-0.500427 53.85083,-1.568085 53,6c-1.519531,13.516327 -23.837708,20.188599 -27,36c-1.581146,7.905701 4.851013,13.318604 11,16c15.663513,6.830383 24.158478,7.242798 45,12c15.134918,3.454651 23.486816,14.167419 26,21c4.171204,11.34024 6.747986,17.660156 13,28c5.899536,9.756836 15.232727,15.733246 21,21c4.177124,3.814636 9.778564,9.23172 15,14c5.767273,5.266754 10.714111,12.21167 13,15c2.689758,3.281006 3.75531,5.132019 6,9c1.809692,3.118469 1.674988,7.619995 5,13c0.743469,1.203003 2,3 2,4l0,-1l-1,0" id="svg_55" fill-opacity="null" stroke-opacity="null" stroke-width="null" stroke="#28d4b3" fill="none"/>
  <path d="m318.5,267.5c0,1 0.707092,-0.292908 0,-1c-0.707092,-0.707092 -2.707092,3.292908 -2,4c0.707092,0.707092 5.28714,1.566498 10,5c8.591797,6.25946 5.549866,16.927124 -3,30c-3.671722,5.614136 2.917725,2.906342 20,4c8.22937,0.526855 -14.803345,18.57016 -6,31c8.688751,12.268066 42.810852,-7.46756 46,-1c6.64856,13.483185 -0.796722,35.392792 16,43c12.882507,5.834473 20.399048,3.007965 20,13c-1.000793,25.059906 6.047974,38.297974 22,49c8.549774,5.735962 22.686554,13.188843 37,26c12.645233,11.318024 20.301086,21.411102 27,32c7.27179,11.494385 20,21 32,37l6,14" id="svg_56" fill-opacity="null" stroke-opacity="null" stroke-width="null" stroke="#28d4b3" fill="none"/>
  <path d="m138.5,275.5c-1,1 -0.292892,2.292908 -1,3c-0.707108,0.707092 -1,-1 0,0c1,1 1.868286,2.288574 6,4c5.843124,2.420288 14.161194,5.746399 19,9c4.149246,2.789948 5.762177,10.545105 2,15c-5.948517,7.043793 -16.934357,10.968506 -16,13c1.72287,3.74588 12.034073,0.175201 22,1c6.062042,0.501709 14.418854,2.256592 16,7c1.897369,5.692108 -2.737656,11.237366 -10,19c-3.86467,4.13089 -9.222733,7.723999 -13,11c-2.136749,1.85318 -4.346191,4.705475 -6,7c-2.614899,3.627991 -3.948685,7.153961 -3,10c1.581146,4.743408 4.802429,6.432892 11,9c5.843124,2.420288 13.506592,3.895264 21,8c4.385193,2.4021 5.921844,6.898529 2,10c-6.126114,4.844666 -16.423355,10.428253 -22,15c-3.281006,2.689789 -4.581146,4.418854 -3,6c3.162277,3.162292 8.963943,4.085571 16,7c4.97525,2.060822 14.361664,5.398285 23,11c4.195145,2.720428 12.8591,8.185028 22,15c6.896561,5.141724 13.964386,9.040894 22,16c6.969299,6.035645 13.428253,13.42334 18,19c4.482971,5.468353 7.404022,8.41156 12,12c3.344086,2.610962 5.812653,6.206818 8,8c2.78833,2.285889 5,3 7,5c3,3 6.371338,6.746765 9,11c1.175568,1.9021 2.705475,4.346191 5,6c1.813995,1.307434 3.723999,3.222717 7,7c2.779785,3.205139 5,5 6,6c1,1 3,2 5,7l1,3l1,3l1,-1" id="svg_57" fill-opacity="null" stroke-opacity="null" stroke-width="null" stroke="#28d4b3" fill="none"/>
  <path d="m199.5,283.5c1,0 2,-2 1,-2c-1,0 -0.458801,1.693451 -1,3c-0.38269,0.923889 -0.458801,1.693451 -1,3c-0.765366,1.847748 -0.707108,4.292908 0,5c1.414215,1.414215 5.90242,-3.121307 11,-3c4.121933,0.098083 6.757721,2.374542 4,7c-3.999588,6.708435 -10.726547,10.922302 -10,14c0.649841,2.752777 8.074814,3.480377 16,2c8.106003,-1.51416 14.824432,-4.9021 16,-3c3.154388,5.103912 -5.920898,12.354034 -12,22c-4.768829,7.566925 -6.767441,15.141785 -1,16c8.156403,1.213715 19.800842,-7.419891 30,-12c4.912567,-2.206055 4.880554,-1.100647 -1,6c-8.168274,9.863037 -17.236069,19.291809 -15,26c1.788849,5.366577 15,8 23,8c10,0 17.947784,-2.095062 22,1c1.777008,1.357269 2.496216,8.017609 2,15c-0.501251,7.053284 1.814026,13.54895 7,15c5.857788,1.639038 13.83551,-0.993988 23,-2c5.964172,-0.654694 8,0 9,0c1,0 2.468719,0.621918 4,3c4.62561,7.183594 -1.696411,11.588379 -7,25c-2.236877,5.656525 1.265991,8.860992 9,6c10.48587,-3.878967 23.690979,-11.748383 27,-8c5.335632,6.044098 -7.984833,13.716095 -7,28c0.805115,11.676971 10.80304,18.899811 19,18c8.890869,-0.975983 12.5896,-10.170135 16,-9c2.991119,1.026276 -0.655548,8.760529 4,20c3.291962,7.94751 9.423767,14.219055 19,18c7.670013,3.02832 13.881531,1.809723 17,0c1.93399,-1.122345 4.613831,-1.703003 7,1c4.439514,5.028992 6.162201,11.932678 9,19c3.183685,7.928711 8.480164,17.092773 16,20c8.599274,3.324524 24,4 38,7l13,6l9,8l4,7" id="svg_58" fill-opacity="null" stroke-opacity="null" stroke-width="null" stroke="#28d4b3" fill="none"/>
  <path d="m144.5,284.5c-1,0 -0.307449,-0.186005 1,-2c2.480713,-3.441803 2.026749,-1.229767 3,-1c2.176254,0.513733 2.95517,-3.450836 4,0c1.159134,3.828369 -7.052551,8.017761 -5,14c1.170135,3.4104 13.03186,-4.409668 20,0c4.308731,2.726685 -9.221893,11.614563 -14,25c-2.353302,6.59256 9,8 18,5c3,-1 -5.270309,4.950592 -9,16c-2.896088,8.579773 -2.701309,15.948547 -1,17c1.902115,1.175568 3.896591,-2.093658 3,-1c-4.571762,5.57666 -18.630447,17.235321 -15,26c1.711411,4.131714 14.704071,0.043915 23,-2c7.828171,-1.92865 13.562866,0.630341 18,8c3.460129,5.746948 3.712631,13.764404 10,17c5.4086,2.783356 17.184906,-3.231873 21,0c4.641266,3.931732 -2.4758,16.935883 -2,23c0.24736,3.152588 2.907791,4.496216 7,5c4.96254,0.610931 10.585785,-2.414215 12,-1c0.707108,0.707092 -1,4 -1,10c0,6 1.878555,9.493469 5,10c3.948349,0.640717 8.585785,-2.414215 10,-1c0.707108,0.707092 -2,4 -5,10c-4,8 -8.783356,15.5914 -6,21c1.94136,3.77243 7.35498,5.415588 10,4c3.178925,-1.701294 1.826904,-4.147278 1,-3c-1.307449,1.813995 -4.641373,7.672485 -9,17c-5.89653,12.618652 -9.378525,21.160522 -8,27c0.513748,2.17627 3.310013,3.662537 6,2c3.609009,-2.230469 3.723984,-6.222717 7,-10c1.853195,-2.136719 3.2565,-3.203003 4,-2c1.662506,2.690002 2,7 2,14c0,6 1,9 2,10c1,1 0.823761,4.513733 3,4c0.973236,-0.229736 -0.289795,-2.042908 0,-3c1.04483,-3.450867 6.072937,-9.954895 11,-18c3.045319,-4.972534 6.076111,-10.61731 7,-11c1.306549,-0.541199 -0.981628,4.711975 -2,10c-0.756439,3.927795 -0.083954,5.810608 2,5c6.784882,-2.639221 14.011627,-4.847229 21,-12c6.011627,-6.153076 10.139008,-17.265991 13,-25c1.551605,-4.194336 1.923889,-6.38269 1,-6c-1.306549,0.541199 -5.228851,2.729614 -10,7c-2.107544,1.886353 -4.082489,1.996582 -4,1c0.501709,-6.062042 2,-12 3,-20c1,-8 -0.134644,-12.811462 -3,-15c-2.513092,-1.919495 -8.504242,-0.964478 -13,2c-1.180634,0.778503 -1.256653,-0.033508 -1,-1c2.069336,-7.792175 8.707092,-10.878693 8,-13c-1.414215,-4.242645 -7,-2 -11,-2c-1,0 -2.229767,-0.026764 -2,-1c1.027496,-4.352509 4.579926,-9.783813 2,-13c-2.79834,-3.488464 -8.937958,-1.501709 -15,-1c-1.993195,0.164948 -5,0 -7,-1c-4,-2 -8.498291,-7.937958 -9,-14c-0.329926,-3.986359 0.38269,-9.076111 0,-10c-0.541199,-1.306549 -2.009735,-1.197083 -4,-1c-5.074203,0.502441 -9.585785,3.414215 -11,2c-2.121323,-2.121307 4.735779,-10.235413 11,-17c4.804428,-5.188202 5,-7 4,-7c-3,0 -4.707108,-0.292908 -4,-1c0.707108,-0.707092 6.73909,-6.238861 15,-15c9.701935,-10.289429 15.9021,-15.824432 14,-17c-2.551941,-1.577179 -8,1 -10,1c-1,0 -1.045319,-1.027466 2,-6c4.927063,-8.045105 15.137512,-18.788879 12,-24c-3.262238,-5.418274 -14,-1 -22,1c-4,1 -6.189102,0.981964 -6,0c1.018372,-5.287994 7.920898,-10.354034 14,-20c3.57663,-5.675201 -0.15686,-9.420288 -6,-7c-6.197571,2.567108 -9.852737,7.826904 -11,7c-1.813995,-1.307465 7.457535,-6.977142 12,-15c3.116089,-5.503632 2,-8 2,-9c0,-1 -0.173096,-1.852722 -1,-3c-1.307465,-1.813995 -2,-4 -2,-5c0,-1 -1,-1 -2,0l-1,0" id="svg_59" fill-opacity="null" stroke-opacity="null" stroke-width="null" stroke="#28d4b3" fill="none"/>
  <path d="m215.5,285.5c1,0 1.707108,-0.707092 1,0c-0.707108,0.707092 0.38269,2.076111 0,3c-0.541199,1.306549 -3,3 -3,4c0,1 1.631897,0.286835 5,-1c6.605377,-2.523682 11.869949,0.364105 9,6c-3.903549,7.665649 -8.919479,14.486908 -7,17c2.188553,2.865356 9.802429,0.567108 16,-2c8.764694,-3.630463 14.387787,-3.751526 13,0c-3.198685,8.646881 -14.918915,15.34082 -19,22c-3.979462,6.493378 -3.707062,12.180359 -1,13c4.880234,1.4776 12.587051,-4.731232 21,-9c4.802338,-2.436707 6,-2 1,3c-8,8 -25.139511,23.895721 -29,34c-2.523682,6.605377 4.143448,8.442139 14,5c15.252197,-5.326416 19.823761,-10.486267 22,-11c1.946503,-0.459503 2.855286,3.05246 2,10c-1.007538,8.184418 -3.142487,15.184906 2,19c4.324951,3.208557 11.082642,2.305542 19,0c6.072327,-1.76828 9.488739,-1.970032 9,2c-1.007538,8.184418 -2.382355,19.232361 4,25c5.981659,5.405518 13.293671,4.526703 19,1c4.253265,-2.628662 5.189117,-3.981964 5,-3c-1.018372,5.287994 -4.425323,13.015106 -4,19c0.501251,7.053284 4.876038,11.34314 10,13c3.923096,1.268555 8.498291,-1.937958 9,-8c0.164948,-1.993195 -2.986908,2.757111 -4,9c-0.48056,2.961273 2.651306,7.287018 6,11c3.905212,4.330048 7.126862,11.617157 13,19c4.4021,5.533661 7.914185,9.420441 6,10c-3.450836,1.04483 -6.356842,-6.967896 -6,-5c1.524475,8.406891 4.315704,17.47168 15,28c9.688141,9.546692 14.95517,8.450867 16,5c1.448914,-4.785461 -0.186401,-5.994202 0,-3c0.500977,8.046692 8.105469,12.871582 13,17c9.204559,7.763794 14.106262,15.592896 19,22c3.433685,4.495544 5,5 6,5c2,0 6.474274,0.850647 7,0c1.175568,-1.9021 -10.702515,-5.033813 -26,-20c-18.307953,-17.911438 -17.869263,-34.98056 -16,-48c2.150635,-14.979156 -1.965973,-17.500519 -13,-17c-10.988708,0.498444 -16.33371,0.289368 -17,-6c-0.953979,-9.005005 3.009796,-18.555756 -4,-22c-8.274658,-4.065735 -21.739288,0.448059 -24,-3c-3.335205,-5.086884 13.993225,-20.670074 9,-27c-5.608307,-7.10965 -22.015686,1.173157 -34,0c-7.245483,-0.709259 -6.504364,-7.820068 -2,-21c3.376343,-9.879272 -10.899414,-12.516937 -29,-9c-11.9422,2.320374 -8.062836,0.944366 7,-16c10.504974,-11.817169 0.941589,-20.182465 -11,-19c-10.148407,1.004883 -24.140411,3.641327 -26,-1c-2.262283,-5.646423 12.390472,-18.683167 16,-33c1.222351,-4.848297 -4.100586,-6.612213 -12,-5c-7.133072,1.455811 -11.148056,1.771637 -10,-1c5.411957,-13.065643 22.019073,-18.54071 19,-23c-2.242508,-3.312256 -7,0 -8,0c-1,0 2,-4 3,-6l0,-1l-1,1l-1,0" id="svg_60" fill-opacity="null" stroke-opacity="null" stroke-width="null" stroke="#28d4b3" fill="none"/>
  <path d="m195.5,282.5c0,-1 -1.022202,-1.043213 -3,0c-9.106491,4.803314 -10.329651,4.516083 0,3c6.925797,-1.016479 -15.950943,3.297363 -14,23c0.355286,3.588013 30.637711,-21.277771 37,-13c9.302032,12.10257 -9.087906,21.001709 8,20c10.981155,-0.643738 6.474518,4.517792 4,15c-2.766586,11.719482 31.503784,31.159821 30,10c-0.070892,-0.997498 -22.578506,11.227936 -18,22c3.852554,9.064087 27.47403,-12.376434 34,-5c3.863647,4.367157 -19.055939,16.954376 -15,23c5.044983,7.519836 26.96524,-11.258423 32,-6c6.560883,6.852356 -18.454071,25.542908 -11,35c8.142029,10.329926 33.188477,-10.477814 36,-7c8.050995,9.958984 -16.535553,32.930237 -8,34c19.1633,2.401733 29.553223,-15.064301 24,-6c-5.626465,9.183838 3.106323,17.525726 14,16c7.209747,-1.009766 11.524506,-1.773987 9,10c-3.77951,17.627106 -3,30 8,30l9,-2l0,13l-1,8" id="svg_61" fill-opacity="null" stroke-opacity="null" stroke-width="null" stroke="#28d4b3" fill="none"/>
  <path d="m172.5,286.5c0,-1 -0.693436,-1.541199 -2,-1c-0.923874,0.38269 -2,0 -1,0c1,0 3.030579,-0.244812 12,1c6.025009,0.836182 8.302872,2.496613 2,6c-10.561218,5.870331 -15.692551,9.813995 -17,8c-0.826904,-1.147278 4,-2 5,-2c1,0 3,0 4,0c1,0 4.770554,-0.060608 6,4c1.477615,4.880219 -4.729614,11.228851 -9,16c-0.943176,1.053772 4.050415,1.237335 14,-1c8.045319,-1.809113 15.827209,-3.403625 16,-2c0.712448,5.787262 -11.518295,10.231995 -15,19c-1.881851,4.739044 6.204315,9.421143 18,7c15.48848,-3.179138 28.040329,-15.352661 31,-12c2.386169,2.703003 -8.752594,10.169952 -15,19c-5.775726,8.163391 -5.121445,10.493469 -2,11c5.922531,0.96109 12.750153,-3.537415 16,-1c0.788208,0.615417 -1.473282,3.293671 -5,9c-7.885971,12.759766 -16.72287,19.25412 -15,23c0.934357,2.031494 9.026596,-1.958374 20,-9c17.04155,-10.935516 25.960876,-13.962372 25,-15c-6.264221,-6.764587 -19.562515,17.006378 -28,32c-3.734924,6.637054 3.363937,10.926636 12,7c17.954346,-8.163452 27.528137,-16.881683 28,-16c3.402618,6.357849 -15.374359,14.58902 -19,28c-1.043915,3.861389 9.41748,5.042328 18,1c8.534698,-4.019806 12.499298,-6.840851 11,-3c-4.556274,11.672211 -14.338837,24.755035 -12,28c3.698029,5.130737 13.65625,-4.341187 21,-7c0.940277,-0.340424 -2.690887,6.616669 -8,17c-3.467102,6.780792 0.077484,9.96109 6,9c9.364319,-1.519623 15.415283,-6.811249 16,-6c3.698029,5.130737 -12.632965,19.658142 -8,25c3.931213,4.532715 13.305389,-0.361664 18,-3c4.358826,-2.449615 6.217743,-3.922974 4,2c-4.558533,12.174561 -7.393066,20.818237 -4,25c2.271759,2.799835 4.406067,2.191284 7,4c5.252319,3.662354 9.513824,9.521362 16,17c6.552032,7.554565 13.463562,16.725098 20,21c3.742737,2.447815 9.746735,5.371338 14,8c1.9021,1.175598 4.186005,1.692566 6,3c3.441803,2.480713 5,5 6,6c1,1 1,2 0,2c-1,0 -1.94342,-0.147705 -7,-2c-8.90799,-3.263062 -18.104645,-6.6745 -31,-11c-11.097046,-3.72229 -18.912781,-10.132935 -28,-16c-7.925629,-5.117065 -17.780762,-11.390137 -30,-18c-11.800537,-6.383362 -26.179779,-13.687622 -42,-23c-13.154541,-7.743256 -23.73909,-17.238861 -32,-26c-4.850967,-5.144714 -10.234879,-10.624237 -3,-21c3.662384,-5.252319 6,-4 6,-6c0,-3 0.176254,-4.486267 -2,-5c-2.919754,-0.68927 -4.960114,0.279602 -4,0c12.518433,-3.645386 20.439255,-16.917603 17,-18c-23.559006,-7.414398 -53.895279,33.493408 -58,26c-9.608444,-17.540741 49.577286,-21.039459 51,-34c0.308624,-2.811523 -11.673355,1.031738 -26,5c-4.914001,1.361115 -2.818024,-0.733551 9,-9c15.242325,-10.661682 28.679413,-22.614441 25,-26c-8.861191,-8.153473 -35.186325,9.593292 -53,18c-6.066574,2.862976 0.491364,-0.317444 16,-12c17.590317,-13.250671 25.891861,-26.965759 21,-28c-13.053131,-2.759674 -31.93895,17.920807 -41,11c-0.794708,-0.606995 20.526215,-4.798767 27,-25c1.856323,-5.792603 -16.097763,-5.382416 -52,4c-22.062576,5.765656 -26.520493,3.011078 -12,-4c19.397858,-9.366089 39.863174,-14.306488 39,-17c-1.856323,-5.792603 -21.097443,-1.978363 -36,0c-5.054672,0.671021 -0.298843,-3.587463 15,-11c15.716629,-7.61496 19,-10 15,-10c-7,0 -20.920944,0.618134 -42,3c-11.965446,1.352051 -11.037132,-3.068573 0,-9c16.943665,-9.105621 28.458801,-12.693451 29,-14c0.38269,-0.923889 -3.938889,-1.864166 -12,-2c-11.043793,-0.186066 -14,1 -14,0l8,-4l9,-5l4,2" id="svg_62" fill-opacity="null" stroke-opacity="null" stroke-width="null" stroke="#28d4b3" fill="none"/>
  <path d="m287.5,278.5c1,0 3.292908,-0.292908 4,-1c0.707092,-0.707092 1.042908,-0.710205 2,-1c6.901703,-2.089661 10.0979,-8.175568 12,-7c0.850647,0.525726 -3.834808,3.780029 -16,13c-14.099792,10.686218 -16.112183,19.299957 -12,19c18.33606,-1.337494 30.579559,-16.760223 36,-14c3.985199,2.029358 -5.763794,16.145569 -12,26c-5.78421,9.140198 -5.848297,12.222351 -1,11c14.316833,-3.609528 22.582367,-14.729248 24,-13c7.228577,8.817444 -27.694733,24.841278 -27,36c0.22403,3.598572 7.73175,2.582214 20,-5c6.858154,-4.238586 3.689331,-2.252228 -6,10c-9.304443,11.765533 -12.770203,19.744019 -18,27c-3.307617,4.589081 -4.896606,5.093658 -4,4c2.285889,-2.78833 6,-8 11,-13c1,-1 -3.175568,1.0979 -2,3c0.525726,0.850647 3.746643,-1.157806 14,-11c8.687073,-8.338745 12.398285,-17.190613 8,-18c-9.883911,-1.818878 -22.925781,4.497559 -28,5c-1.990265,0.197083 3.235413,-5.735779 10,-12c13.489319,-12.491516 19.324554,-21 13,-21c-12.649109,0 -26.977478,16.866608 -34,12c-0.82193,-0.56958 10.530853,-9.579712 24,-20c16.458313,-12.732819 31.623596,-19.080322 30,-23c-0.38269,-0.923889 -3,0 -10,4c-7,4 -9.586151,4.484192 -6,1c14.924561,-14.500244 36.872833,-19.363983 35,-24c-3.019836,-7.475342 -13.937958,3.498291 -20,4c-1.993195,0.164948 -4,0.414215 -4,-1c0,-7.071075 13.763947,-8.527863 16,-13c0.447205,-0.894424 -1,-1 -1,-2l1,0l1,-2" id="svg_63" fill-opacity="null" stroke-opacity="null" stroke-width="null" stroke="#28d4b3" fill="none"/>
  <path d="m292.5,274.5c0,-2 0,0 0,1c0,1 -1.8591,4.185028 -11,11c-20.689697,15.425171 -38.863205,29.495148 -38,30c15.846405,9.267731 39.497803,-24.266357 43,-19c5.886414,8.851563 -23.645142,16.844086 -26,28c-0.851563,4.03421 8.723358,1.511322 21,0c4.962524,-0.610931 4.410065,7.085297 6,16c0.785217,4.402649 10.256622,1.031952 19,8c5.95578,4.74646 -6,19 -25,39l-5,8" id="svg_64" fill-opacity="null" stroke-opacity="null" stroke-width="null" stroke="#28d4b3" fill="none"/>
  <path stroke="#28d4b3" d="m290.5,123.5c1.127655,0 1.909637,0.415108 3.382965,0.904762c2.083649,0.692474 8.147278,1.060257 18.042572,3.619041c8.17395,2.113678 16.22876,4.793182 24.808502,9.047623c4.796234,2.378311 6.765961,5.428574 6.765961,9.047623l-3.382965,7.238098l-19.170227,20.809525l-9.021271,6.333328" id="svg_65" fill-opacity="null" stroke-opacity="null" stroke-width="null" fill="none"/>
  <polyline stroke-linecap="round" id="svg_74" points="752.5,350.5 752.5,350.5 " fill-opacity="null" stroke-opacity="null" stroke-width="null" stroke="#f06cd7" fill="none"/>
 </g>
</svg>