<svg width="600" height="600" xmlns="http://www.w3.org/2000/svg">
 <!-- Created with Method Draw - http://github.com/duopixel/Method-Draw/ -->
 <defs>
  <linearGradient spreadMethod="pad" id="svg_135">
   <stop offset="0" stop-color="#f06cd7"/>
   <stop offset="1" stop-color="#0f9328"/>
  </linearGradient>
  <linearGradient y2="0" x2="1" y1="0" x1="0" spreadMethod="pad" id="svg_139">
   <stop offset="0" stop-color="#f06cd7"/>
   <stop offset="1" stop-opacity="0.996094" stop-color="#28d4b3"/>
  </linearGradient>
 </defs>
 <g>
  <title>background</title>
  <rect fill="#fff" id="canvas_background" height="602" width="602" y="-1" x="-1"/>
  <g display="none" overflow="visible" y="0" x="0" height="100%" width="100%" id="canvasGrid">
   <rect fill="url(#gridpattern)" stroke-width="0" y="0" x="0" height="100%" width="100%"/>
  </g>
 </g>
 <g>
  <title>Layer 1</title>
  <path id="svg_7" fill-opacity="null" stroke-opacity="null" stroke-width="null" stroke="#28d4b3" fill="none"/>
  <path id="svg_13" fill-opacity="null" stroke-opacity="null" stroke-width="null" stroke="#28d4b3" fill="none"/>
  <polyline stroke-linecap="round" id="svg_38" points="102.5,302.5 " opacity="0.5" fill-opacity="null" stroke-opacity="null" stroke-width="null" stroke="#28d4b3" fill="none"/>
  <polyline stroke-linecap="round" id="svg_74" points="752.5,350.5 752.5,350.5 " fill-opacity="null" stroke-opacity="null" stroke-width="null" stroke="#f06cd7" fill="none"/>
  <polyline stroke-linecap="round" id="svg_138" points="-323.5,346.5 -323.5,346.5 -323.5,346.5 " fill-opacity="null" stroke-width="NaN" stroke="url(#svg_139)" fill="none"/>
  <path stroke="url(#svg_139)" d="m188.05751,142.5c0,-1 2.189926,-1.714127 4.950867,-4c3.248749,-2.689789 8.660782,-9.371338 12.872238,-12c3.766846,-2.351143 2.97052,-1 0.990173,1c-2.97052,3 -6.704071,8.259354 -8.91156,10c-4.550827,3.58844 -6.931198,5 -6.931198,4c0,-1 1.42157,-2.52623 7.921371,-9c5.506256,-5.4842 8.91156,-9 11.88208,-12c0.990173,-1 0,-1 0,0c0,1 1.016663,-0.770248 1.980347,-1c2.154861,-0.513741 3.026001,-1.623993 10.891891,-3c8.99501,-1.573524 25.825867,-4.516525 50.498825,-9c9.938232,-1.805939 13.175781,-1.541199 11.88208,-1c-0.914825,0.382683 -3.908203,1.24292 -7.921387,2c-7.84729,1.480385 -21.620941,3.993996 -30.695358,5c-5.905563,0.654701 -13.862427,-2 -13.862427,0c0,1 1.980347,0 3.960693,0c5.94104,0 18.804611,-1.131111 32.675705,-2c18.803192,-1.177834 31.681885,-2.041359 42.577423,-3c11.878265,-1.045105 18.813293,1 18.813293,-1c0,-1 -1.884125,-0.224205 -3.960693,-1c-3.82901,-1.430496 -6.931213,-2 -6.931213,-1c0,1 1.860107,0.493462 4.950867,1c4.886932,0.800911 12.940369,0.331596 25.744476,2c10.979492,1.430649 21.543304,5.986916 27.724854,7c1.954773,0.320366 -1.016998,-0.881783 -9.901733,-3c-7.946716,-1.894592 -15.842773,-3 -17.82312,-3c0,0 1.851471,0.373154 9.901733,3c10.74292,3.505463 18.730042,6.261627 30.695374,10c6.886536,2.151596 15.740387,3.906326 14.85257,5c-2.263397,2.78833 -8.096588,-3.345184 -12.872223,-5c-6.282776,-2.177055 -9.901733,-5 -10.891907,-5c-0.990173,0 2.91449,1.147728 7.921387,3c5.88028,2.175377 15.725311,6.293503 22.773956,9c8.780426,3.371429 21.666351,7.293503 28.715027,10c7.048676,2.706497 3.670654,1.292892 2.97052,2c-0.700165,0.707108 -2.261719,1.731155 -6.931213,7c-4.669495,5.268845 -11.836182,11.955719 -10.891907,13c5.214996,5.767258 8.888855,-7.033951 5.94104,-5c-9.979828,6.885941 -27.724854,15 -23.76416,19c0.990173,1 33.552948,-8.921112 26.73468,-19c-2.013977,-2.977081 -17.056946,10.228836 -19.803467,16c-0.428925,0.901306 0,0 0.990173,0c0.990173,0 1.676819,-1.458801 2.97052,-2c0.914825,-0.38269 0.520569,0.149353 0,1c-1.164001,1.902115 -3.825287,3.146805 -5.94104,5c-3.740143,3.276016 -10.347778,7.450485 -12.872223,10c-2.524445,2.549515 -2.061249,1.887863 1.980347,-1c5.828857,-4.164932 13.57547,-9.957092 13.862396,-9c1.034576,3.450851 -13.638794,11.23468 -19.803436,17c-6.69812,6.264221 -8.991089,13.623581 -12.872253,12c-0.914825,-0.38269 1.980347,-2 0.990173,-2c-0.990173,0 -1.046265,1.917526 -3.960693,4c-4.041595,2.887863 -13.672333,8.82312 -22.773987,16c-2.207458,1.740646 -2.516205,2.306564 -1.980347,1c1.13678,-2.771637 0.0802,-6.10701 0.990173,-10c0.508698,-2.176254 1.217682,-4.973251 0.990173,-4c-0.508667,2.176254 -0.990173,6 -0.990173,11c0,5 -0.050812,6.316223 -0.990173,6c-4.696777,-1.581146 -7.670593,-7.371338 -11.88205,-10c-3.766846,-2.351135 -5.237823,-2.957092 -4.950867,-2c1.034546,3.450851 2.89032,6.10701 1.980347,10c-0.508698,2.176254 -1.280212,1.707108 -1.980347,1c-0.700165,-0.707108 -2.189941,-1.714127 -4.950867,-4c-2.165863,-1.793198 -1.570221,-4 -2.97052,-4c-1.40033,0 -3.578308,3.296997 -5.94104,6c-1.465302,1.676331 -3.180115,3.714127 -5.94104,6c-2.165863,1.793198 -2.895142,2.38269 -1.980347,2c1.293701,-0.541199 4.038361,-3.789856 6.931213,-5c4.091095,-1.711411 7.400818,-3.850647 7.921387,-3c1.164001,1.902115 -7.809814,4.376694 -13.862427,6c-4.879761,1.308762 -8.91156,1 -8.91156,2c0,1 1.995178,0.24437 3.960693,0c4.052002,-0.503769 8.941681,-1.806168 15.842773,-3c4.97641,-0.860886 8.224915,-0.541199 6.931213,0c-2.744415,1.148056 -10.90686,1.574661 -16.832947,2c-6.983978,0.501266 -11.88208,0 -11.88208,1c0,1 1.065552,-0.61731 1.980347,-1c1.293701,-0.541199 1.572845,-10.404007 -1.980347,-15c-0.861786,-1.114685 -1.748016,-1.847763 -0.990173,0c1.071777,2.613129 4.452026,5.907791 4.950867,10c0.483948,3.970032 -0.990173,8 0,8c1.980347,0 -1.483551,-6.937958 -1.980347,-13c-0.48999,-5.979553 0,-8 0,-8c0,1 0.782104,4.07843 1.980347,7c0.847321,2.065857 1.980347,5 1.980347,6c0,1 1.00296,1.160187 1.980347,1c3.090759,-0.506546 11.96283,-2.666275 24.754333,-6c6.979889,-1.819107 11.657745,-2.39595 11.88205,-1c0.354675,2.207199 -3.999023,3.480545 -6.931183,3c-3.090759,-0.506546 -5.172852,-1.845673 -4.950867,-5c0.313904,-4.460892 4.054535,-9.669952 7.921387,-14c3.315765,-3.712982 3.28363,-1.948685 2.97049,-1c-1.565582,4.743423 -5.4422,8.907791 -5.94101,13c-0.362946,2.977524 -0.686646,7.541199 -1.980347,7c-0.914825,-0.38269 0.334167,-1.310013 1.980347,-4c2.208557,-3.609009 6.855835,-5.61731 5.94101,-6c-1.293701,-0.541199 -3.960663,3 -9.901703,7c-5.94104,4 -9.425507,6.99411 -16.832947,10c-3.788208,1.537231 -8.838074,0.502441 -13.862427,0c-2.956055,-0.295609 -6.476227,0.946503 -6.931213,-1c-0.508667,-2.176254 6.854675,-3.43544 16.832947,-5c8.86026,-1.389267 14.562561,-0.707108 13.862427,0c-1.40033,1.414215 -9.901733,2 -20.79364,2c-20.79364,0 -39.582184,1.499725 -54.459503,2c-10.885864,0.366058 -11.876007,0.221207 -7.921387,0c26.858032,-1.502304 42.547363,-5.331268 62.38089,-7c14.834167,-1.248108 25.427277,-2.974182 25.744507,-1c0.501556,3.121445 -9.901733,3 -25.744507,5c-15.842773,2 -35.647552,3.973755 -55.449677,5c-18.81456,0.975067 -28.715012,-1 -28.715012,2c0,3 17.800888,-0.139648 29.705185,-2c20.75769,-3.243927 34.693756,-4.673187 44.55777,-6c5.970276,-0.803055 5.997009,0.209564 -0.990173,2c-8.848541,2.26741 -21.768219,4.134918 -29.70517,5c-10.873688,1.185165 -17.749634,0.502441 -22.773987,0c-5.912109,-0.591232 -10.891891,-1 -13.862411,-2c-2.97052,-1 -4.950867,-1 -5.94104,-1c-0.990173,0 -0.70015,0.292892 0,1c1.400314,1.414215 4.950867,1 8.91156,2c3.960693,1 7.921387,1 10.891891,1c0.990173,0 -0.004807,0.098541 -0.990158,0c-5.024353,-0.502441 -12.809479,-3.234131 -30.695358,-8c-15.790009,-4.207397 -35.5327,-8.997086 -48.518478,-10c-7.898315,-0.610001 -10.601883,-0.292892 -9.901718,-1c5.601257,-5.65686 17.843765,0.849365 32.675705,3c12.891495,1.869263 21.83371,3.76268 31.685516,6c3.983139,0.904556 4.925308,1.320358 2.97052,1c-6.181534,-1.013077 -17.760376,-5.336319 -32.675705,-8c-25.649429,-4.580658 -37.553085,-5.497559 -42.577423,-6c-0.985352,-0.098541 0,0 3.960693,0c2.97052,0 6.931213,2 6.931213,1c0,-1 -1.980347,0 -2.97052,0c-3.960693,0 -7.921387,0 -14.8526,0c-1.980347,0 -3.198013,-0.026749 -2.97052,-1c0.508698,-2.176254 3.960693,-5 7.921387,-9c5.94104,-6 11.400604,-8.823746 10.891907,-11c-0.227493,-0.973251 -3.960693,3 -6.931213,6c-2.97052,3 -5.94104,6 -7.921387,8c-0.990173,1 -0.990173,2 -0.990173,1c0,-2 -0.199402,-6.044525 0.990173,-11c1.69841,-7.07515 2.481918,-9.878555 1.980347,-13c-0.158615,-0.987091 -0.120972,-1.992508 0,-1c0.498825,4.092209 1.653671,7.013626 1.980347,11c0.49678,6.062042 0,9 0.990173,9c0.990173,0 0,-2 0,-5c0,-5 0,-12 0,-17c0,-3 0,-7 -0.990173,-7c-0.990173,0 0,2 0,4c0,2 0,4 0,5c0,1 -1.980347,2 -0.990173,2c0.990173,0 0.128525,-1.507294 0.990173,-2c5.024231,-2.87291 9.212372,-11.567566 17.823105,-18c11.314178,-8.451981 26.010452,-18.615448 34.656052,-25c5.11792,-3.779465 6.219284,-4.689789 2.97052,-2c-2.760925,2.285873 -10.050308,6.7836 -15.842758,11c-9.158691,6.666718 -17.042526,12.714127 -19.803467,15c-3.248764,2.689789 -3.384949,1.648758 0,-2c6.241562,-6.727997 14.931229,-12.895096 26.734665,-22c8.972015,-6.920792 15.939697,-12.824432 17.82312,-14c1.684586,-1.05146 -2.239838,2.572769 -8.91156,7c-8.275238,5.491302 -19.803452,15 -28.715012,22c-8.91156,7 -14.852585,12 -13.862411,13c0.990173,1 2.681946,-3.306335 8.911545,-9c10.434464,-9.536774 16.711456,-14.157974 30.695358,-25c7.854156,-6.089493 15.396347,-13.95517 18.813293,-15c0.947678,-0.289787 0.227493,1.026749 0,2c-0.508713,2.176254 -1.980347,3 -1.980347,4c0,1 -0.990173,1 -1.980347,2c-0.990173,1 -2.344284,2.102631 -2.97052,4c-1.565613,4.743423 -5.668808,6.463562 -9.901733,13c-2.423752,3.742752 -6.380203,9.38063 -7.921387,15c-0.528625,1.927429 0.4543,1.306564 0.990173,0c0.378937,-0.923874 0.815659,-5.513748 2.97052,-5c0.963684,0.229752 -0.990173,2 -6.931213,7c-5.941025,5 -15.587372,13.306213 -23.764145,20c-7.692047,6.296982 -17.475418,11.19577 -19.803452,15c-0.520554,0.850647 1.05481,0.096222 6.931213,-4c7.010117,-4.88649 15.842758,-11 21.783798,-14c3.960693,-2 5.989136,-2.948944 4.950867,-2c-10.434464,9.536774 -20.023193,15.685638 -25.744492,20c-6.196671,4.672821 -8.45726,5.693436 -7.921387,7c0.378937,0.923874 1.702103,-1.310211 4.950867,-4c5.521835,-4.571762 10.891891,-9 17.823105,-14c6.931213,-5 9.80481,-6.175568 7.921387,-5c-4.211456,2.628662 -11.647446,8.380554 -17.823105,12c-3.829987,2.24469 -5.651031,2.707108 -4.950867,2c0.70015,-0.707108 1.065552,-0.61731 1.980347,-1c1.293716,-0.541199 2.055725,-1.61731 2.97052,-2c1.293716,-0.541199 2.733871,-1.503891 14.852585,-7c9.728561,-4.412125 19.740829,-9.106705 29.705185,-15c6.888687,-4.074234 5.865662,-3.38269 4.950867,-3c-1.293732,0.541199 -2.97052,2 -3.960693,1c-0.990173,-1 -1.707047,-2.222733 -4.950867,-6c-2.752472,-3.205124 -8.701965,-6.714127 -5.94104,-9c1.082932,-0.896591 1.834534,2.173096 2.97052,3c3.592346,2.614899 7.921387,5 11.88208,7c1.980347,1 4.339615,1.923874 3.960693,1c-1.071762,-2.613129 -5.793503,-5.318604 -11.88208,-8c-7.754791,-3.415192 -9.901733,-5 -9.901733,-4c0,1 3.881821,1.167969 7.921387,3c4.864288,2.20607 10.112244,5.671219 14.8526,9c5.205505,3.655426 13.16301,8.473282 18.813278,12c4.211456,2.628662 8.45726,3.693436 7.921387,5c-0.378937,0.923874 -1.029648,-0.923981 -2.97052,-2c-5.061218,-2.805908 -12.691635,-8.438614 -21.783798,-12c-2.919327,-1.143494 -4.835526,-2.205139 -2.97052,-1c5.340576,3.450989 10.736572,7.245926 16.832932,11c8.704056,5.359879 16.617813,8.56868 23.764145,11c7.737915,2.632584 13.38092,0.823746 12.872253,3c-0.227509,0.973251 -1.676819,-0.458801 -2.97052,-1c-0.914825,-0.38269 -1.513123,0.118332 -1.980347,1c-1.68457,3.178925 -6.052094,3.918304 -8.91156,8c-2.061981,2.943359 -3.459137,4.878555 -3.960693,8c-0.317215,1.974182 -0.227509,0.973251 0,0c0.508698,-2.176254 2.361664,-8.372009 4.950867,-12c1.637573,-2.29454 1.791931,-3.118484 0,0c-2.222626,3.867996 -4.216187,9.904358 -5.94104,15c-2.331802,6.888702 -4.442154,10.823746 -4.950851,13c-0.227493,0.973251 -1.11116,0.992508 -0.990173,0c0.49881,-4.092209 3.960693,-9 7.921371,-15c5.94104,-9 9.057404,-10.826904 7.921387,-10c-1.796173,1.307449 -7.346771,7.673813 -11.882065,14c-5.478195,7.641388 -9.292877,17.372009 -11.88208,21c-0.818787,1.147263 -0.818787,2.147263 0,1c2.589203,-3.627991 5.595856,-11.21106 9.901733,-18c4.594284,-7.243713 11.882065,-15 15.842758,-19c2.97052,-3 1.934448,-2.044281 0.990173,-1c-5.214996,5.767258 -7.841125,12.058594 -12.872253,19c-2.924271,4.034607 -5.329788,6.923874 -4.950851,6c1.071762,-2.613129 11.128769,-14.787186 20.793625,-26c5.077667,-5.89093 9.365845,-10.693436 9.901733,-12c0.378937,-0.923874 0.700134,-0.292892 0,-1c-0.700165,-0.707108 -4.547058,-1.371292 -10.891907,-8c-4.406616,-4.603745 -10.873718,-11.712006 -11.88208,-17c-0.187256,-0.981949 0.990173,-1 1.980347,1c2.97052,6 7.720001,12.093155 11.88208,21c2.834839,6.066574 2.97052,10 3.960693,10c0.990173,0 -1.344818,-2.807159 -4.950867,-10c-4.405121,-8.786789 -15.296158,-26.445465 -21.783798,-34c-2.752472,-3.205124 -9.447433,-7.693436 -8.91156,-9c0.378937,-0.923874 5.17746,3.729614 9.901733,8c6.260468,5.659012 10.724808,10.220535 15.842758,14c2.881866,2.128189 4.188202,2.973251 3.960693,2c-1.017395,-4.352509 -2.876404,-8.080521 -7.921387,-14c-7.778229,-9.126465 -13.584167,-15.310211 -16.832932,-18c-2.760925,-2.285881 -3.670685,-2.707108 -2.97052,-2c0.70015,0.707108 0.914795,-0.617317 0,-1c-1.293732,-0.541199 -1.980347,-2 -2.97052,-4c-0.990173,-2 -1.980347,-2 -0.990173,-2c0.990173,0 1.020538,0.912308 3.960693,2c5.006897,1.852272 13.671478,6.35817 20.793625,10c8.700439,4.448868 18.813293,15 20.79364,11c0.990173,-2 -6.931213,-5 -12.872253,-9c-8.91156,-6 -26.243317,-9.907784 -25.744492,-14c0.120972,-0.992508 5.984741,1.87619 8.911545,3c7.048676,2.706497 12.626801,6.686302 22.773987,10c11.653656,3.805664 20.79361,5 29.70517,8c2.97052,1 5.562103,1.076126 5.94104,2c0.535889,1.306564 -2.426422,1.450485 -4.950867,4c-2.524445,2.549515 -7.39798,11.250992 -10.891907,18c-4.328033,8.360275 -6.627655,13.541199 -7.921356,13c-0.914825,-0.38269 0.56308,-1.782745 2.97052,-9c1.303345,-3.907349 4.906464,-10.549149 5.94101,-14c0.286957,-0.957092 -0.424042,1.423355 -4.950836,7c-2.663361,3.281006 -8.367462,11.450485 -10.891907,14c-5.04892,5.099014 -6.931213,5 -6.931213,4c0,-1 0,-2 -0.990173,-2c-0.990173,0 0.84433,1.173096 1.980347,2c3.592346,2.614899 10.891907,7 16.832947,12c5.94101,5 13.092773,11.723984 16.832916,15c1.057861,0.92659 0.131561,-1.139023 -2.97052,-4c-5.710602,-5.266754 -16.443207,-14.549011 -21.783783,-18c-1.865021,-1.205139 -0.990173,0 1.980347,3c5.94104,6 10.067505,10.901428 15.842743,21c5.098633,8.915451 9.611725,13.707108 8.91156,13c-0.700134,-0.707108 -3.718414,-4.132004 -5.94104,-8c-3.583862,-6.236954 -5.94104,-11 -6.931213,-11c-0.990173,0 0.367706,1.74675 2.97052,6c2.328033,3.80423 1.980347,10 1.980347,13c0,1 0,2 0,1c0,-1 1.161591,-1.852737 1.980347,-3c2.589203,-3.627991 1.980347,-7 1.980347,-6c0,1 -0.786133,2.087433 -2.97052,7c-0.907013,2.039825 -2.461823,5.823746 -2.97052,8c-0.454987,1.946503 0,3 0,2c0,-1 0.74823,-4.014984 0.990173,-6c0.99765,-8.184433 4.134186,-19.034073 4.950867,-29c0.993561,-12.124069 0.323608,-29.038086 -0.990173,-39c-0.795166,-6.029526 -1.111145,-6.992508 -0.990173,-6c0.49884,4.092209 3.066925,7.488205 4.950867,13c2.604858,7.620972 1.980347,15 1.980347,22c0,3 -0.852814,1.990341 -0.990173,1c-0.999847,-7.209747 -4.650635,-15.090195 -8.91156,-29c-2.776215,-9.063049 -5.374908,-15.423355 -9.901703,-21c-1.775574,-2.187347 -3.934204,-3.770248 -2.97052,-4c2.154846,-0.513741 4.178741,4.794876 6.931183,8c3.243835,3.777267 4.647339,6.458801 5.94104,7c0.914825,0.38269 -0.261444,-3.450211 -5.94104,-12c-7.064545,-10.634674 -14.071991,-13.714119 -16.832916,-16c-1.082916,-0.896599 -0.914825,-0.382683 0,0c1.293701,0.541199 1.980347,1 2.97052,1c0.990173,0 4.958435,0.276505 9.901733,0c8.952667,-0.500763 14.85257,-1 20.79361,-1c2.97052,0 5.651001,-0.292892 4.950867,-1c-0.700134,-0.707108 -2.97052,-1 -4.950867,-3c-1.980347,-2 -3.581757,-3.923882 -3.960693,-3c-0.535858,1.306564 6.511993,3.458153 14.8526,13c7.471558,8.547638 12.455658,16.701752 16.832947,26c2.28952,4.86348 1.980347,9 2.97052,9c0.990173,0 -0.686432,-1.168701 -2.97052,-5c-4.393524,-7.369659 -6.813904,-15.809723 -9.901733,-14c-1.914978,1.122345 5.554962,7.685043 8.91156,15c4.873047,10.619766 6.401978,17.838089 7.921387,23c1.43866,4.887634 0,8 0.990173,8c0.990173,0 -2.126648,-3.943405 -3.960693,-9c-1.076996,-2.96933 0.571503,-2.263428 3.960693,6c3.594757,8.764694 4.431519,15.593094 5.94101,24c0.530029,2.951859 0.121155,3.93399 -0.990173,2c-1.791931,-3.118484 -0.648376,-8.176971 0.990173,-13c0.718567,-2.115036 1.575592,-0.970795 0.990173,5c-0.497498,5.074203 -2.735962,13.34346 -4.950836,19c-1.312897,3.352905 -1.904999,4.38269 -0.990173,4c1.293701,-0.541199 1.901398,-2.11351 8.91153,-7c5.876404,-4.096222 11.979034,-9.175568 13.862427,-8c0.842285,0.525726 -3.313293,4.70546 -4.950867,7c-1.294617,1.813995 -1.676788,6.541199 -2.97052,6c-0.914795,-0.38269 1.716217,-2.232742 6.931213,-8c7.554291,-8.354294 20.314484,-17.846756 23.76416,-24c2.011505,-3.587921 0.818756,-5.147263 0,-4c-2.589203,3.627991 -1.980347,9 -1.980347,12c0,1 0.488617,0.121445 0.990173,-3c0.634399,-3.948349 -0.421844,-13.206833 -4.950867,-25c-3.526367,-9.182404 -11.414581,-24.236069 -15.842773,-22c-0.885651,0.44722 1.716217,2.232742 6.931213,8c2.832855,3.132858 5.637512,6.541199 6.931213,6c0.914795,-0.38269 -1.567902,-3.373184 -6.931213,-9c-9.238617,-9.692535 -21.783813,-17 -36.636383,-23c-4.950867,-2 -8.989227,-3.789848 -11.88208,-5c-2.045563,-0.855705 -3.154694,-1.692551 -4.950867,-3c-2.271973,-1.653809 -3.960693,-3 -6.931213,-5c-2.97052,-2 -4.950867,-4 -4.950867,-3c0,1 3.015198,0.848404 9.901733,3c11.965332,3.738373 26.948761,7.355118 39.606903,12c19.18576,7.040176 30.603973,14.197159 36.636414,22c3.553162,4.595993 4.44931,9.878555 4.950867,13c0.1586,0.987091 -1.26181,1.115036 -1.980347,-1c-1.63858,-4.823029 -6.79953,-14.569504 -2.97052,-16c2.076538,-0.775803 3.542023,5.736572 6.931183,14c2.396515,5.843124 5.445007,11.953323 5.94104,20c0.369171,5.988403 -1.953094,10.647491 -2.97052,15c-0.227509,0.973251 0,0 0,-1c0,-1 1.675903,-3.186005 2.97052,-5c1.637573,-2.29454 2.516235,-3.306564 1.980347,-2c-0.378906,0.923874 -1.980347,2 -5.94104,6c-4.950836,5 -11.88205,10 -15.842743,13c-3.960693,3 -4.660828,4.707108 -3.960693,4c0.700134,-0.707108 2.666962,-3.458801 3.960693,-4c0.914795,-0.38269 0,1 -1.980347,3c-3.960693,4 -9.023743,6.835068 -14.8526,11c-4.041595,2.887863 -7.921387,5 -6.931213,5c0.990173,0 1.980347,-2 4.950867,-6c2.97052,-4 6.829041,-8.611298 9.901733,-17c1.416412,-3.867004 1.980347,-6 1.980347,-5c0,1 0.831543,1.012909 0.990173,2c0.501556,3.121445 2.666992,5.458801 3.960693,6c0.914795,0.38269 2.282715,0.638321 6.931213,-2c4.315979,-2.449631 11.291931,-7.41156 15.842743,-11c1.103729,-0.870331 1.877991,-1.093674 0.990173,0c-2.263428,2.78833 -5.94104,11 -5.94104,13c0,1 0.188416,2.118484 1.980347,-1c3.333954,-5.801987 7.588562,-12.751389 9.901733,-20c2.800354,-8.775055 1.123016,-20.538223 -4.950867,-32c-3.369171,-6.357849 -3.960693,-8 -4.950867,-8c-0.990173,0 0.936951,1.056824 1.980347,2c4.724274,4.270386 8.435577,8.558197 10.891907,12c1.294617,1.813995 1.87796,2.093674 0.990173,1c-4.526825,-5.576645 -5.09668,-9.828369 -10.891907,-15c-12.349274,-11.020538 -18.428375,-12.89682 -26.73465,-16c-3.82901,-1.430496 -8.91156,-6 -9.901733,-5c-0.990173,1 1.889038,1.496223 5.94104,2c4.913757,0.610916 11.977783,1.526825 22.773987,4c11.01001,2.522156 19.4888,4.65007 24.754303,13c6.225677,9.872574 5.999146,22.380905 1.980347,32c-3.963104,9.485794 -7.385498,12.693436 -7.921387,14c-0.378937,0.923874 0.342804,-0.70546 1.980347,-3c1.294617,-1.813995 1.904999,-2.38269 0.990173,-2c-1.293701,0.541199 -1.980347,3 -5.94104,7c-2.97052,3 -9.535706,9.562866 -16.832916,14c-9.484131,5.766891 -10.601898,5.707108 -9.901733,5c1.400299,-1.414215 4.007538,-0.937881 7.921387,-4c5.012115,-3.921417 7.921356,-5 6.931183,-4c-1.980347,2 -8.508423,7.106262 -14.85257,12c-4.451385,3.43367 -2.917542,5.459503 -0.990173,5c4.309723,-1.027481 12.156006,-7.518448 22.773956,-14c6.110718,-3.730194 13.744141,-6.957825 15.842773,-13c2.622009,-7.549026 0.013977,-13.468018 -4.950867,-23c-1.662048,-3.190994 -2.97052,-5 -1.980347,-3c0.990173,2 4.659241,8.346191 6.931213,10c1.796173,1.307449 2.468964,0.121445 2.97052,-3c0.79303,-4.93544 -1.948364,-19.63887 -11.88208,-30c-5.925079,-6.180038 -8.91156,-6 -8.91156,-6c0.990173,0 3.800354,1.465515 8.91156,3c4.8396,1.452942 8.621521,1.707108 7.921387,1c-0.700134,-0.707108 -7.886322,-2.085831 -19.803467,-7c-9.873169,-4.07132 -34.180389,-2.635666 -32.67569,-12c0.1586,-0.987091 1.884125,0.224205 3.960693,1c7.65799,2.860992 19.890015,5.793938 24.754303,8c8.079163,3.664078 23.909973,11.515289 29.7052,28c5.795227,16.484711 -0.140961,17.635025 -6.931213,26c-3.551147,4.37468 -6.152161,5.551132 -14.8526,10c-7.122131,3.64183 -14.85257,6 -17.82309,7c-2.97052,1 -8.674988,5.415894 -11.88208,7c-2.812805,1.389359 -1.980347,1 -0.990173,1c0.990173,0 7.921387,1 7.921387,-1c0,-1 -1.244263,1.418854 -5.94104,3c-1.878723,0.632462 -6.878693,2.148972 -17.82312,6c-8.870605,3.121307 -11.751648,5.288589 -15.842773,7c-2.892853,1.210144 -2.905151,0.122345 -0.990173,-1c3.08783,-1.809723 4.264252,-3.541199 2.97052,-3c-0.914795,0.38269 -2.002594,0.366547 -4.950836,0c-8.104004,-1.007553 -16.940094,-4.817673 -28.715027,-12c-7.996033,-4.877319 -16.149933,-12.718994 -18.813293,-16c-2.263428,-2.78833 -2.97052,-4 -1.980347,-3c0.990173,1 2.395081,2.418854 3.960693,4c1.565613,1.581146 0.990173,3 0.990173,6c0,3 0,8 0,11c0,2 0,3 0,2c0,-1 -0.454285,-1.693436 -0.990173,-3c-0.378906,-0.923874 -0.378906,0.076126 0,1c0.535889,1.306564 1.36911,1.923874 0.990173,1c-0.535858,-1.306564 -3.166565,-4.896057 -10.891907,-20c-3.048401,-5.960022 3.917877,0.320465 8.91156,18c3.304413,11.698853 0.843597,13.771637 1.980347,11c1.607635,-3.919693 1.252106,0.127853 -5.94104,7c-7.780548,7.433365 -18.436493,13.223801 -23.76413,13c-2.212189,-0.092926 2.489014,-3.823746 1.980347,-6c-0.227509,-0.973251 -1.688721,1.346191 -3.960693,3c-3.592346,2.614899 -10.891907,2 -21.783813,2c-5.941025,0 -19.065552,8.189377 -19.803452,-1c-0.431,-5.367538 9.901733,-2 9.901733,-2c-3.960693,0 -21.429703,0.054016 -30.695358,-4c-7.815826,-3.419678 -6.954346,-7.729538 2.97052,-7c4.071808,0.299301 5.767197,0.097885 6.931213,2c0.520554,0.850647 -2.076004,1.466263 -7.921387,0c-9.116608,-2.286819 -18.84996,-7.005753 -16.832947,-20c1.371613,-8.836349 4.29071,-7.134354 4.950867,-5c2.087646,6.749435 1.382233,8.773468 0,9c-2.185501,0.358185 -4.453354,-4.925797 -4.950867,-10c-0.780548,-7.96106 3.629333,-25.694656 12.872253,-42c11.325577,-19.979309 16.542923,-22.707108 15.842758,-22c-0.70015,0.707108 -3.191055,1.723984 -6.931198,5c-4.231506,3.706375 -8.900574,7.479507 -15.842773,22c-2.318512,4.849457 -7.171707,14.372116 -2.97052,33c3.269058,14.494827 10.284805,22.917603 12.872253,24c1.829605,0.765366 1.723541,1.229385 0,-1c-3.553177,-4.595993 -7.80159,-12.813889 -9.901733,-25c-1.706329,-9.901031 0.560181,-23.959839 10.891907,-38c8.780273,-11.931839 20.420792,-18.569809 33.665878,-27c6.753708,-4.298569 5.815247,-3.321381 2.97052,-2c-5.245453,2.436501 -6.973709,3.710205 -7.921387,4c-3.416946,1.04483 -5.222473,3.616348 -10.891907,8c-8.357513,6.462097 -17.535187,15.639923 -20.793625,23c-3.834183,8.660583 -5.696838,13.774643 -8.91156,26c-2.591782,9.8564 -2.876007,15.977341 -1.980347,20c1.107681,4.974792 1.859207,6.06601 2.97052,8c1.791946,3.118484 2.27037,4.292892 2.97052,5c0.700165,0.707108 -0.026489,0.229752 -0.990173,0c-2.154861,-0.513748 -10.027222,-1.537933 -16.832932,-8c-6.205765,-5.892395 -9.901733,-10.834473 -9.901733,-23c0,-6.082764 1.280182,-7.707108 1.980347,-7c0.700165,0.707108 0.208084,5.07843 -0.990173,8c-1.694595,4.131714 -2.97052,6 -2.97052,9c0,4 -1.980347,6 -0.990173,6c0.990173,0 -1.69632,-2.631897 -2.97052,-6c-2.498871,-6.605377 -1.638763,-12.28186 0,-17c2.098648,-6.042175 4.504456,-12.04483 7.921387,-11c0.947693,0.28978 -0.909927,3.058594 -5.94104,10c-2.924271,4.034607 -4.950867,8 -3.960693,8c1.980347,0 3.006027,-9.381088 6.931213,-18c4.825119,-10.594986 12.156891,-20.768845 24.754318,-32c8.463654,-7.545715 20.118881,-13.221298 25.744492,-16c3.207092,-1.584106 4.950867,-2 3.960693,-2c-0.990173,0 -2.872162,1.21241 -6.931213,3c-7.754791,3.415192 -9.727875,5.902115 -10.891891,4c-0.520569,-0.850655 2.755676,-5.406197 9.901733,-9c6.75029,-3.394775 13.862411,-7 16.832932,-7c0.990173,0 0.201004,0.2565 -0.990173,1c-2.663559,1.662506 -8.91156,4 -15.842758,8c-6.931213,4 -15.916412,10.882935 -23.76416,16c-5.998611,3.911362 -13.153595,8.731155 -17.823105,14c-4.228424,4.771149 -10.37825,12.889847 -12.872253,25c-1.226456,5.955322 -2.101715,10.98085 -2.970505,17c-1.15152,7.977936 -0.304428,13.186005 0.990173,15c0.818771,1.147263 4.950851,4 7.921371,6c2.97052,2 5.94104,6 6.931213,5c0.990173,-1 -1.84494,-1.146805 -3.960693,-3c-3.740143,-3.276016 -15.259064,-11.531494 -15.842758,-21c-0.313721,-5.089172 5.515274,-11.541473 12.872238,-17c7.528076,-5.58548 13.834183,-10.055099 11.88208,-9c-7.038437,3.804245 -16.798965,7.028687 -26.734665,19c-5.128159,6.178787 -3.538345,15.648376 1.980347,20c9.101639,7.17688 20.74086,10.498734 27.724838,11c7.901443,0.567108 10.102737,-0.2565 8.911545,-1c-2.663544,-1.662506 -22.779922,-8.16449 -21.783798,1c0.108047,0.994034 7.924622,-0.029022 16.832947,1c16.839233,1.945145 22.71254,3.498291 28.715012,4c10.854782,0.907288 19.448792,0.207199 19.803452,-2c0.224304,-1.39595 -2.97052,-1 -7.921387,-1c-4.950867,0 -5.071121,1.493454 -1.980347,2c7.819092,1.281464 9.848969,0.498734 16.832947,1c1.975357,0.141785 3.960678,0 2.970505,0c-2.970505,0 -4.950851,0 -6.931198,0c-6.931213,0 -6.014511,0.497559 -0.990173,1c3.941406,0.39415 9.988266,-0.60173 18.813278,1c4.018219,0.729309 2.97052,1 -1.980347,1c-4.950867,0 -15.751465,1.496231 -19.803452,2c-5.89653,0.733093 -9.901733,0 -10.891907,0c-0.990173,0 -0.70015,-0.292892 0,-1c0.700165,-0.707108 2.867767,-3.106537 6.931213,-7c9.664032,-9.259781 21.257401,-18.469238 33.665878,-30c2.060944,-1.915161 -3.838165,1.157166 -13.862427,9c-11.741425,9.18634 -18.202042,13.923874 -17.823105,13c0.535873,-1.306564 4.950867,-5 15.842758,-14c10.891907,-9 25.342926,-19.555206 34.656067,-26c4.762817,-3.295929 3.751099,-2.285873 0.990173,0c-1.082916,0.896591 -2.006866,1.229752 -2.97052,1c-2.154877,-0.513748 -5.011627,-1.824615 -10.891907,-4c-5.006897,-1.852264 -26.78006,-13.932083 -32.675705,-18c-9.979843,-6.885941 -15.539215,-11.541199 -16.832947,-11c-0.914795,0.38269 1.824463,2.2612 9.901733,7c12.641479,7.41655 23.455307,14.728088 36.636398,20c2.911194,1.164368 4.106506,1.826904 2.97052,1c-3.592346,-2.614899 -16.761536,-8.171143 -30.695358,-14c-14.779068,-6.182434 -28.093201,-10.385101 -31.685532,-13c-1.135986,-0.826904 -2.283905,-0.541199 -0.990173,0c0.914795,0.38269 2.024429,0.798615 6.931213,2c7.005615,1.715271 12.197495,4.221298 17.823105,7c3.207092,1.584106 7.54245,2.076126 7.921387,3c0.535873,1.306564 -3.706055,2.344574 -8.91156,6c-4.740356,3.328781 -8.211395,6.292892 -8.91156,7c-0.70015,0.707108 -0.780579,-0.714127 1.980347,-3c4.331696,-3.58638 11.586533,-11.420105 19.803467,-17c9.582504,-6.507217 14.685532,-8.306763 10.891891,-6c-7.297241,4.437134 -18.16185,14.832275 -26.734665,21c-6.501907,4.677811 -9.522797,7.923874 -9.901733,7c-0.535873,-1.306564 1.578583,-2.261093 2.97052,-4c3.985947,-4.979492 12.622559,-11.415283 28.715012,-21c8.781128,-5.230072 15.842773,-7 15.842773,-7c-4.950867,3 -13.040527,6.752594 -21.783798,13c-12.124756,8.663589 -19.569717,11.527863 -21.783813,16c-0.442825,0.894424 1.813293,-1.220535 6.931213,-5c8.645599,-6.384552 23.43309,-16.582275 38.616745,-25c9.704437,-5.380081 21.003204,-11.714119 23.76413,-14c1.082916,-0.896599 0.700165,-0.707108 0,0c-0.700134,0.707108 -0.686615,1.458801 -1.980347,2c-0.914795,0.382683 -1.887604,1.103401 -2.97049,2c-2.760956,2.285881 -9.400177,7.878555 -9.901733,11c-0.31723,1.974182 0.700134,3.292892 0,4c-0.700165,0.707108 -2.270386,2.292892 -2.97052,3c-0.700165,0.707108 -4.181213,1.723984 -7.921387,5c-1.057861,0.92659 -2.97052,2 -1.980347,2c0.990173,0 0.763062,-1.259354 2.97052,-3c4.550812,-3.58844 9.552643,-8.865509 19.803467,-12c0.947662,-0.28978 0.066406,0.104446 -2.97052,2c-13.581573,8.477158 -18.464233,15.865509 -28.715027,19c-0.947693,0.28978 4.589508,-2.142365 12.872253,-9c2.165833,-1.793198 10.657257,-7.380554 16.832947,-11c1.914978,-1.122345 1.852966,-1.223907 0,0c-6.472229,4.274933 -11.801208,8.112137 -15.842773,11c-2.914429,2.082474 -4.481262,2.850647 -3.960693,2c1.164001,-1.902115 8.778748,-6.208893 14.8526,-10c6.790741,-4.238586 10.205261,-5.541199 8.91153,-5c-0.914795,0.38269 -1.869965,1.194092 -6.931183,4c-5.822693,3.228043 -10.107513,7.930679 -17.82312,10c-0.957001,0.256668 -2.258606,0.689789 0.990173,-2c2.760925,-2.285873 9.65094,-7.371338 13.862427,-10c1.883392,-1.175568 1.065521,-2.61731 1.980347,-3c1.293701,-0.541199 2.048187,0.757629 5.94104,2c13.150513,4.196899 17.634491,8.423599 32.67569,15c4.893372,2.139496 7.894867,3.229752 6.931213,3c-2.154846,-0.513748 -3.992676,-0.878677 -7.921387,-2c-18.985443,-5.418762 -24.754333,-9 -30.695343,-11c-2.97052,-1 -3.947052,-1.040436 -0.990173,0c10.944397,3.851028 19.722809,7.197571 26.73465,10c10.776489,4.307053 17.904938,5.694458 25.744507,8c3.006317,0.88414 3.960693,1 2.97052,1c-0.990173,0 -2.983307,0.839813 -3.960693,1c-3.090759,0.506546 -16.990784,6.695938 -24.754333,11c-5.061218,2.805908 -11.427765,4.693436 -10.891907,6c0.378937,0.923874 1.899475,-1.112137 5.94104,-4c5.828888,-4.164932 19.598663,-8.812653 17.82312,-11c-2.263428,-2.78833 -17.56543,11.494461 -24.754333,15c-4.801788,2.341522 -5.651001,3.707108 -4.950867,3c0.700165,-0.707108 0.686646,-1.458801 1.980347,-2c0.914825,-0.38269 2.97052,0 6.931213,1c3.960693,1 9.095123,1.527084 24.754333,8c9.02533,3.730728 10.891907,6 11.88208,6c0.990173,0 -0.924988,-1.144287 -2.97052,-2c-2.892883,-1.210144 -7.848114,-2.227768 -22.773987,-7c-9.855591,-3.151123 -13.634918,-4.973251 -13.862427,-4c-0.508667,2.176254 4.790527,1.465515 9.901733,3c4.8396,1.452942 9.848083,3.14859 17.82312,6c5.903351,2.110718 11.70755,3.486252 13.862427,4c1.927368,0.459503 2.944,-0.229752 1.980316,0c-2.154846,0.513748 -2.877777,1.103409 -3.960663,2c-2.760956,2.285873 -9.796295,5.196701 -18.813293,10c-5.875092,3.129639 -12.390747,3.823746 -11.88208,6c0.227509,0.973251 0.923767,-1.104446 3.960693,-3c6.790771,-4.238586 12.523193,-7.972519 16.832947,-9c0.963654,-0.229752 -0.801086,1.321442 -3.960693,3c-4.719147,2.50705 -12.056061,5.607025 -16.832947,8c-5.172302,2.591064 -8.457275,3.693436 -7.921387,5c0.378937,0.923874 1.016693,-0.770248 1.980347,-1c2.154846,-0.513748 3.869385,-1.496231 7.921387,-2c3.93103,-0.488739 7.958496,-0.610916 12.872253,0c4.052002,0.503769 7.921387,3 7.921387,2c0,-1 -2.006866,0.770248 -2.97052,1c-6.4646,1.541229 -14.751068,7.365845 -24.754333,10c-8.833588,2.326141 -20.887115,7.797256 -31.685516,13c-5.995026,2.888428 -6.231079,2.707108 -6.931213,2c-0.700134,-0.707108 -4.366608,-6.793564 -22.773972,-20c-16.344894,-11.7267 -15.911575,-9.785187 -3.960693,-6c16.741898,5.302628 40.624313,9.647491 39.606918,14c-0.227509,0.973251 -10.412567,-5.27684 -45.547958,-18c-21.518478,-7.792221 -20.793625,-7 -19.803452,-6c2.970505,3 7.921371,7 13.862411,10c3.960693,2 3.025452,0.905533 -1.980347,-2c-19.595337,-11.373795 -70.315216,-27.757111 -69.312088,-34c0.1586,-0.987091 2.560364,-0.414215 3.960678,1c0.700165,0.707108 1.787125,2.279572 5.94104,5c8.553452,5.601715 27.265457,15.822815 42.577438,24c12.532776,6.692993 14.796432,6.106186 12.872238,5c-14.32193,-8.23349 -30.082413,-21.288345 -45.547943,-28c-11.507355,-4.993912 -17.148361,-5.221298 -22.773972,-8c-3.207092,-1.584106 -3.632843,-2.620209 -6.931213,-4c-4.664581,-1.951309 -7.631363,-1.292892 -6.931213,-2c0.700165,-0.707108 8.118896,-2.616623 19.803467,-9c12.099136,-6.609879 37.823853,-22.619919 47.52829,-28c5.061218,-2.805908 8.158737,-3.708466 0.990173,2c-27.839859,22.169373 -45.204422,31.937881 -45.547958,31c-3.167252,-8.646866 15.269455,-12.812637 38.616745,-29c21.286987,-14.758896 28.017197,-16.592255 15.842758,-8c-19.360352,13.663818 -36.526917,38.912918 -43.567596,30c-8.776443,-11.110245 28.62999,-22.133835 45.547943,-33c15.764526,-10.125336 16.612396,-10.276009 12.872253,-7c-4.231506,3.706383 -10.44548,9.95517 -13.862427,11c-0.947678,0.28978 -0.990173,1 -1.980331,1l0,-1l0.990158,0l1.980347,-3" id="svg_142" fill-opacity="null" stroke-width="NaN" fill="none"/>
  <path stroke="url(#svg_139)" d="m214.36882,226.5c-0.899567,0 -0.555298,1.076126 -0.899567,2c-0.486847,1.306564 -3.861786,2.292892 -4.497894,3c-0.636093,0.707108 -0.899582,1 -0.899582,4c0,1 0.899582,1 0,1c-0.899567,0 1.09996,0.723984 4.497894,4c6.727585,6.48616 11.232361,12.823746 11.694504,15c0.206696,0.973267 -0.096725,2.113647 1.799179,4c4.292007,4.270386 10.962036,9.678162 10.794922,16c-0.142303,5.382843 -3.598312,9 -3.598312,11c0,3 -0.899567,7 0,7c0.899582,0 -2.0681,-0.313873 -4.497894,-7c-3.767227,-10.366425 -2.920135,-17.623505 -7.196609,-21c-5.728134,-4.522614 -8.274338,-6.632965 -13.493683,-10c-8.415939,-5.429169 -14.437408,-9.505096 -16.192398,-15c-2.128235,-6.663544 2.577713,-12.263657 6.297043,-18c1.176147,-1.813995 0.275772,-3.458801 -0.899567,-4c-0.8311,-0.38269 -0.8311,0.61731 0,1c1.175339,0.541199 2.435242,2.707108 1.799149,2c-0.636093,-0.707108 -1.426544,-2.414215 -2.69873,-1c-0.636108,0.707108 -1.069,1.943665 -1.799164,5c-1.177322,4.928207 -1.341782,11.900131 1.799164,16c3.40094,4.439255 8.192459,5.919006 11.694504,5c1.957718,-0.513748 1.53569,-2.707108 0.899582,-2c-0.636093,0.707108 -0.157944,3.097885 0.899567,5c2.3647,4.25325 4.497894,5 3.598328,4c-0.899582,-1 -6.798218,-10.463409 -16.192398,-20c-5.188095,-5.266754 -8.096207,-7 -8.096207,-6c0,1 2.433762,1.346191 4.497879,3c3.263657,2.614899 6.345932,3.937195 12.594101,10c8.160706,7.91861 13.839691,15.660645 22.489441,24c3.397949,3.276001 4.497894,4 3.598328,3c-2.698746,-3 -11.159286,-10.126984 -20.690292,-15c-2.584473,-1.321381 -0.920929,0.033386 5.397461,5c8.965698,7.047546 17.233368,16.876251 24.288605,27c2.754608,3.952667 2.531418,6.307465 0.899582,5c-4.128235,-3.307617 -5.741745,-5.923889 -5.397476,-5c0.486847,1.306549 1.348495,6.953308 1.799149,15c0.335388,5.988403 -0.899567,12 -0.899567,14c0,1 0.230804,-11.581146 4.497894,-10c0.853409,0.316223 -3.095886,6.825439 -7.19664,19c-2.992538,8.88446 -6.297043,17 -7.196609,21c0,0 3.281204,-13.027496 7.196609,-12c0.875519,0.229767 -2.288422,8.239105 -8.096191,20c-5.048264,10.2229 -8.971725,18.770233 -8.096207,19c3.915421,1.027496 3.598312,-7 3.598312,-6c0,3 -1.607834,9.747467 -3.598312,18c-1.417068,5.875244 -1.53215,8.216278 -1.799149,6c-0.608841,-5.053894 5.379913,-14.580505 7.196609,-29c1.622055,-12.874359 0.890793,-22.790253 1.799179,-30c0.374298,-2.971008 1.281723,-6.801331 4.497879,-15c3.072235,-7.831757 0.696274,-16.839111 -6.297058,-28c-7.415283,-11.834351 -10.548889,-19.29361 -14.39325,-23c-3.397934,-3.276001 -4.23439,-3.707092 -3.598297,-3c0.636093,0.707092 6.75238,1.01004 16.192398,7c9.53653,6.051178 19.816544,13.472168 21.589874,29c1.622116,14.203827 -7.947968,20.773743 -9.895355,26c-0.688507,1.847748 2.540802,1.0979 3.598312,3c2.837616,5.103912 -6.488083,18.871674 -13.493683,32c-3.70018,6.934052 -4.670425,8.862854 -2.698715,6c5.813156,-8.44046 9.895828,-10.632996 7.196609,-4c-6.170761,15.16394 -21.636841,32.904938 -17.991547,36c1.598557,1.357269 7.048767,-25.109985 13.493652,-22c6.652863,3.210327 -4.000687,18.887665 -6.297028,30c-3.278625,15.865601 -3.742416,22.987091 -3.598328,22c0.911346,-6.242889 3.861801,-12.707092 4.497894,-12c0.636108,0.707092 -0.880325,8.365234 -4.497894,18c-4.341599,11.563171 -7.340714,14.987091 -7.196609,14c0.911346,-6.242889 5.385849,-10.839813 4.497894,-11c-5.615982,-1.013092 -4.555817,14.654663 -11.694534,25c-8.912888,12.916443 -16.665329,16.850647 -16.192398,16c1.05751,-1.9021 5.373413,-4.770233 4.497894,-5c-3.915421,-1.027496 -7.462143,12.66037 -18.891144,24c-15.667755,15.545258 -29.364151,36.402588 -35.083542,33c-0.793137,-0.471863 4.962997,-6.531616 8.995789,-12c2.05632,-2.78833 3.294708,-2.690002 1.799149,0c-3.344162,6.015015 -10.108887,10.737671 -17.09198,18c-5.574089,5.796997 -4.655823,5.9021 -3.598312,4c0.472939,-0.850647 0.950539,-0.917542 3.598312,-3c7.343597,-5.775696 15.834305,-11.044128 23.389038,-17c8.835876,-6.965881 26.208771,-17.263641 22.489441,-23c-1.176147,-1.813995 -7.196625,6 -13.493668,13c-3.598312,4 -4.30748,5.285889 -1.799164,3c8.854584,-8.069366 20.010483,-20.744354 35.083542,-37c5.478622,-5.908447 5.434845,-5.965149 0.899582,0c-5.353607,7.041504 -5.356491,8.014801 -4.497894,5c2.834702,-9.9534 7.645279,-22.946716 8.096207,-30c0.063782,-0.997498 0.443909,-0.121429 0.899582,3c0.288193,1.974182 0.25029,1.051636 1.799164,-9c2.147873,-13.939117 1.16304,-22.292908 1.799149,-23c0.636108,-0.707092 0.899582,3 1.799149,3c0.899582,0 -0.335373,-3.011597 0,-9c0.450653,-8.046692 0.155716,-11.147278 0.899582,-10c1.176163,1.813995 1.799164,4 1.799164,3c0,-1 -0.734955,-12.269531 1.799149,-25c1.660583,-8.342194 2.698746,-10 2.698746,-11c0,-1 -0.590698,-5.321533 3.598297,-14c5.545624,-11.488983 8.440475,-14.076111 8.096207,-15c-0.486847,-1.306549 -0.899582,-4 -0.899582,-11c0,-8 -1.821884,-16.222656 -4.497879,-27c-2.045013,-8.236023 -4.868118,-13.404022 -8.096222,-18c-3.131683,-4.458771 -7.196609,-8 -10.794922,-14c-1.799149,-3 -3.772903,-7.88855 -6.297043,-13c-0.967972,-1.960144 -1.119705,-5.132004 0.899567,-9c1.628006,-3.118484 1.799164,-4 1.799164,-3c0,1 -0.240128,2.036285 0,3c1.400162,5.61937 9.942154,9.375977 15.292831,19c2.991104,5.379974 2.354477,7.076111 2.69873,8c0.486862,1.306549 2.965851,2.776276 6.297043,8c4.907974,7.69632 7.690155,13.769928 8.995773,18c1.488632,4.823029 1.431442,10.029205 0.899582,16c-0.451981,5.074219 -2.69873,8 -1.799149,8c0.899567,0 1.147507,-1.663788 1.799149,-7c1.095779,-8.973083 -5.160446,-19.273804 -11.694504,-26c-6.085281,-6.264221 -15.864075,-12.142365 -23.389038,-19c-5.903046,-5.379578 -11.717911,-10.187988 -14.39325,-15c-2.991104,-5.37999 -2.143402,-10.076126 -1.799149,-11c1.460526,-3.919693 10.648941,-5.837723 13.493668,-9c1.422363,-1.581146 -2.332489,-3.106262 -8.096207,-8c-4.044083,-3.43367 -5.397461,-8 -5.397461,-12c0,-1 0.623795,0.541199 1.799149,0c0.8311,-0.38269 -0.41272,-1.693436 -0.899582,-3c-0.688507,-1.847763 0,-3 0,-4c0,-1 -0.765213,-1.525726 0,-1c1.711121,1.175568 1.350235,6.953323 0.899582,15c-0.670776,11.976807 1.03653,17.765366 2.698746,17c5.87677,-2.705978 6.885193,-11.29454 5.397461,-9c-5.880783,9.069962 -3.374771,19.073547 2.698746,23c6.644104,4.295319 14.441345,1.638824 21.589859,3c9.913208,1.887604 13.831924,11.836731 17.991562,23c2.941299,7.893616 6.824005,16.414215 8.096191,15c2.544403,-2.82843 0.011627,-6.160187 0.899582,-6c2.807983,0.506531 6.503738,1.973236 6.297058,1c-1.848618,-8.705017 -12.782364,-23.033539 -24.288605,-32c-10.233353,-7.974533 -17.023499,-9.61731 -16.192413,-10c1.175369,-0.541199 5.937744,-1.925995 7.196625,-9c0.890152,-5.002075 -8.403122,-8.65625 -10.794937,-16c-0.306229,-0.940277 2.763321,-0.308762 7.196625,1c5.49884,1.623306 11.662079,5.085571 17.991562,8c4.475616,2.060806 4.098907,2.61937 2.69873,-3c-1.200638,-4.818573 2.619629,-3.34053 6.297058,9c3.499008,11.741837 4.509491,18.839813 5.397461,19c5.615967,1.013092 9.967972,-18.015411 16.192413,-14c6.272858,4.046661 3.459381,18.648682 -3.598312,28c-3.270752,4.333649 -2.844269,3.81424 5.397446,-4c9.727692,-9.223114 17.09201,-14 17.09201,-14c-2.69873,4 -6.27298,10.770233 -5.397491,11c1.957703,0.513733 7.063843,-8.020752 11.69455,-20c4.393036,-11.364502 -0.636108,-14.707108 0,-14c0.636047,0.707108 0.621796,1.071793 1.799133,6c1.460297,6.112686 4.486115,12.757111 5.397461,19c0.288177,1.974182 1.347809,2.062042 1.799133,-4c0.074249,-0.996597 0,0 0,5c0,8 2.025818,15.880493 4.497925,22c1.984497,4.912567 2.69873,6 2.69873,7c0,1 1.629364,2.443756 -0.899597,10c-2.261932,6.758514 -8.995789,13 -11.694489,17c0,0 2.63205,-7.872894 7.196625,-5c0.782806,0.492706 -0.962097,3.960754 -4.497925,11c-5.495148,10.940063 -9.015747,23.37616 -6.296997,34c1.651154,6.452209 5.121674,11.541199 6.296997,11c0.831116,-0.38269 -0.263489,-2.707092 -0.899567,-2c-0.636078,0.707092 0,2 0,7c0,4 0.899567,8 0.899567,8c-1.799133,-4 -5.931793,-16.487 -8.096191,-15c-2.419861,1.662506 3.462372,10.0466 6.297058,20c1.717194,6.029602 2.54303,7.147278 1.799133,6c-1.176147,-1.813995 -0.899567,-5 -0.899567,-4c0,1 0.899567,1 0.899567,2c0,1 0.899597,1 0.899597,2c0,1 -0.835846,3.061951 0,10c1.36142,11.300873 6.387543,16.026489 5.397461,20c-1.018768,4.088684 -4.835571,8.118103 -6.297058,15c-1.307159,6.155365 -2.231445,12.038727 -1.799133,15c0.455658,3.121429 2.69873,5 4.497864,8c1.799194,3 3.598328,5 5.397491,8c1.799164,3 3.106201,6.112366 1.799164,11c-1.380402,5.161926 -4.308838,8.07843 -5.397461,11c-1.539551,4.131714 -2.64975,11.09021 -1.799194,16c0.916138,5.287994 5.293335,8.119263 8.995789,12c7.881348,8.260925 20.532074,13.440002 23.389038,19c3.155029,6.140015 1.288788,14.054138 1.799164,17c0.916107,5.288025 5.397461,12 8.995789,16c1.799133,2 2.69873,7 2.69873,11c0,1 -0.263519,3.707092 -0.899597,3c-0.636047,-0.707092 -0.620026,-2.080261 0,-5c0.462158,-2.17627 2.320648,-6.15686 4.497894,-12c1.539551,-4.131714 5.109131,-8.571106 7.196625,-13c1.320221,-2.801086 1.568359,-7.418884 -2.69873,-9c-2.560242,-0.948669 -3.419189,-2.064575 -2.69873,-7c0.455658,-3.12146 -0.899567,-5 -2.69873,-6c-1.799164,-1 -4.924561,-3.149353 -5.397461,-4c-1.057526,-1.9021 -2.971497,-2.769348 -3.598328,-4c-1.827454,-3.587952 -0.76709,-5.173096 -1.799164,-6c-1.631805,-1.307434 -3.598297,-2 -2.69873,-2c0.899597,0 7.337738,4.579712 12.594086,7c1.858398,0.855713 1.730682,0.38269 0.899597,0c-3.526062,-1.623596 -8.438599,-8.443542 -13.493683,-10c-0.866943,-0.266937 -0.207489,0.303223 0.899597,1c3.2276,2.031433 7.985443,1.876892 11.694489,6c3.709045,4.123108 2.062653,8.292908 2.698761,9c0.636078,0.707092 1.089966,0.714111 3.598297,3c2.951508,2.689758 2.69873,8 2.69873,11c0,1 1.799164,2 2.69873,2c0.899597,0 1.163086,0.292908 1.799164,1c0.636078,0.707092 0.158539,0.486267 -1.799164,1c-0.875488,0.229736 -4.156403,-2.437988 -8.995758,-9c-4.112671,-5.57666 -6.784058,-9.702698 -8.096191,-13c-1.500519,-3.77063 -1.476379,-5.550354 -5.397491,-8c-4.223175,-2.638367 -8.301636,-1.851929 -10.794952,-3c-1.175323,-0.541199 -2.519531,-2.108856 -1.799133,-5c1.400177,-5.619385 4.124329,-6.188751 3.598297,-7c-1.66333,-2.565369 -4.636383,-0.051331 -7.196594,-1c-4.26709,-1.581146 -4.739502,-4.076904 -3.598328,-8c1.490479,-5.123962 4.922363,-8.118317 4.497894,-9c-1.530457,-3.178925 -5.884338,-3.693451 -5.397491,-5c0.344269,-0.923889 1.312347,-0.693451 1.799164,-2c0.344238,-0.923889 -4.699127,0.387512 -4.497864,8c0.118164,4.470215 6.854797,4.674988 11.694489,8c1.082184,0.7435 -1.75882,7.549164 -2.69873,11c-0.782074,2.871277 0.986481,3.533752 6.297028,5c2.760864,0.762268 0.714661,1.97699 0,10c-0.280304,3.146912 6.153198,0.121338 8.995789,0c3.706329,-0.158203 5.637604,5.044983 6.297058,11c0.453186,4.092224 4.446625,-2.541321 8.096222,1c2.79425,2.711365 -4.409821,9.824402 -2.698761,11c1.530457,1.051453 4.153656,0.076111 4.497894,1c1.460541,3.919678 -1.530457,5.821106 0,9c0.848938,1.763367 6.64093,-5.682373 3.598297,-2c-5.740814,6.947937 -5.39743,10 -5.39743,11c0,2 -1.243866,1.923889 -0.899597,1c0.486847,-1.30658 0.647736,-2.086121 2.69873,-9c2.407074,-8.114197 -3.549835,-14.676819 -8.096191,-14c-1.993744,0.296814 -1.643463,0.147278 -0.899597,-1c2.352295,-3.627991 1.799164,-6 0.899597,-6c-3.598297,0 -5.53183,1.525757 -6.297058,1c-3.422211,-2.351135 -1.646729,-9.377502 -2.69873,-11c-1.663361,-2.565369 -3.666779,-0.61731 -4.497894,-1c-1.175323,-0.541199 -0.871277,-5.412048 -2.69873,-9c-0.626801,-1.230652 -2.439667,0.981628 -7.196625,2c-0.883362,0.189148 1.018921,-3.020233 0,-10c-0.322205,-2.207184 -3.322571,-1.458801 -4.497894,-2c-0.831116,-0.38269 3.444,-8.17157 0.899567,-11c-1.272156,-1.414215 -3.598297,0 -3.598297,-1c0,-4 3.756256,-9.0979 2.69873,-11c-0.472931,-0.850647 -1.799164,0 -2.69873,0c-1.799133,0 -1.66626,-1.94342 0,-7c0.978455,-2.96933 -4.497864,-6 -8.995789,-6c-1.799133,0 -1.698242,-1.918304 0.899597,-6c1.873352,-2.943359 0,-4 -4.497894,-4c-3.598328,0 -4.978149,-1.072571 -4.497894,-3c1.400208,-5.619385 3.874084,-8.458801 2.698761,-9c-0.831116,-0.38269 0.74823,-1.522156 3.598297,-8c1.249817,-2.840729 0,-3 0,-4c0,-1 1.704193,-3.552795 0.899567,-4c-4.023041,-2.236053 -7.70697,7.054138 -7.196625,10c0.916107,5.287994 7.845581,10.119598 13.493683,16c9.331757,9.715515 7.963013,19.228363 8.995789,22c0.973694,2.613129 1.839447,2.549164 0.899567,6c-1.042755,3.828369 0.448883,7.953308 0.899567,16c0.167694,2.994202 0.446381,3.907776 0.899597,8c0.109894,0.992493 1.588074,4.152252 0.899567,6c-0.486877,1.306549 -1.422394,4.418884 0,6c1.422333,1.581116 4.566376,0.61731 5.397461,1c3.526062,1.623596 7.51886,4.792786 7.196625,7c-0.203796,1.395935 -8.66748,-0.142334 -16.192383,-7c-7.870728,-7.17276 -13.626587,-17.94342 -15.292847,-23c-1.956909,-5.93866 -1.03653,-14.234619 -2.69873,-15c-1.175323,-0.541199 -3.407257,1.882355 -3.598328,6c-0.327698,7.061676 4.257935,12.232727 8.995789,18c5.147339,6.265717 10.159546,9.473267 15.292847,13c3.826141,2.628662 7.255981,5.877686 8.995758,7c5.610657,3.619446 8.501465,6.4505 10.794952,9c2.293457,2.5495 4.035736,6.82373 4.497864,9c0.413361,1.946472 0.432312,5.038757 0,8c-0.455658,3.12146 -0.899567,5 -0.899567,6c0,1 0,2 0,1c0,-2 0.910034,-7.846924 -4.497864,-14c-6.286621,-7.152771 -10.750244,-11.060242 -16.192444,-16c-4.46167,-4.049805 -7.34317,-8.702454 -13.493652,-16c-5.670471,-6.727997 -8.97229,-13.142059 -10.794922,-24c-1.201355,-7.156586 -1.988892,-12.023346 -0.899567,-22c0.766418,-7.019562 0.5513,-11.010712 0.899567,-18c0.450439,-9.041534 -1.873596,-15.405334 -4.497925,-22c-1.500519,-3.77063 -1.324036,-5.881683 -0.899567,-5c1.530457,3.178925 11.674286,11.549744 13.493652,25c1.203888,8.899933 0,10 0.899628,7c0.899567,-3 3.478394,-9.925507 0,-17c-3.36972,-6.853363 -12.057983,-9.41156 -16.192413,-13c-7.019257,-6.092285 -11.632141,-16.207825 -13.493683,-24c-1.154449,-4.832489 2.513824,-8.97699 1.799164,-17c-0.280334,-3.146881 0.09552,-2.049652 0.899567,0c3.072235,7.831757 7.298737,21.920288 11.694519,29c1.842438,2.967377 0.349945,3.529297 -2.69873,-1c-6.752808,-10.03244 -10.054321,-22.116516 -8.995789,-28c2.293457,-12.747559 6.802032,-18.817596 3.598297,-28c-2.057312,-5.896576 -2.467957,-7.203003 -1.799133,-6c1.495544,2.690002 4.603027,9.967651 6.297058,17c0.959381,3.982788 5.39743,-0.630676 5.39743,-13c0,-8.246216 -7.134247,-14.207825 -8.995758,-22c-0.230865,-0.966492 4.336304,1.766937 6.297058,11c1.461426,6.881897 -1.644897,7.374359 -2.69873,-3c-1.517487,-14.938354 11.576874,-33.698029 16.192383,-30c0.729767,0.584717 -0.634644,1.346191 -2.69873,3c-1.631805,1.307465 -4.198181,2.144684 -4.497864,-1c-0.858185,-9.005005 2.6987,-20 2.6987,-27c0,-2 0,-1 0,0c0,2 -0.206665,3.973236 0,3c0.924316,-4.352509 7.165527,-10.630066 3.598328,-22c-2.13623,-6.808884 -4.900208,-7.894424 -4.497894,-7c2.011505,4.472137 5.924438,9 7.196594,9c1.272217,0 1.211334,-6.644196 -2.6987,-14c-4.219208,-7.937393 -8.963318,-10.37822 -7.196655,-10c4.756989,1.018372 8.184875,3.995132 8.096222,3c-0.451996,-5.074203 -7.555756,-11.931595 -9.895355,-21c-0.248016,-0.961243 4.724518,0.880508 7.196625,7c1.984497,4.912567 3.64447,9.683777 4.497864,10c4.26709,1.581146 3.598358,-11 3.598358,-10c0,8 5.445374,28.501251 -0.899597,28c-0.897339,-0.070892 1.060974,-5.918686 6.297028,-19c2.785095,-6.958069 3.921478,-7.983841 3.598328,-4c-0.903229,11.135162 -10.323151,24.593109 -11.694489,33c-0.160522,0.983948 -0.081604,-6.215332 2.69873,-19c2.005371,-9.221207 5.38092,-16.712006 6.297028,-22c0.510345,-2.945862 -0.278168,-4.223587 0.899597,1c1.980438,8.783691 1.112061,23.145569 -4.497925,33c-6.937744,12.18692 -8.902771,15.093658 -8.096191,14c2.056335,-2.78833 3.846313,-5.961243 3.598328,-5c-2.3396,9.06839 -9.895355,23 -14.39328,32c0,0 3.229645,-3.353546 3.598358,-2c2.658417,9.760468 0.427734,23.593109 1.799133,32c0.481537,2.951874 -5.605743,-0.429688 -7.196625,-12c-2.993317,-21.769897 6.838043,-34.417084 15.292847,-43c10.37619,-10.533508 22.615448,-18.029053 20.690277,-28c-1.623962,-8.410767 -8.229401,-11.228363 -7.196625,-14c0.486847,-1.306564 3.437103,0.862411 8.995789,-7c4.233368,-5.987839 2.69873,-8 4.497864,-6c3.598328,4 5.051056,5.627991 2.698761,2c-2.975464,-4.589081 -3.488129,-6.095581 0,-1c4.148682,6.060608 2.017181,21.990616 -7.196625,27c-0.808105,0.439346 3.950531,-12.702286 10.794922,-8c2.295654,1.577194 -5.281006,15.738373 -14.39325,30c-4.068451,6.367554 -10.198944,11.690002 -11.694519,9c-0.668823,-1.203003 15.862244,-5.658142 11.694519,-11c-2.947021,-3.777283 -14.08197,11.575989 -24.288605,18c-1.750427,1.101715 -1.4039,0.828064 -0.899567,0c2.715881,-4.45929 13.450623,-6.103455 26.987335,-13c17.935394,-9.137512 26.565186,-15.304474 25.188171,-19c-0.486847,-1.306564 -1.653137,1.837708 -4.497864,5c-2.844757,3.162292 -1.839233,0.634308 0,-9c2.240906,-11.738586 -2.582092,-15.114685 -1.799164,-14c3.228088,4.595993 8.888275,7.042175 10.794922,1c2.977661,-9.436279 -0.860992,-16.28978 0,-16c3.104309,1.04483 7.283386,4.334335 10.794952,12c1.290833,2.817947 0.899567,1 -1.799164,-4c0,0 3.233002,7.133041 8.995758,26c3.385284,11.083252 -2.205322,6.74353 4.497894,0c0.667023,-0.671005 1.348206,12.010376 0.899597,24c-0.450165,12.031189 -3.394531,16.395966 -3.598297,15c-0.322235,-2.207184 0.569153,1.611572 -2.698761,17c-1.461456,6.881897 1.992157,7.551086 6.297058,9c3.104279,1.04483 4.224365,16.087463 7.196625,27c1.648682,6.053192 3.557983,5.450836 4.497864,2c0.260712,-0.957092 -1.042938,4.313751 -5.39743,16c-3.848877,10.329285 -7.185028,15.160187 -6.297058,15c5.615967,-1.013092 8.851654,-0.9711 9.895355,5c1.581879,9.050293 1.729279,20.273468 4.497864,21c2.476349,0.649841 5.66098,-10.707092 6.297058,-10c6.360992,7.071075 -1.979309,20.065674 -0.899567,31c0.904999,9.16449 3.529938,16.039856 4.497864,18c2.52417,5.11145 5.148773,13.763245 8.096222,25c2.321625,8.850952 3.404816,13.227325 7.196625,17c4.292023,4.270386 5.408691,11.930023 9.895355,20c2.006531,3.609009 0.674835,7.462585 3.598297,10c0.709076,0.615417 1.616547,3.743469 2.698761,3c2.419861,-1.662537 -0.899597,-6 -1.799164,-6c-0.899597,0 0.857544,1.07196 3.598328,3c4.432404,3.118103 9.476959,6.31073 10.794922,8c1.863861,2.388977 1.799164,6 2.69873,7c1.799164,2 4.497894,6 8.096222,10c1.799133,2 2.768555,6.558044 6.297028,12c0.743866,1.147278 0.899597,2 1.799164,3c0.899567,1 0.43808,0.406006 -0.899567,-2c-1.495575,-2.690002 -4.950806,-13.575073 -15.292847,-23c-4.056458,-3.696777 -7.196625,-6 -7.196625,-6c3.598328,3 5.539734,4.828247 3.598328,3c-11.809235,-11.120667 -25.839508,-28.777283 -28.786499,-25c-0.833557,1.068359 9.02594,9.417419 17.991547,12c0.870819,0.250854 -8.047607,-4.998535 -24.288605,-23c-8.570282,-9.499268 -7.976563,-11.430481 -4.497894,-10c5.659729,2.327393 2.100525,0.740509 -0.899567,-9c-3.832703,-12.443787 -1.058105,-28.513733 0.899567,-28c0.875488,0.229767 -0.263489,2.707092 -0.899567,2c-0.636108,-0.707092 -1.54007,-16.018372 -6.297058,-15c-0.883331,0.189117 -0.109222,7.506531 2.69873,7c3.55188,-0.640717 -4.823883,-16.470703 -9.895355,-33c-2.394592,-7.804749 -1.009644,-6.93399 0,-5c1.627991,3.118469 0.901855,2.106567 0,-12c-0.637695,-9.974854 1.644836,-2.82843 -0.899567,0c-0.636078,0.707092 -4.087585,-1.168213 -9.895355,-15c-3.609558,-8.596497 -1.799164,-8 0,-4c2.69873,6 -1.651276,4.277985 -1.799164,-12c-0.221039,-24.329803 4.121094,-29.743408 2.69873,-25c-0.568909,1.897369 -0.87854,3.098969 -0.899567,-2c-0.088226,-21.377319 2.69873,-36 2.69873,-36c0.899597,5 0.66803,15.691467 -1.799164,15c-9.106903,-2.552307 -19.183105,-31.675446 -13.493652,-38c1.422363,-1.581146 3.747833,4.996552 3.598297,1c-0.450165,-12.031189 -6.042633,-20.781128 -5.397461,-22c3.321198,-6.274521 11.644562,4.06842 7.196625,0c-11.829559,-10.820114 -19.79071,-18 -19.79071,-18c7.196594,3 11.925385,5.966507 11.694519,5c-1.861542,-7.792175 -12.041931,-16.296997 -9.895355,-19c1.331207,-1.676331 7.196594,4 13.493652,11c2.69873,3 1.898499,1.070206 1.799164,-6c-0.127258,-9.054276 4.159302,-18.324921 5.397461,-18c2.768616,0.726547 1.523407,5.458801 2.69873,6c0.831116,0.38269 1.782928,-1.810898 0.899567,-2c-4.756958,-1.018372 -6.844604,17.850769 -9.895355,33c-2.197113,10.910309 -1.723602,15.039825 -0.899567,13c3.969086,-9.825119 6.383942,-14.983093 5.397491,-9c-2.480865,15.046417 -1.535034,22.225159 -0.899597,21c6.975342,-13.448975 8.121094,-36.602341 16.192383,-50c5.707275,-9.473587 8.44046,-9.923874 8.096222,-9c-0.486847,1.306564 -10.562683,23.672821 -16.192413,19c-2.598907,-2.157181 11.425659,-19.244415 26.987335,-36c5.046722,-5.433884 0.731415,-4.032288 -5.397461,5c-11.154724,16.439011 -9.408234,32.835281 -6.297028,30c7.931976,-7.228592 7.596191,-11.307419 1.799133,1c-6.907227,14.664368 -14.393219,28 -12.594086,29c3.598297,2 4.441132,-7.023376 1.799164,1c-4.596924,13.960205 -11.948639,25.851227 -22.489441,35c-5.113068,4.437805 -9.58783,7.367035 -14.39328,12c-3.397949,3.276001 -7.187805,8.790253 -8.096191,16c-0.499084,3.961334 -2.043274,12.934143 -1.799164,20c0.318298,9.212738 2.939911,23.79483 8.096222,34c5.641571,11.165588 11.197906,17.445465 17.09198,25c5.001251,6.410248 7.026825,8.415283 6.297028,9c-6.923248,5.547058 -23.080353,-8.154388 -30.585632,-23c-5.574799,-11.027039 -4.497894,-21 -3.598328,-31c0.899597,-10 1.64798,-23.477844 5.397491,-32c4.275085,-9.716766 13.638519,-17.809845 24.288605,-28c8.209961,-7.855408 16.734467,-15.372498 25.188171,-25c5.793182,-6.597565 11.518036,-19.756119 11.694519,-28c0.218231,-10.19516 -3.355774,-20.693634 -7.196625,-27c-2.139709,-3.513199 -4.497894,-8 -5.397491,-8c-0.899567,0 3.646942,4.765533 5.397491,16c2.001801,12.847107 -0.270874,20.411118 -6.297058,31c-6.541504,11.494415 -14.843811,19.707153 -26.087738,28c-10.413757,7.680511 -18.497437,10.408966 -26.087769,19c-5.811462,6.577667 -10.406952,12.782745 -12.594086,20c-2.368225,7.814697 -1.467377,16.266022 1.799133,24c3.082336,7.297913 8.482513,13.604645 12.594086,19c5.001953,6.563751 8.752563,13.228851 12.594116,18c3.393829,4.215088 6.039856,8.21167 8.096191,11c0.806549,1.093658 -0.024078,1.229767 -0.899597,1c-5.873108,-1.541229 -15.32428,-7.84433 -23.389008,-26c-5.92099,-13.32959 -6.765869,-27.702026 0,-42c6.039978,-12.763977 15.920135,-23.40567 31.485229,-36c11.499786,-9.304932 24.056427,-18.241791 34.18396,-30c5.278961,-6.128937 11.534363,-14.835144 10.794952,-25c-0.619537,-8.516205 -8.995789,-17 -14.39325,-23c-5.397461,-6 -7.999481,-9.113663 -9.895386,-11c-4.292023,-4.270386 -9.154968,-6.345184 -13.493652,-8c-1.902649,-0.725693 -1.430573,-0.508072 0.899567,2c5.559479,5.983902 5.899078,16.590561 -3.598297,26c-24.856964,24.626862 -48.16449,40.693451 -47.677643,42c0.688507,1.847748 6.469727,-1.492188 4.497894,2c-7.470337,13.230255 -34.900604,35.90683 -38.681854,27c-0.85849,-2.022186 9.157562,-3.348633 29.686066,-10c28.131348,-9.114746 41.932159,-17.917603 39.581421,-19c-3.324371,-1.530731 -5.097168,3.644012 -9.895355,6c-8.591095,4.218384 -17.413849,6.604614 -16.192383,7c15.925873,5.155334 52.981049,-4.15329 52.175537,-23c-0.190979,-4.467102 -10.438202,6.107544 -17.09201,14c-13.164642,15.615326 -38.778259,21.526855 -67.468353,29c-10.83371,2.82196 -9.63266,4.025757 4.497925,-1c25.775055,-9.167297 69.291809,-23.575287 63.870026,-34c-4.271484,-8.212997 -16.660767,11.970551 -32.384827,20c-24.591644,12.557678 -61.621765,13.958466 -61.171295,23c0.049744,0.998474 1.799164,0 5.397461,0c2.698761,0 1.799194,-1 -1.799164,-4c-10.794922,-9 -23.21785,-11.881531 -21.589844,-15c1.009613,-1.93399 14.322845,6.546753 37.782257,10c8.075531,1.188721 7.30838,-0.362579 -5.397461,-5c-26.769653,-9.770416 -58.026169,-13.907776 -57.572983,-18c0.109909,-0.992493 12.388809,4.692047 25.188187,9c21.299438,7.168854 36.705383,11.990265 36.88269,10c0.451996,-5.074219 -23.222412,-7.589844 -53.97467,-18c-12.529984,-4.241608 -16.828506,-5.707092 -16.192429,-5c1.272217,1.414215 13.289383,5.493164 50.376389,11c27.770538,4.123505 35.983093,3 35.983093,3c-8.995789,-2 -43.746124,-7.911438 -67.468338,-17c-21.330017,-8.172028 -23.148895,-11.963715 -23.389023,-11c-1.400162,5.619385 18.585846,11.809662 43.179749,16c31.235901,5.321991 47.588989,4.995148 47.677612,4c0.903992,-10.148407 -41.641052,-16.178619 -62.970444,-25c-15.500519,-6.41069 -21.114777,-9.881668 -20.690292,-9c1.530457,3.178925 8.217575,12.892685 22.489441,19c24.230072,10.368683 48.487671,13.997803 62.070892,15c1.795197,0.132446 1.5737,1.82724 -6.297028,9c-12.541595,11.429382 -44.32428,22.34314 -64.769623,39c-2.052246,1.671967 6.467911,-6.342529 29.686066,-21c12.243988,-7.729553 12.506836,-6.131683 2.69873,2c-15.432343,12.794647 -29.394058,21.178558 -40.481003,32c-0.955994,0.933105 -0.814331,-0.669952 2.698715,-5c18.074493,-22.277893 48.731934,-56.331818 57.573029,-45c3.334137,4.273499 -22.978882,16.120392 -42.280197,30c-15.717117,11.302246 -19.09787,13.255981 -14.393234,6c13.389572,-20.650848 39.505737,-43.931519 43.179718,-39c5.290039,7.100647 -24.776428,19.158142 -40.481003,31c-3.722321,2.806793 -2.614288,-4.233337 17.091995,-21c19.234528,-16.365265 23.855957,-14.27475 8.995789,-3c-18.350998,13.923309 -26.325211,16.844574 -25.188202,15c7.559143,-12.263367 43.948608,-25.908875 37.782288,-37c-8.27298,-14.88031 -34.968872,24.879333 -46.778061,36c-1.941422,1.828217 3.268158,-7.40387 17.09198,-21c18.327499,-18.025635 26.456802,-19.55957 20.690292,-14c-10.193817,9.828033 -18.191925,14.723999 -21.589859,18c-0.961105,0.926605 -2.435257,0.707092 -1.799179,0c0.636108,-0.707092 1.567825,-2.344574 6.297073,-6c4.306625,-3.328796 5.287094,-2.075378 0.899567,6c-6.461075,11.891785 -13.116745,28.806732 -24.288605,49c-4.053909,7.327484 -5.134003,8.707092 -4.497894,8c0.636108,-0.707092 1.774445,-1.352509 2.698746,3c1.033386,4.866241 -1.799179,11 -1.799179,20c0,6 -0.921021,10.779968 2.698746,15c2.238281,2.609436 7.477081,8.904938 8.995789,15c2.213852,8.88501 3.135895,17.952393 2.698715,26c-0.447113,8.231232 -1.799149,14 -1.799149,24c0,4 2.820602,7.556122 4.497894,14c2.512833,9.65387 0.450256,23.965973 0,35c-0.244583,5.993835 -1.662384,13.079712 -3.598312,17c-2.524139,5.11145 -5.568909,9.779785 -10.794937,15c-4.825119,4.819763 -10.659103,6.434631 -8.995773,9c0.526001,0.811218 0.969879,-0.898499 4.497879,-4c5.510925,-4.844666 9.960953,-10.954895 14.39325,-19c2.739502,-4.972534 5.384277,-8.528137 7.196625,-14c1.89061,-5.70816 1.187775,-11.025818 0.899567,-13c-0.911316,-6.242889 -3.30513,-8.647095 -4.497864,-12c-2.012238,-5.656525 -1.143097,-7.941895 -1.799179,-12c-1.440872,-8.912598 -1.799149,-12 -1.799149,-19c0,-5 -0.899567,-8 -0.899567,-11c0,-2 0,-7 0,-11c0,-3 0.20668,-7.026764 0,-8c-0.462173,-2.176239 -1.198868,-4.753113 -1.799164,-6c-2.164398,-4.495667 -0.679459,-9.132019 -2.69873,-13c-1.627991,-3.118469 -3.598312,-7 -5.397461,-11c-1.799179,-4 -2.443268,-7.850494 -2.698746,-11c-0.571243,-7.042511 1.8508,-13.155426 3.598312,-22c1.830765,-9.265961 4.80658,-16.876038 6.297043,-22c2.282333,-7.846222 4.497894,-15 6.297043,-20c1.799164,-5 1.799164,-6 1.799164,-5c0,1 -1.348236,2.946716 -1.799164,10c-0.382614,5.984894 0.857544,9.07193 3.598312,11c4.432419,3.118103 11.242386,7.671356 13.493668,12c3.429047,6.59317 2.796234,15.25058 0.899597,22c-2.399078,8.537415 -7.555588,14.898102 -8.995789,22c-1.203339,5.933868 -1.473801,12.305389 0.899567,17c2.203629,4.358826 6.314896,10.524658 3.598312,18c-3.369507,9.272003 -10.794922,17 -16.192398,24c-5.397461,7 -13.292374,16.521729 -15.292816,21c-2.91272,6.520447 -6.145737,12.522156 -8.995789,19c-1.249847,2.840729 -1.799149,8 -0.899567,8c0.899567,0 0.113556,-5.962982 2.698715,-16c2.823242,-10.961334 6.958939,-21.235413 12.594101,-28c3.457565,-4.150574 10.896866,-10.835052 16.192398,-15c3.671814,-2.887848 10.141663,-9.736511 16.192398,-17c5.635162,-6.764587 9.191254,-13.783264 5.397491,-19c-3.621246,-4.979492 -8.995789,-8 -13.493668,-13c-2.698746,-3 -4.902634,-6.90152 -4.497894,-11c0.43898,-4.445435 7.115952,-8.098297 8.995773,-15c0.782043,-2.871277 -0.446396,-6.907776 -0.899582,-11c-0.769394,-6.94754 0.42067,-11.198914 -0.899567,-14c-2.087494,-4.428894 -5.90477,-5.367737 -8.995804,-9c-2.228943,-2.619263 -3.142624,-4.878571 -3.598297,-8c-0.288193,-1.974182 -0.344269,-0.923889 0,0c0.973709,2.613129 5.489029,7.916626 9.89537,14c6.432541,8.880798 10.300064,16.90152 9.89534,21c-0.438965,4.445435 -4.257782,9.326172 -10.794937,15c-1.58548,1.376099 -4.042206,3.878571 -4.497879,7c-0.288193,1.974182 -0.329742,6.022491 0,9c0.453171,4.092224 1.714874,6.103394 2.69873,7c2.508331,2.285889 5.564804,3.692535 7.196625,5c2.064117,1.653809 3.598297,4 3.598297,7c0,3 0.257202,7.21167 -1.799133,10c-2.419693,3.281006 -3.043015,3.923889 -2.698746,3c0.486847,-1.306549 4.48909,-5.790253 5.397446,-13c0.499115,-3.961334 -2.505219,-6.227325 -6.297012,-10c-4.292038,-4.270386 -6.631699,-5.385101 -9.89537,-8c-4.128235,-3.307617 -6.770126,-8.238525 -5.397476,-13c2.361603,-8.191956 11.884918,-12.714111 14.39325,-15c0.983856,-0.896606 1.101288,-1.902832 1.799164,-4c2.573685,-7.734009 2.04747,-12.222717 -0.899567,-16c-5.001282,-6.410248 -14.880737,-10.610992 -17.991562,-16c-4.006287,-6.940186 -1.518631,-15.778046 4.497894,-21c16.537781,-14.35376 32.384796,-19 43.179749,-25c1.799133,-1 0.683716,-0.20462 -10.794952,15c-11.921692,15.791443 -12.586639,14.700287 3.598328,2c17.141174,-13.450623 20.745789,-12.904205 17.991547,-11c-16.770782,11.594879 -34.76767,18.19577 -36.88269,22c-0.472931,0.850647 1.556,-0.647827 8.995758,4c13.354797,8.343109 20.666779,22.514221 22.489441,35c0.576385,3.948364 -0.660522,0.721954 -6.296997,-5c-10.376221,-10.533508 -19.577576,-18.380554 -25.188202,-22c-5.219345,-3.367035 -7.19664,-4 -6.297043,-4c0.899567,0 11.450363,-1.89682 24.288589,11c9.625763,9.669708 11.694519,23 11.694519,29c0,1 0.091492,-0.054169 -0.899567,-2c-5.7789,-11.346008 -12.594086,-21 -19.790741,-33c-1.799133,-3 -1.668579,-5.067749 1.799164,-4c10.110138,3.112946 20.166229,16.033539 22.489441,26c1.128265,4.840149 -1.797974,3.440796 1.799194,-7c4.911072,-14.254669 14.53772,-33.247162 21.589844,-30c0.831116,0.38269 0.170135,2.018036 0,3c-0.916107,5.287994 -4.266388,8.4935 -8.995758,17c-2.115051,3.80423 -0.450928,8.946716 0,16c0.318817,4.987427 2.097778,11.22937 3.598297,15c1.312164,3.297333 4.044678,4.907776 4.497894,9c0.549591,4.962524 -2.858459,11.914459 -5.397491,18c-2.882507,6.908844 -2.859467,12.254333 0.899597,15c6.061279,4.427246 11.694489,8 16.192413,10c4.497864,2 8.46405,4.776367 10.794922,10c2.152649,4.82428 2.514221,10.220215 5.397461,13c3.39798,3.276001 8.948425,8.653198 4.497894,24c-3.458374,11.925598 -5.183899,13.46109 -2.69873,15c6.137848,3.800812 14.354401,12.414551 20.690308,25c6.290009,12.494354 10.811401,27.591858 14.393219,39c1.22226,3.892822 2.087372,6.974182 1.799164,5c-0.455658,-3.12146 -2.139862,-4.832092 -3.598297,-9c-2.374176,-6.784851 -2.828522,-11.934143 -3.598297,-14c-1.088654,-2.92157 -3.028931,-5.658142 -7.196655,-11c-2.946991,-3.777283 -5.324554,-8.058594 -9.895355,-15c-2.656708,-4.034607 -4.254669,-7.228851 -8.096191,-12c-1.69693,-2.107544 -6.497406,-5.723999 -9.895355,-9c-0.96109,-0.926605 -2.23941,-6.264008 1.799133,-14c4.883972,-9.355438 13.413025,-15.098297 15.292847,-22c1.042725,-3.828369 -0.065308,-4.466125 -1.799164,-5c-5.055084,-1.556488 -11.059113,-3.473297 -16.192413,-7c-3.826141,-2.628662 -4.238281,-4.868286 -2.6987,-9c1.088593,-2.92157 0.893433,-3.835052 -0.899597,-4c-5.453278,-0.501709 -8.151398,-1.824615 -13.493683,-4c-4.548767,-1.852264 -2.5896,-4.878693 -4.497864,-7c-0.636108,-0.707092 -2.69873,-1 -6.297058,-4c-3.598297,-3 -6.607452,-5.856598 -6.297028,-9c0.572357,-5.796143 6.049683,-7.463562 9.895355,-14c2.201965,-3.742737 2.808777,-6.06601 1.799133,-8c-1.627991,-3.118469 -3.321716,-6.186005 -4.497894,-8c-1.487732,-2.294525 -4.944275,-3.907776 -5.397461,-8c-0.439667,-3.970032 -0.148712,-6.085541 2.69873,-12c3.42218,-7.108276 4.954285,-11.024323 5.397491,-16c0.451965,-5.074219 1.343475,-7.878571 1.799133,-11c0.576385,-3.948364 -0.704102,-8.388092 0.899597,-11c3.960754,-6.450897 12.436127,-8.0979 13.493652,-10c0.945862,-1.701294 -1.968933,-3.584717 -2.69873,-3c-2.307739,1.84903 -2.568542,8.05246 -1.799164,15c0.453186,4.092224 6.116699,6.17868 6.297028,9c0.318848,4.987427 -8.096161,9 -15.292786,13c-5.397491,3 -12.431549,5.616119 -16.192413,13c-3.654907,7.175842 -2.69873,11 -2.69873,10c0,-1 1.526489,-10.479828 12.594086,-20c14.032043,-12.070129 27.376923,-14.231171 34.18396,-19c8.677307,-6.079102 22.301331,-15.96402 20.690308,-27c-0.203796,-1.395966 -1.799164,-1 -1.799164,0c0,7 -10.879883,16.797272 -20.690308,22c-1.81546,0.962799 13.267181,3.997772 18.891144,-15c2.935822,-9.917114 -5.64798,-9.72641 -8.995789,-1c-7.576843,19.749878 -18.709503,37.062164 -13.493652,42c5.647583,5.346588 18.144257,3.367554 20.690277,10c3.255188,8.479736 1.367523,16.323669 2.69873,18c2.146576,2.703003 0.760681,9.648682 -6.297028,19c-1.635376,2.16684 -2.887787,6.07843 -1.799164,9c1.539581,4.131714 5.76712,11.692383 9.895386,15c1.631805,1.307465 4.497864,3 5.39743,3c0.899597,0 0.984528,0.575836 1.799164,1c6.36261,3.312775 10.054565,13.199188 16.192413,17c4.970306,3.07782 9.010986,1.903381 14.393219,3c4.511841,0.91925 9.877563,4.465302 13.493713,13c3.636383,8.58252 5.330688,15.042938 8.995758,22c2.650726,5.031616 3.598328,8 3.598328,14c0,3 0,5 0,4c0,-1 0,-3 0,-7c0,-5 0,-10 0,-17c0,-2 0,-3 -0.899597,-4c-1.799133,-2 -2.791718,-2.906342 -3.598297,-4c-2.056335,-2.78833 -5.290894,-7.190277 -8.096191,-9c-1.739807,-1.122345 -3.49176,-2.190277 -6.297058,-4c-1.739777,-1.122345 -4.497894,-3 -6.297058,-5c-0.899597,-1 -1.666656,-1.173096 -2.69873,-2c-1.631836,-1.307465 -4.085175,-1.693451 -3.598297,-3c0.344238,-0.923889 1.778778,0.095428 5.39743,1c4.47522,1.118652 8.166779,1.789856 10.794952,3c3.716827,1.711426 8.719055,4.410919 11.694519,9c2.352295,3.627991 3.703461,6.967651 5.397461,14c0.959412,3.982788 1.799164,8 1.799164,11c0,5 0.329742,5.977509 0,3c-0.906372,-8.184418 -5.169312,-16.161194 -8.096191,-21c-2.509796,-4.149231 -3.322571,-5.458801 -4.497894,-6c-0.831116,-0.38269 -6.643494,-7.627991 -8.995789,-4c-0.743866,1.147278 1.623596,1.279572 5.397491,4c7.770844,5.601715 11.970215,10.04834 12.594086,15c0.908356,7.209747 0,14 0,17c0,1 0,4 0,3c0,-1 0.432129,-5.074829 -0.899597,-13c-1.362122,-8.106018 -7.196625,-18 -8.096191,-19c-4.497894,-5 -5.511749,-5.678619 -8.096222,-7c-4.765503,-2.436493 -6.416656,-3.569519 -9.895355,-5c-5.659698,-2.327393 -8.096191,-4 -13.493652,-6c-5.397491,-2 -8.963104,-3.074371 -12.594086,-5c-9.810425,-5.202728 -14.981995,-6.191864 -20.690308,-12c-6.117859,-6.224854 -7.471497,-15.082642 -5.397461,-23c0.795349,-3.036163 2.129944,-7.563934 5.397461,-11c2.356232,-2.477783 6.919891,-7.410919 9.895386,-12c1.176147,-1.813995 1.535645,-3.707092 0.899567,-3c-0.636108,0.707092 -3.844635,4.736511 -9.895355,12c-5.635162,6.764587 -6.989288,8.390991 -8.995789,12c-1.495575,2.690002 -1.678162,7.566498 0.899567,11c2.881989,3.838745 9.75354,6.459778 17.09201,9c7.082642,2.451691 15.37973,3.533752 20.690277,5c2.760803,0.762268 5.397461,1 4.497864,1c-1.799133,0 -8.97168,-2.109192 -19.79071,-5c-11.669495,-3.118042 -21.412323,-5.505219 -23.389008,-13c-2.040497,-7.736603 5.234924,-15.040253 11.694519,-22c4.136139,-4.456421 7.634033,-9.823761 8.096191,-12c0.206696,-0.973236 -1.550873,-4.222717 -4.497894,-8c-5.001251,-6.410248 -11.129578,-10.385101 -14.39325,-13c-3.096161,-2.480713 -2.69873,-4 -1.799133,-6c1.799133,-4 5.989471,-9.367035 10.794922,-14c3.397949,-3.276001 7.086334,-10.980865 6.297028,-17c-1.046143,-7.977936 -0.899567,-15 -1.799164,-15c-0.899567,0 0.987823,1.91803 0.899597,8c-0.221893,15.295074 -11.551117,28.22702 -24.288605,38c-5.338745,4.096222 6.205292,1.917969 20.690308,-18c8.852142,-12.172394 7.196625,-21 8.096191,-21c0.899567,0 21.68924,-1.461121 35.083527,-15c6.278961,-6.346725 8.881683,-22.617172 3.598328,-30c-3.16803,-4.426941 -4.234406,-3.292892 -3.598328,-4c0.636108,-0.707108 -0.99939,-0.842819 -3.598297,-3c-5.6297,-4.672821 -9.967621,-9.376419 -13.493652,-11c-0.831116,-0.38269 -0.892853,-1.122177 0,-1c3.681244,0.503769 10.96225,2.307449 12.594086,1c3.096161,-2.480713 12.948639,-13.282944 14.393219,-23c1.620117,-10.897552 -3.32254,-19.541199 -4.497864,-19c-0.831116,0.38269 0,2 0.899567,3c0.899567,1 1.07074,0.118484 2.69873,-3c4.038544,-7.735992 3.186157,-16.57663 -5.397461,-25c-7.68927,-7.545715 -10.794922,-10 -11.694519,-10c-0.899597,0 5.502319,-0.877991 15.292816,5c14.003326,8.407272 17.731232,28.03038 11.694519,45c-4.770966,13.411636 -14.542877,28.705048 -32.384796,35c-0.857422,0.302521 3.24118,1.885574 24.288574,-13c21.574585,-15.258362 13.158051,-41.608002 1.799194,-54c-7.731232,-8.434372 -9.402405,-8.892014 -8.995789,-8c7.56366,16.592346 19.765961,36.013275 10.794952,53c-9.108765,17.247406 -23.192963,27.588699 -39.581451,34c-16.907532,6.614334 -19.040222,6.800644 -17.991547,6c21.909729,-16.727386 55.744904,-32.340714 58.472565,-53c1.306274,-9.893997 -0.215363,-12.056061 -1.799164,-4c-3.126617,15.903458 -7.850128,30.190598 -31.485229,44c-16.415894,9.591385 -31.795746,16.823029 -33.284393,12c-0.652802,-2.115036 24.705322,-35.538025 33.284393,-25c2.560944,3.145721 -20.297577,27.120239 -26.987335,20c-1.452911,-1.546417 20.618591,-17.152039 17.09198,-15c-27.588867,16.835449 -29.589996,17.756622 -16.192413,8c11.110321,-8.090927 -21.189789,-11.933899 -17.991547,8c0.157928,0.984467 21.704163,-11.952225 22.489441,-4c0.904999,9.16449 -35.064819,5.500198 -51.27594,5c-1.798462,-0.055496 9.004456,1.736084 34.18396,1c17.109711,-0.500168 13.53183,-0.654282 -7.196625,2c-26.943787,3.45015 -46.668121,1.007492 -46.778076,2c-0.453156,4.092209 14.495667,2.288971 41.380585,-1c11.761108,-1.438797 3.752869,1.082001 -21.589844,5c-26.863403,4.153091 -46.778076,2 -46.778076,3c0,1 1.808014,0.087082 26.087769,-3c30.597107,-3.890305 33.43811,-3.510452 0,0c-33.185303,3.483902 -45.996597,0.441437 -43.179749,0c21.397034,-3.353226 33.202484,3.627808 18.891174,1c-30.809708,-5.657196 -46.644623,-10.870972 -45.878494,-12c11.154724,-16.439011 26.207474,15.724457 17.091965,11c-26.657181,-13.816132 -37.056168,-19.759674 -35.983109,-19c8.881149,6.287476 27.867859,11.204742 26.98735,11c-15.37764,-3.57576 -26.293625,-21.773758 -31.485245,-19c-0.810791,0.433182 -0.899582,1 0,1c0.899582,0 5.10524,3.58728 24.288605,15c8.867523,5.275528 7.13298,4.186478 -14.39325,-5c-25.264404,-10.781784 -32.860458,-36.541229 -26.987335,-35c0.875519,0.229752 28.362961,12.471573 16.192398,25c-0.933441,0.960892 -22.071014,-14.883667 -16.192398,-42c5.075745,-23.412903 14.324768,-17.38269 13.493683,-17c-11.753555,5.411957 -21.337601,22.113632 -18.891144,37c2.386963,14.524445 18.576065,27.302704 33.284378,31c6.20433,1.559616 4.320618,2.490936 -2.69873,-5c-17.653046,-18.839066 -9.592712,-47.328094 7.196609,-69c1.66037,-2.143219 0.946777,-1.916901 -8.995758,5c-11.639954,8.097748 -22.774155,16.759857 -22.489456,25c0.655029,18.959686 31.547623,29.156967 24.288605,39c-2.05632,2.78833 -30.254456,-22.672684 -18.891144,-51c12.178635,-30.359802 11.993439,-25.965118 -2.69873,-1c-14.341293,24.368927 3.097931,49.944366 16.192413,60c9.930054,7.625595 21.22554,10.218658 30.585648,13c6.145218,1.82605 10.693848,2.452942 6.297043,1c-18.574188,-6.137939 -27.933685,-14.919739 -25.188187,-13c23.898361,16.710434 51.180161,13.983215 50.376358,20c-3.064972,22.943207 -40.67131,-7.729462 -39.581421,-7c10.482285,7.015732 55.095032,31.474518 63.870056,4c0.425629,-1.332703 -22.776245,-3.413116 -51.275955,2c-3.656082,0.694412 1.862503,3.984894 26.98732,2c38.069855,-3.007568 48.484009,-9.778519 32.384796,-7c-36.261276,6.258255 -39.514969,11.032547 -14.393219,9c37.177216,-3.007935 46.751862,-7.762512 37.782288,-7c-35.392975,3.008759 -53.114014,10.782288 -43.179779,11c35.122833,0.769714 59.922546,-6.849258 59.372162,-9c-2.718719,-10.623856 -34.172302,8.499924 -60.271729,9c-2.698334,0.051697 5.597137,0.057983 37.782288,-8c35.333466,-8.846207 44.909027,-13.877899 40.480988,-13c-17.932068,3.555237 -46.124298,11.763977 -44.079285,20c2.675995,10.777344 58.899017,-32.842865 62.070862,-22c8.628326,29.495789 -45.787964,22.277771 -30.585663,16c37.113617,-15.325989 20.02713,-0.793228 -16.192413,9c-39.682251,10.729523 -55.765259,9.070068 -42.280151,7c44.108276,-6.770966 75.576569,-12.930862 71.06665,-12c-31.407684,6.482727 -88.608887,-1.034012 -88.15863,10c0.978363,23.975342 105.745331,27.11203 100.752747,-14c-0.481415,-3.96405 -32.598145,13.448181 -78.263275,22c-4.523254,0.847076 12.463196,7.445251 45.878448,-2c36.429779,-10.297363 30.502045,-6.88208 0.899567,1c-44.168182,11.760406 -48.760315,11.034546 -28.786499,11c39.05658,-0.067566 72.087463,-17.713837 66.568787,-15c-27.347046,13.447998 -83.66272,6.900482 -82.761169,22c0.119141,1.995605 25.012054,5.300079 60.271729,-6c19.424377,-6.225159 12.056763,-0.223267 -24.288605,8c-33.91217,7.67276 -34.957642,8.587982 -13.493683,6c37.54068,-4.526398 50.256714,-14.430481 46.778076,-13c-20.752289,8.533752 -67.469208,-3.065094 -66.568787,20c0.039032,0.999054 8.074402,3.355591 24.288635,3c18.9729,-0.416107 34.981293,-9.892456 33.284363,-12c-3.841522,-4.771149 -20.17392,15.281281 -41.380585,20c-8.864777,1.972504 -8.191742,1.407043 -5.397461,2c15.929718,3.380341 37.335876,0.092224 36.88269,-4c-0.109924,-0.992493 -17.244934,0.362457 -34.18399,12c-1.082153,0.7435 3.644318,3.237213 17.09201,2c5.453278,-0.501709 -11.272858,-5.460236 -9.895355,2c0.180878,0.979584 7.184998,-0.160187 6.297058,0c-8.42395,1.519623 -8.202942,3.706512 -1.799164,1c7.977051,-3.371429 5.703766,-3.835907 -3.598328,5c-1.934357,1.837433 6.278961,-9.298309 8.995789,-6c9.273071,11.257874 -8.269104,15.891724 -7.196625,14c5.468628,-9.645966 3.321747,-5.095062 4.497894,7c0.52063,5.353973 -2.889557,1.596924 0,-11c2.785095,-12.141449 4.571472,-10.583557 -0.899567,0c-6.417328,12.414124 -4.242035,30.154205 0.899567,29c6.235107,-1.399689 4.902283,-22.834839 5.397461,-22c7.542816,12.715912 -9.638184,25.21167 -11.694519,28c-2.419647,3.281006 -1.964355,8.241028 2.698761,12c6.222137,5.015778 16.471252,6.337494 18.891113,8c1.082214,0.7435 -2.756104,4.136292 -14.39325,-2c-5.204285,-2.744232 -7.725525,-19.945709 -7.196625,-26c0.74295,-8.503998 8.035126,-16.045837 11.694519,-22c6.194427,-10.078888 7.49115,-16.708466 5.397461,-23c-1.286835,-3.867004 -1.695648,-12.651764 1.799164,-17c12.826752,-15.959045 20.135101,-17.873138 13.493683,-12c-13.938324,12.325897 -5.872345,30.583588 -9.895355,44c-2.816132,9.391479 -15.647369,12.282928 -17.09198,22c-1.620117,10.897552 5.825165,14.861938 7.196625,21c1.31897,5.903381 1.833862,10.906067 6.297028,13c8.162598,3.829559 13.870453,6.256592 15.292847,11c3.129181,10.435516 -2.062653,16.292908 -2.698761,17c-0.636078,0.707092 0.859253,0.450836 1.799164,-3c3.649567,-13.399292 -11.414185,-16.027924 -25.188202,-24c-10.155701,-5.877899 -15.557281,-16.467194 -17.991547,-23c-2.40976,-6.467163 15.353546,-20.626617 14.39325,-30c-0.719788,-7.025665 -14.174225,-2.455505 -25.188202,-12c-7.304443,-6.329895 -2.790436,-22.040405 -3.598297,-32c-0.903229,-11.135162 -4.606995,-23.658875 -4.497894,-37c0.033722,-4.12294 1.867645,-3.38269 2.698761,-3c3.526031,1.623596 4.497864,4 6.297028,6l-0.899597,0l-0.899567,1" id="svg_143" fill-opacity="null" stroke-width="NaN" fill="none"/>
 </g>
</svg>